<svg width="753" height="701" viewBox="0 0 753 701" fill="none" xmlns="http://www.w3.org/2000/svg">
<path d="M96.996 286.999H89.8179C89.3223 286.999 88.9207 287.401 88.9207 287.896C88.9207 288.391 89.3223 288.793 89.8179 288.793H96.996C97.4917 288.793 97.8933 288.391 97.8933 287.896C97.8933 287.401 97.4917 286.999 96.996 286.999ZM82.5262 287.433C80.0679 287.814 77.6902 288.442 75.419 289.287C74.9542 289.459 74.7179 289.976 74.8911 290.44C75.0642 290.905 75.5809 291.14 76.045 290.968C78.2039 290.164 80.464 289.568 82.8017 289.206C83.2911 289.131 83.6268 288.671 83.5511 288.181C83.4746 287.692 83.0161 287.356 82.5262 287.433ZM68.829 292.531C66.7421 293.833 64.7969 295.342 63.0207 297.025C62.661 297.366 62.6456 297.933 62.9869 298.294C63.3277 298.653 63.8955 298.669 64.2551 298.328C65.9452 296.726 67.795 295.292 69.7796 294.052C70.1995 293.79 70.3276 293.236 70.0649 292.816C69.8027 292.396 69.2489 292.269 68.8283 292.531H68.829ZM58.2223 302.584C56.8204 304.581 55.6132 306.725 54.6284 308.987C54.4308 309.441 54.6383 309.97 55.0925 310.168C55.5466 310.365 56.0759 310.157 56.2736 309.703C57.2102 307.552 58.3576 305.514 59.6909 303.613C59.9755 303.208 59.8774 302.65 59.4715 302.365C59.0664 302.079 58.5069 302.178 58.2223 302.584ZM52.393 315.983C51.8953 318.34 51.6254 320.782 51.6057 323.282C51.6023 323.777 52.0005 324.182 52.496 324.186C52.9916 324.19 53.3968 323.791 53.4002 323.296C53.4185 320.915 53.6757 318.595 54.1489 316.352C54.2514 315.868 53.9407 315.393 53.4564 315.29C52.9713 315.188 52.4952 315.498 52.393 315.983ZM51.605 330.466V337.643C51.605 338.138 52.0068 338.54 52.5022 338.54C52.9972 338.54 53.3995 338.138 53.3995 337.643V330.466C53.3995 329.971 52.9972 329.569 52.5022 329.569C52.0068 329.569 51.605 329.971 51.605 330.466ZM51.605 344.819V351.996C51.605 352.492 52.0068 352.893 52.5022 352.893C52.9972 352.893 53.3995 352.492 53.3995 351.996V344.819C53.3995 344.324 52.9972 343.922 52.5022 343.922C52.0068 343.922 51.605 344.324 51.605 344.819ZM51.605 359.173V366.35C51.605 366.845 52.0068 367.247 52.5022 367.247C52.9972 367.247 53.3995 366.845 53.3995 366.35V359.173C53.3995 358.678 52.9972 358.276 52.5022 358.276C52.0068 358.276 51.605 358.678 51.605 359.173ZM51.605 373.527V380.704C51.605 381.199 52.0068 381.601 52.5022 381.601C52.9972 381.601 53.3995 381.199 53.3995 380.704V373.527C53.3995 373.032 52.9972 372.63 52.5022 372.63C52.0068 372.63 51.605 373.032 51.605 373.527ZM51.605 387.881V395.057C51.605 395.553 52.0068 395.955 52.5022 395.955C52.9972 395.955 53.3995 395.553 53.3995 395.057V387.881C53.3995 387.385 52.9972 386.984 52.5022 386.984C52.0068 386.984 51.605 387.385 51.605 387.881ZM51.605 402.234V409.411C51.605 409.906 52.0068 410.308 52.5022 410.308C52.9972 410.308 53.3995 409.906 53.3995 409.411V402.234C53.3995 401.739 52.9972 401.337 52.5022 401.337C52.0068 401.337 51.605 401.739 51.605 402.234ZM51.605 416.588V423.765C51.605 424.26 52.0068 424.662 52.5022 424.662C52.9972 424.662 53.3995 424.26 53.3995 423.765V416.588C53.3995 416.093 52.9972 415.691 52.5022 415.691C52.0068 415.691 51.605 416.093 51.605 416.588ZM51.605 430.942V438.119C51.605 438.614 52.0068 439.016 52.5022 439.016C52.9972 439.016 53.3995 438.614 53.3995 438.119V430.942C53.3995 430.447 52.9972 430.045 52.5022 430.045C52.0068 430.045 51.605 430.447 51.605 430.942ZM51.605 445.296V452.472C51.605 452.968 52.0068 453.369 52.5022 453.369C52.9972 453.369 53.3995 452.968 53.3995 452.472V445.296C53.3995 444.8 52.9972 444.398 52.5022 444.398C52.0068 444.398 51.605 444.8 51.605 445.296ZM51.605 459.649V466.826C51.605 467.321 52.0068 467.723 52.5022 467.723C52.9972 467.723 53.3995 467.321 53.3995 466.826V459.649C53.3995 459.154 52.9972 458.752 52.5022 458.752C52.0068 458.752 51.605 459.154 51.605 459.649ZM51.605 474.003V481.18C51.605 481.675 52.0068 482.077 52.5022 482.077C52.9972 482.077 53.3995 481.675 53.3995 481.18V474.003C53.3995 473.506 52.9972 473.106 52.5022 473.106C52.0068 473.106 51.605 473.506 51.605 474.003ZM51.605 488.357V495.534C51.605 496.029 52.0068 496.431 52.5022 496.431C52.9972 496.431 53.3995 496.029 53.3995 495.534V488.357C53.3995 487.86 52.9972 487.46 52.5022 487.46C52.0068 487.46 51.605 487.86 51.605 488.357ZM51.605 502.71V509.887C51.605 510.382 52.0068 510.784 52.5022 510.784C52.9972 510.784 53.3995 510.382 53.3995 509.887V502.71C53.3995 502.213 52.9972 501.813 52.5022 501.813C52.0068 501.813 51.605 502.213 51.605 502.71ZM51.605 517.064V519.307C51.605 521.015 51.7222 522.698 51.9492 524.345C52.0172 524.836 52.4701 525.179 52.9607 525.111C53.4514 525.045 53.795 524.591 53.727 524.101C53.5111 522.533 53.3995 520.932 53.3995 519.307V517.064C53.3995 516.569 52.9972 516.167 52.5022 516.167C52.0068 516.167 51.605 516.569 51.605 517.064ZM53.6814 531.483C54.5051 533.815 55.5587 536.038 56.8141 538.126C57.07 538.55 57.6209 538.688 58.0457 538.432C58.4697 538.177 58.6072 537.626 58.352 537.2C57.1583 535.216 56.1566 533.102 55.3735 530.885C55.2087 530.419 54.6964 530.173 54.2289 530.338C53.762 530.503 53.5167 531.016 53.6814 531.483ZM61.2107 544.008C62.867 545.815 64.7023 547.453 66.6888 548.899C67.0897 549.189 67.6505 549.102 67.9421 548.699C68.2338 548.3 68.1447 547.738 67.7446 547.448C65.8548 546.073 64.1092 544.514 62.5334 542.795C62.1991 542.431 61.6313 542.406 61.266 542.739C60.9008 543.075 60.8762 543.642 61.2107 544.008ZM73.0314 552.601C75.2415 553.607 77.5696 554.4 79.9893 554.953C80.4724 555.064 80.9532 554.763 81.0641 554.28C81.1748 553.796 80.8726 553.315 80.3897 553.205C78.0896 552.678 75.8766 551.924 73.7751 550.967C73.3245 550.761 72.7924 550.96 72.5869 551.411C72.3816 551.861 72.5806 552.394 73.0314 552.601ZM87.2754 555.862C87.5762 555.871 87.8782 555.875 88.1804 555.875H94.4753C94.9709 555.875 95.3725 555.473 95.3725 554.978C95.3725 554.481 94.9709 554.081 94.4753 554.081H88.1804C87.8922 554.081 87.6056 554.077 87.3196 554.069C86.8239 554.058 86.4125 554.449 86.4006 554.943C86.3881 555.44 86.7798 555.852 87.2754 555.862ZM101.653 555.875H108.831C109.327 555.875 109.729 555.473 109.729 554.978C109.729 554.481 109.327 554.081 108.831 554.081H101.653C101.158 554.081 100.756 554.481 100.756 554.978C100.756 555.473 101.158 555.875 101.653 555.875ZM116.01 555.875H123.188C123.683 555.875 124.085 555.473 124.085 554.978C124.085 554.481 123.683 554.081 123.188 554.081H116.01C115.514 554.081 115.112 554.481 115.112 554.978C115.112 555.473 115.514 555.875 116.01 555.875ZM130.366 555.875H137.544C138.039 555.875 138.441 555.473 138.441 554.978C138.441 554.481 138.039 554.081 137.544 554.081H130.366C129.87 554.081 129.468 554.481 129.468 554.978C129.468 555.473 129.87 555.875 130.366 555.875ZM144.722 555.875H151.9C152.396 555.875 152.797 555.473 152.797 554.978C152.797 554.481 152.396 554.081 151.9 554.081H144.722C144.226 554.081 143.825 554.481 143.825 554.978C143.825 555.473 144.226 555.875 144.722 555.875ZM159.078 555.875H166.256C166.752 555.875 167.153 555.473 167.153 554.978C167.153 554.481 166.752 554.081 166.256 554.081H159.078C158.582 554.081 158.181 554.481 158.181 554.978C158.181 555.473 158.582 555.875 159.078 555.875ZM173.434 555.875H180.612C181.107 555.875 181.509 555.473 181.509 554.978C181.509 554.481 181.107 554.081 180.612 554.081H173.434C172.939 554.081 172.537 554.481 172.537 554.978C172.537 555.473 172.939 555.875 173.434 555.875ZM187.79 555.875H194.968C195.464 555.875 195.866 555.473 195.866 554.978C195.866 554.481 195.464 554.081 194.968 554.081H187.79C187.295 554.081 186.893 554.481 186.893 554.978C186.893 555.473 187.295 555.875 187.79 555.875ZM202.146 555.875H209.149L209.33 555.873C209.825 555.871 210.224 555.468 210.222 554.972C210.22 554.477 209.816 554.077 209.321 554.079L209.15 554.081H202.146C201.651 554.081 201.249 554.481 201.249 554.978C201.249 555.473 201.651 555.875 202.146 555.875ZM216.632 555.109C219.063 554.603 221.407 553.857 223.636 552.893C224.09 552.697 224.3 552.169 224.104 551.714C223.907 551.26 223.379 551.05 222.923 551.246C220.806 552.161 218.579 552.871 216.266 553.352C215.781 553.453 215.469 553.928 215.571 554.412C215.672 554.897 216.146 555.209 216.632 555.109ZM230.051 549.317C232.067 547.912 233.935 546.308 235.625 544.536C235.966 544.177 235.954 543.61 235.595 543.267C235.236 542.926 234.669 542.938 234.326 543.297C232.718 544.984 230.941 546.509 229.025 547.846C228.619 548.129 228.519 548.689 228.802 549.095C229.086 549.502 229.646 549.601 230.051 549.317ZM240.137 538.742C241.434 536.678 242.53 534.477 243.399 532.162C243.573 531.698 243.34 531.181 242.875 531.007C242.412 530.833 241.893 531.068 241.719 531.531C240.894 533.73 239.851 535.825 238.617 537.788C238.353 538.205 238.478 538.76 238.898 539.023C239.318 539.287 239.873 539.161 240.137 538.742ZM245.274 525.061C245.57 523.186 245.725 521.264 245.725 519.307C245.725 518.812 245.323 518.41 244.827 518.41C244.332 518.41 243.93 518.812 243.93 519.307C243.93 521.169 243.783 522.997 243.501 524.781C243.424 525.271 243.758 525.73 244.248 525.807C244.738 525.884 245.197 525.551 245.274 525.061Z" fill="#17282F"/>
<path d="M235.805 103.205V96.0282C235.805 95.5312 235.403 95.1311 234.908 95.1311C234.412 95.1311 234.01 95.5312 234.01 96.0282V103.205C234.01 103.7 234.412 104.102 234.908 104.102C235.403 104.102 235.805 103.7 235.805 103.205ZM235.805 88.8513V81.6745C235.805 81.1775 235.403 80.7774 234.908 80.7774C234.412 80.7774 234.01 81.1775 234.01 81.6745V88.8513C234.01 89.3465 234.412 89.7484 234.908 89.7484C235.403 89.7484 235.805 89.3465 235.805 88.8513ZM235.805 74.4976V67.3208C235.805 66.8238 235.403 66.4236 234.908 66.4236C234.412 66.4236 234.01 66.8238 234.01 67.3208V74.4976C234.01 74.9928 234.412 75.3947 234.908 75.3947C235.403 75.3947 235.805 74.9928 235.805 74.4976ZM236.223 60.352C236.688 58.0626 237.526 55.9095 238.671 53.9556C238.922 53.5286 238.778 52.9796 238.351 52.7284C237.924 52.4772 237.373 52.6207 237.124 53.0478C235.88 55.1685 234.969 57.5082 234.464 59.995C234.366 60.4812 234.68 60.9549 235.166 61.0536C235.65 61.1523 236.124 60.8383 236.223 60.352ZM243.055 48.6896C244.779 47.1987 246.75 45.9839 248.896 45.1137C249.355 44.9289 249.578 44.405 249.391 43.9457C249.204 43.4864 248.682 43.2657 248.223 43.4505C245.892 44.3961 243.753 45.7148 241.881 47.3332C241.506 47.658 241.465 48.2249 241.79 48.5999C242.114 48.9731 242.681 49.0144 243.055 48.6896ZM255.58 43.6228C255.97 43.6013 256.363 43.5905 256.759 43.5905H262.708C263.204 43.5905 263.606 43.1886 263.606 42.6933C263.606 42.1981 263.204 41.7962 262.708 41.7962H256.759C256.331 41.7962 255.903 41.807 255.482 41.8303C254.986 41.859 254.608 42.2807 254.635 42.7759C254.662 43.2711 255.085 43.6497 255.58 43.6228ZM269.886 43.5905H277.064C277.56 43.5905 277.962 43.1886 277.962 42.6933C277.962 42.1981 277.56 41.7962 277.064 41.7962H269.886C269.391 41.7962 268.989 42.1981 268.989 42.6933C268.989 43.1886 269.391 43.5905 269.886 43.5905ZM284.243 43.5905H291.421C291.916 43.5905 292.318 43.1886 292.318 42.6933C292.318 42.1981 291.916 41.7962 291.421 41.7962H284.243C283.747 41.7962 283.345 42.1981 283.345 42.6933C283.345 43.1886 283.747 43.5905 284.243 43.5905ZM298.599 43.5905H305.777C306.272 43.5905 306.674 43.1886 306.674 42.6933C306.674 42.1981 306.272 41.7962 305.777 41.7962H298.599C298.103 41.7962 297.701 42.1981 297.701 42.6933C297.701 43.1886 298.103 43.5905 298.599 43.5905ZM312.955 43.5905H320.133C320.628 43.5905 321.03 43.1886 321.03 42.6933C321.03 42.1981 320.628 41.7962 320.133 41.7962H312.955C312.46 41.7962 312.058 42.1981 312.058 42.6933C312.058 43.1886 312.46 43.5905 312.955 43.5905ZM327.311 43.5905H334.489C334.984 43.5905 335.386 43.1886 335.386 42.6933C335.386 42.1981 334.984 41.7962 334.489 41.7962H327.311C326.816 41.7962 326.414 42.1981 326.414 42.6933C326.414 43.1886 326.816 43.5905 327.311 43.5905ZM341.667 43.5905H348.845C349.341 43.5905 349.743 43.1886 349.743 42.6933C349.743 42.1981 349.341 41.7962 348.845 41.7962H341.667C341.172 41.7962 340.77 42.1981 340.77 42.6933C340.77 43.1886 341.172 43.5905 341.667 43.5905ZM356.023 43.5905H363.202C363.697 43.5905 364.099 43.1886 364.099 42.6933C364.099 42.1981 363.697 41.7962 363.202 41.7962H356.023C355.528 41.7962 355.126 42.1981 355.126 42.6933C355.126 43.1886 355.528 43.5905 356.023 43.5905ZM370.38 43.5905H377.558C378.053 43.5905 378.455 43.1886 378.455 42.6933C378.455 42.1981 378.053 41.7962 377.558 41.7962H370.38C369.884 41.7962 369.482 42.1981 369.482 42.6933C369.482 43.1886 369.884 43.5905 370.38 43.5905ZM384.736 43.5905H391.914C392.409 43.5905 392.811 43.1886 392.811 42.6933C392.811 42.1981 392.409 41.7962 391.914 41.7962H384.736C384.241 41.7962 383.839 42.1981 383.839 42.6933C383.839 43.1886 384.241 43.5905 384.736 43.5905ZM399.092 43.5905H406.27C406.765 43.5905 407.167 43.1886 407.167 42.6933C407.167 42.1981 406.765 41.7962 406.27 41.7962H399.092C398.597 41.7962 398.195 42.1981 398.195 42.6933C398.195 43.1886 398.597 43.5905 399.092 43.5905ZM413.448 43.5905H414.071C416.228 43.5905 418.306 43.9152 420.262 44.5181C420.736 44.6652 421.238 44.3997 421.384 43.926C421.531 43.4523 421.265 42.9499 420.791 42.8046C418.667 42.1479 416.409 41.7962 414.071 41.7962H413.448C412.953 41.7962 412.551 42.1981 412.551 42.6933C412.551 43.1886 412.953 43.5905 413.448 43.5905ZM426.387 47.588C428.244 48.939 429.872 50.5897 431.198 52.4664C431.483 52.8701 432.043 52.9671 432.449 52.6818C432.854 52.3947 432.949 51.8349 432.664 51.4312C431.225 49.3929 429.459 47.6041 427.442 46.1364C427.042 45.8458 426.48 45.9337 426.189 46.3338C425.897 46.7339 425.987 47.2955 426.387 47.588ZM434.18 58.6314C434.731 60.5045 435.026 62.4871 435.026 64.5397C435.026 65.0349 435.428 65.4368 435.923 65.4368C436.418 65.4368 436.82 65.0349 436.82 64.5397C436.82 62.3149 436.501 60.16 435.903 58.1254C435.763 57.6499 435.264 57.379 434.789 57.5172C434.313 57.6571 434.042 58.1559 434.18 58.6314Z" fill="#17282F"/>
<path d="M677.957 657.47C677.957 681.513 542.989 701.002 376.497 701.002C210.005 701.002 75.0356 681.513 75.0356 657.47C75.0356 633.428 210.005 613.94 376.497 613.94C542.989 613.94 677.957 633.428 677.957 657.47Z" fill="#4058C7"/>
<path d="M376.497 701.002C210.005 701.002 75.0356 681.513 75.0356 657.47C75.0356 633.428 210.005 613.94 376.497 613.94C542.989 613.94 677.957 633.428 677.957 657.47C677.957 681.513 542.989 701.002 376.497 701.002Z" fill="#2C375F"/>
<path d="M670.198 155.083V447.953C670.198 467.886 654.029 484.052 634.092 484.052H118.902C98.9652 484.052 82.7964 467.886 82.7964 447.953V155.083C82.7964 154.222 82.8321 153.378 82.9042 152.535C84.1963 133.785 99.8268 118.965 118.902 118.965H634.092C653.168 118.965 668.798 133.785 670.09 152.535C670.16 153.378 670.198 154.222 670.198 155.083Z" fill="white"/>
<path d="M670.198 155.083H669.301V447.953C669.301 457.674 665.36 466.469 658.987 472.844C652.611 479.215 643.815 483.155 634.092 483.155H118.902C109.179 483.155 100.383 479.215 94.0071 472.844C87.6337 466.469 83.6942 457.674 83.6934 447.953V155.083C83.6934 154.247 83.7284 153.429 83.7979 152.611L83.7993 152.596C85.0582 134.317 100.302 119.861 118.902 119.863H634.092C652.692 119.861 667.935 134.317 669.195 152.596L669.196 152.609C669.265 153.429 669.301 154.247 669.301 155.083H670.198H671.095C671.095 154.195 671.057 153.326 670.986 152.462L670.09 152.535L670.986 152.472C669.659 133.255 653.643 118.07 634.092 118.068H118.902C99.3514 118.07 83.3345 133.255 82.0089 152.472L82.904 152.535L82.0096 152.458C81.9361 153.326 81.8989 154.197 81.8989 155.083V447.953C81.8996 468.382 98.4696 484.949 118.902 484.949H634.092C654.526 484.949 671.095 468.382 671.095 447.953V155.083H670.198Z" fill="#17282F"/>
<path d="M620.631 470.436H134.203C115.515 470.436 100.366 455.289 100.366 436.604V166.065H654.469V436.604C654.469 455.289 639.319 470.436 620.631 470.436Z" fill="#17282F"/>
<path d="M620.624 469.546H568.448C565.245 462.405 561.713 455.108 557.907 448.1L571.642 438.264L562.401 416.534C565.344 412.93 567.838 408.964 569.81 404.748L593.374 403.456L596.963 381.836L575.07 373.025C574.567 368.415 573.509 363.894 571.93 359.534L587.684 341.986L574.926 324.152L553.195 333.374C549.588 330.486 545.658 328.045 541.459 326.09L540.184 302.514L518.542 298.943L509.678 320.743C505.084 321.281 500.577 322.34 496.235 323.901L492.676 320.716C492.56 316.421 493.949 311.727 493.949 311.727L491.149 309.256C500.875 305.506 509.028 296.394 507.856 285.33C507.373 280.77 504.019 277.492 499.668 276.408C498.639 276.153 497.629 276.042 496.635 276.042C492.073 276.042 487.829 278.392 483.556 280.005C481.457 280.796 479.364 281.112 477.279 281.112C469.943 281.112 462.663 277.21 455.198 276.408C453.681 276.245 452.1 276.146 450.505 276.146C443.474 276.146 436.145 278.05 432.667 284.694C432.667 284.694 417.941 286.421 411.49 298.516C405.039 310.607 417.301 327.349 417.301 327.349C417.301 327.349 418.004 326.501 419.217 326.091L418.925 326.402C418.925 326.402 415.418 329.5 416.813 337.332C417.098 338.936 417.461 340.494 417.879 341.961L408.283 342.41C406.509 339.453 404.387 336.715 401.983 334.271L407.178 317.501L393.021 309.393L381.175 322.315C377.841 321.498 374.421 321.069 370.975 321.016L362.774 305.472L347.038 309.753L347.869 327.308C344.913 329.081 342.171 331.201 339.713 333.598L322.932 328.42L322.385 329.373V306.694H335.34L341.746 278.094C347.273 276.533 352.585 274.309 357.592 271.51L382.338 287.245L401.593 267.993L385.963 243.251C388.745 238.227 390.95 232.916 392.513 227.39L421.154 221.002V193.766L392.513 187.415C390.95 181.889 388.763 176.542 385.963 171.518L388.85 166.971H653.571V436.606C653.571 445.701 649.887 453.929 643.924 459.895C637.959 465.859 629.728 469.546 620.624 469.546ZM371.384 469.546H322.385V388.182L332.809 387.689C334.561 390.656 336.666 393.389 339.087 395.838L333.864 412.522L348.023 420.632L359.808 407.82C363.153 408.659 366.573 409.088 370.029 409.11L378.207 424.662L383.754 423.153C379.347 429.447 374.798 450.736 371.384 469.546ZM107.811 456.305C105.225 452.84 103.303 448.85 102.237 444.524L107.811 450.71V456.305ZM101.271 430.613V404.814L105.129 405.907C105.792 408.855 106.69 411.742 107.811 414.539V421.463L101.271 430.613ZM393.796 417.148L393.256 405.389L393.138 402.817C396.125 401.056 398.884 398.942 401.374 396.516L418.141 401.728L425.069 389.621L426.25 387.572L413.263 375.743C414.103 372.4 414.537 368.964 414.575 365.512L430.108 357.347L428.902 352.922C429.45 352.94 429.794 352.94 429.794 352.94C429.794 352.94 433.746 361.5 437.301 366.91L435.582 377.261L439.135 378.696L439.677 378.913C439.731 380.058 439.783 381.235 439.824 382.405C437.078 383.013 434.11 384.427 432.165 387.513C432.154 387.529 432.143 387.545 432.134 387.561C432.131 387.567 432.127 387.574 432.124 387.579C432.107 387.604 432.093 387.628 432.079 387.653C430.731 391.141 430.456 395.635 430.456 398.73C430.456 400.874 430.587 402.346 430.587 402.346C430.587 402.346 430.266 402.473 429.656 402.688C425.22 404.341 405.893 411.613 393.796 417.148ZM516.238 407.777C507.409 407.777 498.711 403.666 493.186 395.938C484.07 383.235 487.013 365.544 499.718 356.448C504.714 352.87 510.476 351.149 516.184 351.149C525.012 351.149 533.708 355.264 539.232 362.979C548.35 375.7 545.406 393.391 532.701 402.487C527.705 406.058 521.943 407.777 516.238 407.777ZM370.501 386.061C361.22 386.061 352.721 379.889 350.175 370.52C347.115 359.277 353.753 347.694 364.974 344.645C366.828 344.139 368.693 343.899 370.527 343.899C379.808 343.899 388.307 350.071 390.853 359.441C393.913 370.683 387.277 382.267 376.054 385.315C374.2 385.819 372.335 386.061 370.501 386.061ZM101.271 375.151V166.971H254.816L257.583 171.374C254.765 176.38 252.576 181.709 251.051 187.253L222.41 193.623V220.859L251.051 227.246C252.492 232.52 254.527 237.617 257.123 242.418H130.036C117.761 242.418 107.812 252.367 107.811 264.638V335.798L101.36 341.602L107.811 352.999V371.781C107.497 372.587 107.202 373.4 106.923 374.221L101.271 375.151ZM322.385 366.748V349.438L327.806 354.365C326.966 357.709 326.537 361.131 326.523 364.57L322.385 366.748ZM321.917 242.569C302.482 242.569 286.726 226.816 286.726 207.384C286.726 187.953 302.482 172.2 321.917 172.2C341.351 172.2 357.107 187.953 357.107 207.384C357.107 226.816 341.351 242.569 321.917 242.569Z" fill="#2C375F"/>
<path d="M670.09 152.535H82.9043C84.1964 133.786 99.8268 118.965 118.902 118.965H634.092C653.168 118.965 668.798 133.786 670.09 152.535Z" fill="#4058C7"/>
<path d="M670.09 152.535V151.638H82.9041V152.535L83.7994 152.596C85.0582 134.317 100.302 119.861 118.902 119.863H634.092C652.692 119.861 667.935 134.317 669.196 152.596L670.09 152.535V151.638V152.535L670.986 152.472C669.659 133.255 653.643 118.07 634.092 118.068H118.902C99.3514 118.07 83.3346 133.255 82.009 152.472L81.9424 153.432H671.052L670.986 152.472L670.09 152.535Z" fill="#17282F"/>
<path d="M155.06 135.75C155.06 139.281 152.198 142.145 148.665 142.145C145.133 142.145 142.27 139.281 142.27 135.75C142.27 132.219 145.133 129.356 148.665 129.356C152.198 129.356 155.06 132.219 155.06 135.75Z" fill="#17282F"/>
<path d="M182.102 135.75C182.102 139.281 179.238 142.145 175.706 142.145C172.174 142.145 169.31 139.281 169.31 135.75C169.31 132.219 172.174 129.356 175.706 129.356C179.238 129.356 182.102 132.219 182.102 135.75Z" fill="#17282F"/>
<path d="M209.142 135.75C209.142 139.281 206.279 142.145 202.748 142.145C199.214 142.145 196.352 139.281 196.352 135.75C196.352 132.219 199.214 129.356 202.748 129.356C206.279 129.356 209.142 132.219 209.142 135.75Z" fill="#17282F"/>
<path d="M654.469 166.074H653.572V436.606C653.572 445.701 649.887 453.929 643.924 459.895C637.959 465.859 629.728 469.546 620.624 469.546H134.2C118.199 469.548 104.87 458.124 101.9 443.001L101.85 442.744L101.65 442.534L101.001 443.153H101.899V443.081V442.995L101.882 442.909C101.48 440.867 101.271 438.754 101.271 436.606V166.971H654.469V166.074H653.572H654.469V165.177H99.4761V436.606C99.4761 438.87 99.697 441.099 100.121 443.255L101.001 443.081H100.104V443.153V443.514L100.371 443.792L101.02 443.173L100.139 443.345C103.271 459.299 117.325 471.339 134.2 471.34H620.624C639.818 471.34 655.366 455.779 655.366 436.606V165.177H654.469V166.074Z" fill="#17282F"/>
<path d="M636.967 255.017C627.743 255.017 620.279 247.552 620.279 238.331C620.279 229.125 627.743 221.643 636.967 221.643C646.19 221.643 653.656 229.125 653.656 238.331C653.656 247.552 646.19 255.017 636.967 255.017ZM653.943 207.917C651.574 206.591 649.044 205.551 646.424 204.815L643.391 191.233H630.47L627.457 204.815C624.818 205.531 622.287 206.591 619.919 207.917L608.254 200.453L599.122 209.588L606.46 221.25C605.114 223.636 604.073 226.164 603.355 228.784L589.772 231.8V244.718L603.355 247.751C604.073 250.406 605.114 252.954 606.46 255.34L598.994 267.074L608.129 276.207L619.865 268.741C622.234 270.087 624.766 271.127 627.402 271.865L630.417 285.429H643.337L646.37 271.865C648.992 271.127 651.52 270.071 653.889 268.741L654.481 269.118V207.578L653.943 207.917Z" fill="#5668AA"/>
<path d="M321.916 242.569C302.482 242.569 286.726 226.816 286.726 207.385C286.726 187.953 302.482 172.2 321.916 172.2C341.351 172.2 357.107 187.953 357.107 207.385C357.107 226.816 341.351 242.569 321.916 242.569ZM421.154 221.003V193.766L392.513 187.415C390.95 181.889 388.762 176.542 385.963 171.518L389.426 166.064H254.245L257.583 171.375C254.765 176.38 252.576 181.709 251.051 187.253L222.41 193.623V220.859L251.051 227.246C252.576 232.826 254.765 238.209 257.583 243.251L241.845 267.993L261.118 287.245L285.847 271.51C290.871 274.327 296.201 276.534 301.746 278.095L308.099 306.694H335.34L341.746 278.095C347.273 276.534 352.585 274.309 357.592 271.51L382.338 287.245L401.593 267.993L385.963 243.251C388.745 238.227 390.95 232.916 392.513 227.39L421.154 221.003Z" fill="#5668AA"/>
<path d="M183.083 374.275C172.747 362.79 155.052 361.859 143.568 372.194C132.083 382.527 131.149 400.219 141.486 411.702C151.822 423.185 169.517 424.1 181.002 413.764C192.487 403.431 193.42 385.758 183.083 374.275ZM240.472 408.024L241.621 386.422L219.225 380.106C218.184 375.674 216.641 371.35 214.631 367.26L228.162 348.259L213.662 332.165L193.384 343.63C189.508 341.208 185.38 339.216 181.038 337.727L177.161 314.761L155.555 313.613L149.31 336.076C144.86 337.063 140.553 338.606 136.462 340.633L117.476 327.105L101.361 341.602L112.845 361.893C110.37 365.752 108.395 369.879 106.924 374.221L100.374 375.298V404.561L105.129 405.907C106.134 410.375 107.678 414.699 109.723 418.789L100.374 431.868L101.002 443.081V443.153L101.02 443.173L110.656 453.866L130.971 442.401C134.846 444.895 139.011 446.905 143.352 448.376L147.049 470.427V470.443L147.229 471.36L168.834 472.508L169.409 470.443V470.427L175.079 450.045C179.566 449.04 183.873 447.515 188 445.487L206.951 458.996L223.065 444.519L211.616 424.208C214.057 420.35 216.031 416.224 217.467 411.898L240.472 408.024Z" fill="#17282F"/>
<path d="M376.054 385.315C364.811 388.374 353.226 381.739 350.175 370.52C347.115 359.277 353.753 347.694 364.974 344.645C376.219 341.585 387.804 348.221 390.853 359.441C393.913 370.683 387.277 382.267 376.054 385.315ZM413.263 375.743C414.103 372.4 414.537 368.964 414.575 365.512L430.108 357.347L425.816 341.59L408.283 342.41C406.509 339.453 404.387 336.715 401.983 334.271L407.178 317.501L393.021 309.393L381.175 322.315C377.841 321.498 374.421 321.069 370.975 321.016L362.774 305.472L347.038 309.753L347.869 327.308C344.913 329.081 342.171 331.201 339.713 333.599L322.932 328.42L314.812 342.555L327.806 354.365C326.966 357.709 326.537 361.131 326.523 364.57L310.961 372.763L315.253 388.519L332.809 387.689C334.561 390.656 336.666 393.389 339.087 395.838L333.864 412.522L348.023 420.632L359.808 407.82C363.153 408.66 366.573 409.088 370.029 409.11L378.207 424.662L393.945 420.381L393.256 405.389L393.138 402.818C396.125 401.056 398.884 398.942 401.374 396.516L418.141 401.728L425.069 389.621L426.25 387.572L413.263 375.743Z" fill="#5668AA"/>
<path d="M532.702 402.487C519.978 411.584 502.284 408.659 493.186 395.938C484.07 383.235 487.013 365.544 499.718 356.448C512.441 347.333 530.135 350.276 539.232 362.979C548.35 375.7 545.407 393.391 532.702 402.487ZM593.374 403.456L596.964 381.836L575.07 373.025C574.568 368.415 573.509 363.894 571.93 359.534L587.684 341.986L574.927 324.152L553.195 333.374C549.588 330.486 545.658 328.045 541.459 326.09L540.185 302.514L518.543 298.943L509.678 320.743C505.084 321.281 500.578 322.34 496.235 323.901L478.633 308.148L460.813 320.904L470.055 342.614C467.507 345.808 465.299 349.217 463.469 352.84C463.218 353.344 462.965 353.846 462.733 354.349L439.171 355.658L435.582 377.261L439.135 378.696L457.475 386.088C457.978 390.663 459.019 395.185 460.616 399.527L444.86 417.128L457.619 434.945L479.35 425.687C482.939 428.611 486.887 431.069 491.069 433.025L492.289 456.493L513.913 460.064L522.76 438.425C527.372 437.923 531.894 436.865 536.237 435.268L553.805 451.039L571.643 438.264L562.401 416.534C565.344 412.93 567.838 408.964 569.811 404.748L593.374 403.456Z" fill="#5668AA"/>
<path d="M300.162 521.471H130.037C118.257 521.471 108.709 511.925 108.709 500.148V264.638C108.709 252.862 118.257 243.314 130.037 243.314H300.162C311.939 243.314 321.488 252.862 321.488 264.638V500.148C321.488 511.925 311.939 521.471 300.162 521.471Z" fill="#4058C7"/>
<path d="M300.162 521.471V520.574H130.036C124.392 520.572 119.289 518.288 115.59 514.592C111.891 510.892 109.607 505.791 109.606 500.148V264.638C109.607 258.995 111.891 253.894 115.59 250.194C119.289 246.496 124.392 244.212 130.036 244.211H300.162C305.805 244.212 310.907 246.496 314.608 250.194C318.306 253.894 320.591 258.995 320.591 264.638V500.148C320.591 505.791 318.306 510.892 314.608 514.592C310.907 518.288 305.805 520.572 300.162 520.574V521.471V522.368C312.434 522.366 322.385 512.421 322.385 500.148V264.638C322.385 252.367 312.436 242.418 300.162 242.418H130.036C117.761 242.418 107.812 252.367 107.812 264.638V500.148C107.812 512.421 117.761 522.366 130.036 522.368H300.162V521.471Z" fill="#17282F"/>
<path d="M300.162 521.471V520.574H130.036C124.392 520.572 119.289 518.288 115.59 514.592C111.891 510.892 109.607 505.791 109.606 500.148V264.638C109.607 258.995 111.891 253.894 115.59 250.194C119.289 246.496 124.392 244.212 130.036 244.211H300.162C305.805 244.212 310.907 246.496 314.607 250.194C318.306 253.894 320.59 258.995 320.59 264.638V500.148C320.59 505.791 318.306 510.892 314.607 514.592C310.907 518.288 305.805 520.572 300.162 520.574V521.471Z" fill="#5C79FF"/>
<path d="M300.162 521.471V520.574C305.806 520.572 310.907 518.288 314.608 514.592C318.306 510.892 320.591 505.791 320.591 500.148V264.638C320.591 258.995 318.306 253.894 314.608 250.194C310.907 246.496 305.806 244.212 300.162 244.211H130.037C124.392 244.212 119.29 246.496 115.59 250.194C111.892 253.894 109.607 258.995 109.606 264.638V500.148C109.607 505.791 111.892 510.892 115.59 514.592C119.29 518.288 124.392 520.572 130.037 520.574H300.162V521.471H130.037C118.257 521.471 108.709 511.925 108.709 500.148V264.638C108.709 252.862 118.257 243.314 130.037 243.314H300.162C311.939 243.314 321.488 252.862 321.488 264.638V500.148C321.488 511.925 311.939 521.471 300.162 521.471Z" fill="#111D23"/>
<path d="M341.296 285.646V521.155C341.296 532.943 331.749 542.49 319.959 542.49H149.839C138.066 542.49 128.52 532.943 128.52 521.155V285.646C128.52 273.876 138.066 264.331 149.839 264.331H319.959C331.749 264.331 341.296 273.876 341.296 285.646Z" fill="white"/>
<path d="M341.296 285.646H340.398V521.155C340.398 526.805 338.114 531.908 334.414 535.609C330.713 539.307 325.61 541.591 319.959 541.593H149.838C144.197 541.591 139.098 539.307 135.399 535.609C131.702 531.908 129.417 526.805 129.417 521.155V285.646C129.417 280.007 131.702 274.908 135.399 271.21C139.097 267.514 144.197 265.23 149.838 265.228H319.959C325.61 265.23 330.713 267.514 334.414 271.21C338.114 274.908 340.398 280.007 340.398 285.646H341.296H342.193C342.193 273.381 332.244 263.436 319.959 263.434H149.838C137.57 263.436 127.623 273.381 127.622 285.646V521.155C127.623 533.438 137.57 543.386 149.838 543.387H319.959C332.244 543.386 342.193 533.438 342.193 521.155V285.646H341.296Z" fill="#17282F"/>
<path d="M341.296 285.646V298.261H128.52V285.646C128.52 273.876 138.066 264.331 149.839 264.331H319.959C331.749 264.331 341.296 273.876 341.296 285.646Z" fill="#4058C7"/>
<path d="M341.296 285.646H340.398V297.364H129.417V285.646C129.417 280.007 131.702 274.908 135.399 271.21C139.097 267.514 144.197 265.23 149.838 265.228H319.959C325.61 265.23 330.713 267.514 334.414 271.21C338.114 274.908 340.398 280.007 340.398 285.646H341.296H342.193C342.193 273.381 332.244 263.436 319.959 263.434H149.838C137.57 263.436 127.623 273.381 127.622 285.646V299.158H342.193V285.646H341.296Z" fill="#17282F"/>
<path d="M200.876 321.649H148.529V312.87H200.876V321.649Z" fill="#4058C7"/>
<path d="M200.876 400.354H148.529V391.573H200.876V400.354Z" fill="#4058C7"/>
<path d="M200.876 471.724H148.529V462.947H200.876V471.724Z" fill="#4058C7"/>
<path d="M297.204 341.043H148.529V334.603H297.204V341.043Z" fill="#17282F"/>
<path d="M270.396 353.204H148.529V346.929H270.396V353.204Z" fill="#17282F"/>
<path d="M286.355 365.318H148.529V359.044H286.355V365.318Z" fill="#17282F"/>
<path d="M286.355 377.422H148.529V371.148H286.355V377.422Z" fill="#17282F"/>
<path d="M297.204 412.415H148.529V405.975H297.204V412.415Z" fill="#17282F"/>
<path d="M270.396 424.574H148.529V418.3H270.396V424.574Z" fill="#17282F"/>
<path d="M286.355 436.689H148.529V430.414H286.355V436.689Z" fill="#17282F"/>
<path d="M297.204 490.79H148.529V484.35H297.204V490.79Z" fill="#17282F"/>
<path d="M270.396 502.951H148.529V496.675H270.396V502.951Z" fill="#17282F"/>
<path d="M286.355 515.065H148.529V508.789H286.355V515.065Z" fill="#17282F"/>
<path d="M581.091 101.034V196.217C581.091 210.266 569.713 221.641 555.662 221.641H336.389C322.356 221.641 310.961 210.266 310.961 196.217V101.034C310.961 86.9853 322.356 75.592 336.389 75.592H555.662C569.713 75.592 581.091 86.9853 581.091 101.034Z" fill="white"/>
<path d="M581.091 101.034H580.194V196.217C580.192 202.996 577.45 209.123 573.01 213.564C568.571 218.003 562.442 220.744 555.662 220.744H336.39C329.617 220.744 323.491 218.003 319.047 213.562C314.606 209.121 311.858 202.996 311.858 196.217V101.034C311.858 94.2537 314.606 88.1229 319.047 83.6786C323.491 79.2361 329.619 76.4892 336.39 76.4892H555.662C562.442 76.4892 568.569 79.2361 573.01 83.6786C577.45 88.1229 580.192 94.2537 580.194 101.034H581.091H581.988C581.986 86.4902 570.209 74.695 555.662 74.695H336.39C321.859 74.695 310.064 86.4884 310.064 101.034V196.217C310.064 210.761 321.861 222.538 336.39 222.538H555.662C570.209 222.538 581.988 210.761 581.988 196.217V101.034H581.091Z" fill="#171717"/>
<path d="M581.091 101.034V103.205H310.961V101.034C310.961 86.9855 322.356 75.5922 336.389 75.5922H555.662C569.713 75.5922 581.091 86.9855 581.091 101.034Z" fill="#4058C7"/>
<path d="M581.091 101.034H580.194V102.308H311.858V101.034C311.858 94.2538 314.606 88.1229 319.047 83.6786C323.491 79.2362 329.619 76.4892 336.39 76.4892H555.662C562.442 76.4892 568.569 79.2362 573.01 83.6786C577.45 88.1229 580.192 94.2538 580.194 101.034H581.091H581.988C581.986 86.4902 570.209 74.695 555.662 74.695H336.39C321.859 74.695 310.064 86.4884 310.064 101.034V103.205V104.102H581.988V101.034H581.091Z" fill="#17282F"/>
<path d="M350.645 93.9451C349.123 95.4666 346.658 95.4666 345.136 93.9451C343.616 92.4254 343.616 89.9601 345.136 88.4386C346.658 86.9189 349.123 86.9189 350.645 88.4386C352.165 89.9601 352.165 92.4254 350.645 93.9451Z" fill="#17282F"/>
<path d="M368.736 93.9451C367.214 95.4666 364.749 95.4666 363.227 93.9451C361.707 92.4254 361.707 89.9601 363.227 88.4386C364.749 86.9189 367.214 86.9189 368.736 88.4386C370.256 89.9601 370.256 92.4254 368.736 93.9451Z" fill="#17282F"/>
<path d="M386.826 93.9451C385.305 95.4666 382.837 95.4666 381.315 93.9451C379.797 92.4254 379.797 89.9601 381.315 88.4386C382.837 86.9189 385.305 86.9189 386.826 88.4386C388.345 89.9601 388.345 92.4254 386.826 93.9451Z" fill="#17282F"/>
<path d="M402.128 196.124H394.95C394.455 196.124 394.053 196.526 394.053 197.021C394.053 197.516 394.455 197.918 394.95 197.918H402.128C402.623 197.918 403.025 197.516 403.025 197.021C403.025 196.526 402.623 196.124 402.128 196.124ZM387.772 196.124H380.594C380.099 196.124 379.697 196.526 379.697 197.021C379.697 197.516 380.099 197.918 380.594 197.918H387.772C388.267 197.918 388.669 197.516 388.669 197.021C388.669 196.526 388.267 196.124 387.772 196.124ZM373.416 196.124H366.238C365.742 196.124 365.34 196.526 365.34 197.021C365.34 197.516 365.742 197.918 366.238 197.918H373.416C373.911 197.918 374.313 197.516 374.313 197.021C374.313 196.526 373.911 196.124 373.416 196.124ZM359.06 196.124H351.882C351.386 196.124 350.984 196.526 350.984 197.021C350.984 197.516 351.386 197.918 351.882 197.918H359.06C359.555 197.918 359.957 197.516 359.957 197.021C359.957 196.526 359.555 196.124 359.06 196.124ZM344.703 196.124H337.525C337.03 196.124 336.628 196.526 336.628 197.021C336.628 197.516 337.03 197.918 337.525 197.918H344.703C345.199 197.918 345.601 197.516 345.601 197.021C345.601 196.526 345.199 196.124 344.703 196.124ZM330.347 196.124H329.082V192.004C329.082 191.509 328.682 191.107 328.185 191.107C327.69 191.107 327.288 191.509 327.288 192.004V197.021C327.288 197.256 327.384 197.487 327.551 197.654C327.718 197.821 327.95 197.918 328.185 197.918H330.347C330.843 197.918 331.245 197.516 331.245 197.021C331.245 196.526 330.843 196.124 330.347 196.124ZM329.082 184.828V177.651C329.082 177.155 328.682 176.754 328.185 176.754C327.69 176.754 327.288 177.155 327.288 177.651V184.828C327.288 185.325 327.69 185.725 328.185 185.725C328.682 185.725 329.082 185.325 329.082 184.828ZM329.082 170.474V163.297C329.082 162.802 328.682 162.4 328.185 162.4C327.69 162.4 327.288 162.802 327.288 163.297V170.474C327.288 170.971 327.69 171.371 328.185 171.371C328.682 171.371 329.082 170.971 329.082 170.474ZM329.082 156.12V148.943C329.082 148.448 328.682 148.046 328.185 148.046C327.69 148.046 327.288 148.448 327.288 148.943V156.12C327.288 156.617 327.69 157.017 328.185 157.017C328.682 157.017 329.082 156.617 329.082 156.12ZM329.082 141.766V134.589C329.082 134.094 328.682 133.692 328.185 133.692C327.69 133.692 327.288 134.094 327.288 134.589V141.766C327.288 142.263 327.69 142.663 328.185 142.663C328.682 142.663 329.082 142.263 329.082 141.766ZM329.082 127.413V120.708H328.185V121.605H328.657C329.152 121.605 329.554 121.203 329.554 120.708C329.554 120.212 329.152 119.81 328.657 119.81H328.185C327.95 119.81 327.718 119.907 327.551 120.072C327.384 120.239 327.288 120.471 327.288 120.708V127.413C327.288 127.91 327.69 128.31 328.185 128.31C328.682 128.31 329.082 127.91 329.082 127.413ZM335.835 121.605H343.013C343.508 121.605 343.91 121.203 343.91 120.708C343.91 120.212 343.508 119.81 343.013 119.81H335.835C335.34 119.81 334.938 120.212 334.938 120.708C334.938 121.203 335.34 121.605 335.835 121.605ZM350.191 121.605H357.369C357.864 121.605 358.266 121.203 358.266 120.708C358.266 120.212 357.864 119.81 357.369 119.81H350.191C349.696 119.81 349.294 120.212 349.294 120.708C349.294 121.203 349.696 121.605 350.191 121.605ZM364.547 121.605H371.725C372.221 121.605 372.623 121.203 372.623 120.708C372.623 120.212 372.221 119.81 371.725 119.81H364.547C364.052 119.81 363.65 120.212 363.65 120.708C363.65 121.203 364.052 121.605 364.547 121.605ZM378.903 121.605H386.082C386.577 121.605 386.979 121.203 386.979 120.708C386.979 120.212 386.577 119.81 386.082 119.81H378.903C378.408 119.81 378.006 120.212 378.006 120.708C378.006 121.203 378.408 121.605 378.903 121.605ZM393.26 121.605H400.438C400.933 121.605 401.335 121.203 401.335 120.708C401.335 120.212 400.933 119.81 400.438 119.81H393.26C392.764 119.81 392.362 120.212 392.362 120.708C392.362 121.203 392.764 121.605 393.26 121.605ZM407.616 121.605H414.794C415.289 121.605 415.691 121.203 415.691 120.708C415.691 120.212 415.289 119.81 414.794 119.81H407.616C407.121 119.81 406.719 120.212 406.719 120.708C406.719 121.203 407.121 121.605 407.616 121.605ZM415.587 126.194V133.371C415.587 133.866 415.989 134.268 416.484 134.268C416.98 134.268 417.382 133.866 417.382 133.371V126.194C417.382 125.699 416.98 125.297 416.484 125.297C415.989 125.297 415.587 125.699 415.587 126.194ZM415.587 140.548V147.725C415.587 148.22 415.989 148.622 416.484 148.622C416.98 148.622 417.382 148.22 417.382 147.725V140.548C417.382 140.053 416.98 139.651 416.484 139.651C415.989 139.651 415.587 140.053 415.587 140.548ZM415.587 154.902V162.079C415.587 162.574 415.989 162.976 416.484 162.976C416.98 162.976 417.382 162.574 417.382 162.079V154.902C417.382 154.407 416.98 154.005 416.484 154.005C415.989 154.005 415.587 154.407 415.587 154.902ZM415.587 169.255V176.432C415.587 176.928 415.989 177.329 416.484 177.329C416.98 177.329 417.382 176.928 417.382 176.432V169.255C417.382 168.76 416.98 168.358 416.484 168.358C415.989 168.358 415.587 168.76 415.587 169.255ZM415.587 183.609V190.786C415.587 191.281 415.989 191.683 416.484 191.683C416.98 191.683 417.382 191.281 417.382 190.786V183.609C417.382 183.114 416.98 182.712 416.484 182.712C415.989 182.712 415.587 183.114 415.587 183.609ZM416.484 196.124H409.306C408.811 196.124 408.409 196.526 408.409 197.021C408.409 197.516 408.811 197.918 409.306 197.918H416.484C416.98 197.918 417.382 197.516 417.382 197.021C417.382 196.526 416.98 196.124 416.484 196.124Z" fill="#17282F"/>
<path d="M531.73 126.067H430.108V120.708H531.73V126.067Z" fill="#17282F"/>
<path d="M508.057 137.18H430.108V131.823H508.057V137.18Z" fill="#17282F"/>
<path d="M546.184 148.294H430.108V142.873H546.184V148.294Z" fill="#17282F"/>
<path d="M528.949 159.091H430.108V153.669H528.949V159.091Z" fill="#17282F"/>
<path d="M452.734 654.327C452.734 654.327 405.556 667.856 398.97 670.188C392.975 672.303 376.736 677.991 364.551 676.235C363.349 676.055 362.182 675.802 361.07 675.481C348.723 671.803 343.178 668.376 341.563 660.607C339.93 652.82 346.085 647.133 352.007 643.472C357.929 639.812 390.051 635.99 390.051 635.99L397.804 638.269H397.822L452.734 654.327Z" fill="#4058C7"/>
<path d="M364.551 676.235C363.349 676.055 362.182 675.802 361.07 675.481C348.723 671.803 343.178 668.376 341.563 660.607C339.93 652.82 346.085 647.133 352.007 643.472C357.929 639.812 390.051 635.99 390.051 635.99L397.804 638.269C390.787 641.497 364.623 643.291 358.916 646.574C353.21 649.858 350.446 656.05 353.82 664.41C355.614 668.859 360.424 673.166 364.551 676.235Z" fill="white"/>
<path d="M445.411 655.382C445.405 655.384 436.542 657.678 425.917 660.711C415.288 663.745 402.916 667.505 395.81 670.475C389.14 673.269 379.413 675.326 370.163 675.323C365.242 675.325 360.456 674.743 356.336 673.414C352.212 672.085 348.774 670.019 346.457 667.077C343.589 663.435 342.457 660.038 342.455 657.025C342.457 653.683 343.853 650.745 346.06 648.417C348.266 646.092 351.284 644.405 354.41 643.65C362.391 641.71 377.316 638.814 387.984 638.82C389.996 638.82 391.853 638.922 393.472 639.148C393.963 639.216 394.416 638.873 394.484 638.384C394.554 637.892 394.211 637.439 393.719 637.37C391.989 637.13 390.057 637.025 387.984 637.025C377.02 637.029 362.071 639.948 353.987 641.905C350.531 642.745 347.229 644.583 344.759 647.182C342.292 649.777 340.659 653.166 340.661 657.025C340.659 660.501 341.985 664.304 345.048 668.187C347.652 671.49 351.43 673.719 355.785 675.122C360.144 676.525 365.102 677.117 370.163 677.117C379.679 677.113 389.558 675.03 396.503 672.131C403.444 669.226 415.813 665.458 426.41 662.437C431.711 660.924 436.574 659.593 440.113 658.642C443.65 657.691 445.854 657.121 445.861 657.119C446.34 656.995 446.627 656.505 446.503 656.026C446.38 655.545 445.89 655.258 445.411 655.382Z" fill="#17282F"/>
<path d="M365.692 674.803L365.561 674.727C364.874 674.334 361.654 672.4 358.649 669.362C355.632 666.321 352.89 662.216 352.899 657.514C352.901 655.841 353.238 654.077 354.044 652.21C355.017 649.953 357.116 648.3 360.074 647.027C364.493 645.119 370.686 644.17 376.89 643.206C383.103 642.232 389.324 641.247 393.977 639.07C394.426 638.861 394.618 638.326 394.408 637.878C394.196 637.429 393.663 637.237 393.215 637.447C387.503 640.142 378.539 641.014 370.444 642.435C366.39 643.153 362.543 644.012 359.363 645.379C356.196 646.739 353.633 648.645 352.397 651.497C351.497 653.577 351.104 655.597 351.104 657.514C351.117 663.305 354.62 668.004 358.012 671.252C361.419 674.506 364.79 676.351 364.831 676.376C365.265 676.613 365.811 676.455 366.049 676.021C366.286 675.587 366.128 675.041 365.692 674.803Z" fill="#17282F"/>
<path d="M596.421 678.421C595.937 683.249 594.232 687.879 589.351 690.749C586.103 692.669 581.473 693.816 574.851 693.744C558.306 693.529 527.207 681.705 527.207 681.705L498.082 665.613L513.227 641.64L517.373 635.073L528.086 637.479C528.086 637.479 536.951 642.503 545.87 646.502C554.787 650.505 576.43 651.349 584.057 657.521C591.684 663.675 597.247 670.385 596.421 678.421Z" fill="#4058C7"/>
<path d="M596.421 678.421C595.937 683.25 594.232 687.879 589.351 690.75C590.266 687 591.02 681.814 588.525 676.216C585.293 668.914 574.69 662.473 560.762 661.394C546.855 660.32 536.179 653.807 530.598 650.9C526.237 648.639 517.049 643.705 513.227 641.64L517.372 635.073L528.086 637.48C528.086 637.48 536.951 642.503 545.869 646.502C554.786 650.505 576.43 651.349 584.057 657.521C591.684 663.675 597.247 670.385 596.421 678.421Z" fill="white"/>
<path d="M504.09 670.902C524.919 682.832 548.734 691.424 572.597 694.296C574.195 694.488 575.88 694.634 577.568 694.634C579.562 694.634 581.563 694.433 583.426 693.85C585.286 693.267 587.015 692.287 588.386 690.748C590.295 688.603 591.108 685.753 591.11 682.973C591.11 682.566 591.092 682.159 591.056 681.755C590.715 677.785 588.875 674.254 586.261 671.356C583.644 668.456 580.247 666.171 576.694 664.642C569.622 661.612 561.949 660.91 554.706 659.279C547.49 657.662 540.486 655.101 533.931 651.68C528.718 648.969 523.56 645.571 517.534 644.286C516.203 644.004 514.821 643.861 513.436 643.861C510.956 643.861 508.463 644.323 506.241 645.322C504.023 646.319 502.073 647.87 500.755 650.023C500.497 650.446 500.63 650.997 501.053 651.257C501.475 651.516 502.028 651.382 502.286 650.959C503.392 649.154 505.03 647.837 506.979 646.958C508.926 646.08 511.178 645.654 513.436 645.656C514.695 645.654 515.955 645.787 517.163 646.041C522.749 647.218 527.786 650.491 533.102 653.272C539.795 656.764 546.945 659.379 554.313 661.03C561.712 662.683 569.267 663.397 575.985 666.291C579.325 667.725 582.519 669.885 584.929 672.558C587.341 675.235 588.967 678.405 589.269 681.909C589.299 682.261 589.315 682.618 589.315 682.973C589.315 685.41 588.59 687.83 587.047 689.554C585.922 690.814 584.511 691.627 582.889 692.139C581.269 692.648 579.442 692.841 577.568 692.84C575.982 692.84 574.365 692.703 572.813 692.517C549.229 689.678 525.62 681.169 504.982 669.346C504.551 669.099 504.004 669.248 503.758 669.679C503.51 670.107 503.659 670.656 504.09 670.902Z" fill="#17282F"/>
<path d="M586.182 692.978C591.752 690.118 596.357 684.876 597.313 678.555C597.433 677.748 597.493 676.941 597.493 676.138C597.48 669.508 593.58 663.255 588.358 659.247C582.517 654.774 575.316 652.723 568.297 651.259C561.279 649.806 554.194 648.828 547.691 646.285C543.411 644.616 539.09 642.215 534.688 640.207C530.288 638.204 525.787 636.582 521.11 636.58C519.513 636.58 517.898 636.771 516.272 637.203C515.793 637.33 515.508 637.822 515.635 638.3C515.763 638.778 516.254 639.063 516.734 638.937C518.202 638.547 519.657 638.375 521.11 638.375C525.36 638.371 529.629 639.871 533.945 641.84C538.259 643.804 542.602 646.223 547.038 647.957C553.81 650.597 560.997 651.573 567.931 653.017C574.867 654.457 581.796 656.471 587.267 660.67C592.134 664.393 595.711 670.242 595.698 676.138C595.698 676.853 595.646 677.573 595.538 678.289C594.711 683.883 590.515 688.744 585.363 691.381C584.922 691.607 584.748 692.149 584.974 692.591C585.2 693.03 585.74 693.204 586.182 692.978Z" fill="#17282F"/>
<path d="M528.158 533.628C526.453 534.508 533.057 516.207 529.916 512.064C526.776 507.899 517.373 508.314 517.373 508.314L518.18 503.308C518.288 502.75 523.761 474.69 523.761 474.69L525.609 472.483C525.609 472.483 544.775 505.335 548.201 516.908C548.201 516.908 527.314 533.628 528.158 533.628ZM404.264 509.444C400.639 512.008 402.577 521.966 402.577 521.966L396.404 516.531L411.889 478.456L418.494 507.684C418.494 507.684 407.889 506.896 404.264 509.444ZM537.399 418.155L488.122 399.405L487.512 399.172C487.512 399.172 487.691 397.86 487.835 395.96C488.14 392.029 488.301 385.625 486.453 383.454C483.707 380.243 475.919 382.934 468.328 379.451C460.737 375.973 446.686 382.198 446.686 382.198C446.686 382.198 436.547 380.332 432.079 387.653C429.8 393.556 430.588 402.346 430.588 402.346C430.588 402.346 430.266 402.473 429.656 402.688C423.786 404.876 391.846 416.899 385.08 421.725C377.615 427.016 369.36 481.291 366.704 497.224C364.048 513.176 359.329 527.53 361.734 533.018C364.12 538.491 398.449 564.921 418.189 571.738C437.929 578.575 507.969 576.566 507.969 576.566C507.969 576.566 509.118 576.261 511.146 575.615C522.989 571.809 565.017 556.148 587.305 519.203C587.305 519.203 565.717 448.403 537.399 418.155Z" fill="#4058C7"/>
<path d="M444.359 299.402L418.925 326.402C418.925 326.402 415.419 329.5 416.813 337.332C418.207 345.164 421.454 351.892 423.905 352.412C426.356 352.935 429.795 352.94 429.795 352.94C429.795 352.94 435.245 364.749 439.105 369.391C439.105 369.391 440.451 387.619 439.733 392.68C439.733 392.68 448.87 400.661 457.477 401.674C466.084 402.69 479.381 389.504 479.381 389.504L482.677 373.365C482.677 373.365 490.478 361.523 491.011 358.371C491.542 355.219 495.11 356.028 496.863 354.472C498.616 352.917 502.672 345.962 503.341 339.39C504.013 332.82 504.059 325.271 496.424 327.487C489.807 325.711 493.949 311.727 493.949 311.727L482.324 301.471L444.359 299.402Z" fill="white"/>
<path d="M487.734 397.146C487.768 396.785 487.802 396.387 487.834 395.96C488.139 392.029 488.301 385.625 486.453 383.454C488.507 385.859 488.078 393.47 487.734 397.146Z" fill="#849193"/>
<path d="M464.326 425.331L458.799 408.34L455.767 425.331C449.665 422.674 431.056 406.546 431.056 406.546C431.056 406.546 430.428 405.037 429.656 402.688C430.266 402.473 430.588 402.346 430.588 402.346C430.588 402.346 430.457 400.874 430.457 398.73C430.457 395.635 430.731 391.141 432.079 387.653C432.093 387.628 432.108 387.604 432.124 387.579C432.127 387.574 432.131 387.567 432.134 387.561C432.143 387.545 432.154 387.529 432.165 387.513C434.11 384.427 437.078 383.013 439.824 382.405C439.977 386.594 440.018 390.672 439.732 392.68C439.732 392.68 448.87 400.661 457.477 401.675C457.794 401.712 458.121 401.73 458.451 401.73C467.051 401.73 479.381 389.504 479.381 389.504L480.983 381.655C483.402 381.822 485.34 382.153 486.453 383.454C488.301 385.625 488.14 392.029 487.835 395.96L486.812 402.346L482.586 408.091C475.72 415.939 464.326 425.331 464.326 425.331Z" fill="#ADE2C0"/>
<path d="M458.451 401.73C458.121 401.73 457.794 401.712 457.477 401.675C448.87 400.661 439.732 392.68 439.732 392.68C440.018 390.672 439.976 386.594 439.824 382.405C441.283 382.082 442.679 381.985 443.826 381.985C445.531 381.985 446.686 382.198 446.686 382.198C446.686 382.198 455.269 378.395 462.643 378.395C464.703 378.395 466.67 378.692 468.328 379.451C472.845 381.524 477.432 381.411 480.983 381.655L479.381 389.504C479.381 389.504 467.05 401.73 458.451 401.73Z" fill="white"/>
<path d="M511.146 575.615L499.912 563.952L503.627 519.851L512.711 442.186C513.664 434.03 509.506 426.148 502.265 422.272C491.848 416.696 479.526 412.251 479.526 412.251L482.586 408.091C484.418 405.997 485.927 404.012 486.812 402.346C487.297 401.431 487.727 400.446 488.122 399.405L537.4 418.154C565.717 448.403 587.305 519.203 587.305 519.203C565.017 556.148 522.99 571.809 511.146 575.615ZM527.871 533.196C527.871 533.496 527.926 533.659 528.05 533.659C528.083 533.659 528.117 533.65 528.158 533.628C528.14 533.628 528.133 533.623 528.133 533.611C528.122 532.983 548.201 516.908 548.201 516.908C544.775 505.335 525.61 472.483 525.61 472.483L523.761 474.69C523.761 474.69 523.038 478.402 522.11 483.155C521.996 483.74 521.879 484.339 521.76 484.949C520.185 493.025 518.243 502.978 518.18 503.308L517.373 508.314C517.373 508.314 517.631 508.301 518.076 508.301C520.318 508.301 527.297 508.59 529.917 512.064C530.537 512.882 530.776 514.251 530.776 515.916C530.774 521.692 527.873 531.019 527.871 533.196Z" fill="#5C79FF"/>
<path d="M487.512 399.172C487.514 399.163 487.619 398.373 487.734 397.146C487.619 398.377 487.514 399.163 487.512 399.172Z" fill="#5C79FF"/>
<path d="M482.586 408.091L486.812 402.345C485.927 404.012 484.418 405.997 482.586 408.091Z" fill="#86C7A0"/>
<path d="M486.812 402.345L487.835 395.96C487.803 396.387 487.768 396.785 487.734 397.146C487.62 398.373 487.514 399.163 487.512 399.172L488.122 399.405C487.727 400.445 487.297 401.43 486.812 402.345Z" fill="#86C7A0"/>
<path d="M409.145 544.303C409.145 544.303 387.036 526.667 377.92 526.667C368.822 526.667 370.437 523.742 377.92 512.064C385.403 500.363 393.488 461.004 393.488 461.004L391.009 428.055C398.03 436.665 407.449 464.877 411.794 478.695L409.978 483.155L409.249 484.949L396.404 516.531L402.577 521.965C402.577 521.965 402.06 519.309 402.06 516.386C402.058 513.651 402.511 510.684 404.264 509.444C406.503 507.87 411.404 507.569 414.826 507.569C416.944 507.569 418.494 507.684 418.494 507.684L412.336 480.432C413.493 484.149 414.17 486.458 414.17 486.458L421.832 512.064L407.44 529.591L409.145 544.303Z" fill="#5C79FF"/>
<path d="M412.335 480.432C412.165 479.883 411.984 479.301 411.793 478.695L411.889 478.456L412.335 480.432Z" fill="#C3C5C2"/>
<path d="M438.211 369.483C438.211 369.484 438.25 369.858 438.308 370.522C438.484 372.511 438.835 377.063 438.835 381.486C438.837 384.43 438.674 387.332 438.229 389.309C438.119 389.791 438.424 390.272 438.907 390.38C439.392 390.488 439.871 390.184 439.978 389.7C440.475 387.471 440.628 384.5 440.63 381.486C440.628 375.466 439.998 369.316 439.996 369.3C439.946 368.806 439.505 368.449 439.013 368.499C438.519 368.55 438.161 368.989 438.211 369.483Z" fill="#17282F"/>
<path d="M481.685 387.644V387.493C481.683 386.478 481.755 380.429 483.196 374.684C483.316 374.203 483.023 373.715 482.542 373.595C482.062 373.475 481.573 373.767 481.453 374.248C479.953 380.257 479.892 386.397 479.89 387.493V387.665C479.897 388.161 480.303 388.557 480.798 388.552C481.293 388.545 481.69 388.139 481.685 387.644Z" fill="#17282F"/>
<path d="M483.785 310.254C483.786 310.256 483.899 310.399 484.111 310.679C484.854 311.662 486.729 314.26 488.405 317.429C490.085 320.594 491.54 324.346 491.531 327.514C491.531 327.701 491.526 327.884 491.515 328.067C491.147 334.903 490.616 342.882 490.614 350.896C490.614 352.161 490.629 353.428 490.658 354.693L490.659 354.869C490.667 356.955 489.793 359.801 488.312 362.844C486.098 367.414 482.555 372.456 478.884 376.473C477.048 378.482 475.178 380.235 473.441 381.551C471.707 382.866 470.094 383.729 468.868 383.994C465.769 384.683 462.875 385.153 460.246 385.152C456.388 385.143 453.163 384.183 450.419 381.452C445.574 376.611 440.655 369.78 434.229 360.996C432.172 358.197 430.912 354.095 430.207 349.917C429.497 345.738 429.323 341.487 429.324 338.366C429.324 336.909 429.362 335.698 429.398 334.852C429.436 334.007 429.473 333.539 429.473 333.537C429.511 333.044 429.141 332.613 428.648 332.574C428.154 332.536 427.722 332.904 427.684 333.399C427.682 333.417 427.53 335.391 427.53 338.366C427.53 341.554 427.704 345.89 428.438 350.216C429.177 354.544 430.457 358.868 432.781 362.056C439.207 370.832 444.143 377.711 449.15 382.72C452.26 385.842 456.099 386.956 460.246 386.946C463.086 386.946 466.098 386.447 469.258 385.745C471.447 385.247 473.866 383.659 476.4 381.445C480.187 378.116 484.16 373.335 487.219 368.471C490.268 363.594 492.434 358.694 492.454 354.869L492.452 354.65C492.423 353.403 492.409 352.149 492.409 350.896C492.409 342.959 492.938 335.014 493.308 328.164C493.319 327.948 493.326 327.731 493.326 327.514C493.312 323.294 491.252 318.762 489.236 315.218C487.216 311.682 485.208 309.161 485.19 309.138C484.881 308.75 484.316 308.686 483.928 308.994C483.54 309.303 483.476 309.866 483.785 310.254Z" fill="#17282F"/>
<path d="M463.494 340.657C463.043 343.205 462.815 345.794 462.815 348.381C462.814 348.776 462.819 349.172 462.83 349.567C462.905 352.072 463.239 354.955 465.229 357.009C465.758 357.546 466.327 357.971 466.738 358.382C467.156 358.798 467.373 359.141 467.42 359.502V359.503L467.431 359.651C467.431 359.936 467.316 360.255 467.076 360.585C466.839 360.914 466.485 361.231 466.11 361.47H466.112C465.254 362.033 464.063 362.426 462.993 363.338C462.62 363.662 462.58 364.229 462.905 364.603C463.23 364.976 463.797 365.017 464.17 364.69C464.868 364.068 465.961 363.679 467.077 362.981H467.079C467.612 362.636 468.125 362.193 468.527 361.642C468.927 361.093 469.224 360.417 469.225 359.651L469.198 359.263L469.2 359.265C469.071 358.319 468.531 357.632 468.001 357.108C467.467 356.581 466.901 356.157 466.508 355.753C465.071 354.315 464.678 351.91 464.624 349.519C464.613 349.14 464.608 348.76 464.608 348.381C464.608 345.9 464.827 343.415 465.261 340.971C465.347 340.483 465.023 340.016 464.534 339.93C464.046 339.844 463.58 340.169 463.494 340.657Z" fill="#17282F"/>
<path d="M450.225 365.169C450.241 365.261 450.512 366.956 451.919 368.844C453.321 370.733 455.901 372.77 460.289 373.446C460.779 373.522 461.238 373.188 461.313 372.698C461.391 372.208 461.055 371.749 460.565 371.673C456.603 371.047 454.525 369.319 453.356 367.771C452.775 366.994 452.432 366.253 452.235 365.717C452.138 365.449 452.075 365.23 452.041 365.087L452.005 364.927L451.998 364.895L451.987 364.897L451.998 364.895L451.987 364.897L451.998 364.895C451.923 364.405 451.463 364.07 450.973 364.145C450.483 364.222 450.15 364.68 450.225 365.169Z" fill="#17282F"/>
<path d="M451.98 345.56C451.98 347.36 451.203 348.817 450.243 348.817C449.283 348.817 448.506 347.36 448.506 345.56C448.506 343.761 449.283 342.302 450.243 342.302C451.203 342.302 451.98 343.761 451.98 345.56Z" fill="#17282F"/>
<path d="M476.884 346.343C476.884 348.142 476.107 349.601 475.147 349.601C474.187 349.601 473.41 348.142 473.41 346.343C473.41 344.543 474.187 343.086 475.147 343.086C476.107 343.086 476.884 344.543 476.884 346.343Z" fill="#17282F"/>
<path d="M473.131 339.726L472.82 339.415L473.127 339.729L473.131 339.726L472.82 339.415L473.127 339.729C473.157 339.697 473.931 338.951 475.106 338.249C476.282 337.54 477.834 336.907 479.401 336.914C480.309 336.916 481.235 337.106 482.225 337.628C483.214 338.152 484.282 339.028 485.382 340.476C485.981 341.265 487.106 341.42 487.896 340.82C488.685 340.221 488.84 339.096 488.24 338.307C486.887 336.52 485.421 335.26 483.905 334.458C482.39 333.652 480.836 333.324 479.401 333.326C476.816 333.333 474.649 334.325 473.116 335.26C471.582 336.202 470.659 337.122 470.591 337.189C469.891 337.889 469.891 339.024 470.591 339.726C471.293 340.427 472.429 340.427 473.131 339.726Z" fill="#17282F"/>
<path d="M456.07 337.418C455.984 337.323 455.295 336.564 454.026 335.796C452.761 335.03 450.884 334.257 448.526 334.257C446.168 334.252 443.397 335.048 440.454 337.149C439.646 337.725 439.458 338.845 440.032 339.652C440.606 340.46 441.726 340.648 442.534 340.074C444.99 338.335 446.961 337.851 448.526 337.845C450.089 337.847 451.314 338.353 452.172 338.868C452.597 339.125 452.924 339.381 453.132 339.564L453.356 339.772L453.398 339.814L453.401 339.817L454.185 339.098L453.391 339.807L453.401 339.817L454.185 339.098L453.391 339.807C454.051 340.546 455.185 340.61 455.924 339.952C456.664 339.292 456.728 338.158 456.07 337.418Z" fill="#17282F"/>
<path d="M439.733 376.979C439.733 376.979 444.693 390.647 455.77 394.524C466.848 398.4 481.556 378.281 481.556 378.281L480.786 375.664C480.786 375.664 471.149 388.186 460.427 386.049C449.707 383.915 439.104 369.391 439.104 369.391L439.733 376.979Z" fill="#17282F"/>
<path d="M429.497 351.567L429.448 351.582C429.193 351.668 427.926 352.047 426.546 352.043C425.674 352.045 424.773 351.894 424.036 351.494C423.3 351.087 422.686 350.466 422.284 349.31C421.647 347.448 420.501 344.599 419.514 341.484C418.523 338.375 417.706 335.001 417.71 332.233C417.708 331.09 417.846 330.057 418.143 329.19C418.439 328.322 418.878 327.624 419.51 327.082C420.326 326.389 420.999 326.172 421.613 326.169C422.322 326.167 423.052 326.492 423.779 327.076C424.867 327.948 425.854 329.368 426.532 330.563C426.873 331.158 427.142 331.698 427.323 332.086C427.413 332.28 427.483 332.436 427.528 332.542L427.594 332.696C427.779 333.155 428.303 333.378 428.763 333.193C429.222 333.006 429.443 332.484 429.258 332.025C429.242 331.991 428.511 330.175 427.241 328.311C426.604 327.378 425.83 326.429 424.906 325.681C423.986 324.938 422.878 324.376 421.613 324.374C420.524 324.371 419.393 324.812 418.342 325.72C417.434 326.497 416.818 327.502 416.443 328.614C416.064 329.727 415.916 330.95 415.916 332.233C415.919 335.339 416.791 338.83 417.802 342.026C418.814 345.214 419.98 348.11 420.587 349.89C421.103 351.433 422.078 352.483 423.183 353.071C424.287 353.665 425.48 353.835 426.546 353.837C428.477 353.834 430.038 353.276 430.094 353.259C430.561 353.094 430.805 352.581 430.641 352.115C430.476 351.646 429.963 351.402 429.497 351.567Z" fill="#17282F"/>
<path d="M491.366 356.098C491.408 356.105 492.106 356.245 493.122 356.245C494.179 356.243 495.587 356.098 496.955 355.44C498.32 354.788 499.625 353.561 500.285 351.598C500.892 349.82 502.057 346.922 503.069 343.734C504.079 340.539 504.953 337.047 504.956 333.939C504.956 332.657 504.806 331.435 504.429 330.32C504.052 329.21 503.437 328.203 502.53 327.428C501.479 326.52 500.348 326.079 499.259 326.083C497.994 326.084 496.885 326.646 495.964 327.389C494.581 328.512 493.527 330.082 492.781 331.381C492.039 332.678 491.623 333.706 491.614 333.731C491.428 334.191 491.65 334.715 492.109 334.899C492.569 335.086 493.091 334.863 493.278 334.404L493.305 334.338C493.454 333.984 494.207 332.276 495.332 330.715C495.892 329.935 496.547 329.196 497.227 328.679C497.913 328.158 498.593 327.875 499.259 327.877C499.873 327.88 500.546 328.097 501.362 328.79C501.992 329.332 502.433 330.03 502.729 330.898C503.024 331.765 503.162 332.798 503.162 333.939C503.166 336.71 502.347 340.081 501.358 343.192C500.37 346.307 499.223 349.158 498.586 351.019C498.062 352.531 497.181 353.326 496.172 353.825C495.164 354.316 494.008 354.453 493.122 354.451C492.696 354.451 492.336 354.422 492.086 354.392L491.803 354.352L491.733 354.341L491.72 354.338C491.234 354.241 490.762 354.555 490.663 355.041C490.566 355.527 490.88 355.999 491.366 356.098Z" fill="#17282F"/>
<path d="M428.425 345.561C430.256 345.478 433.258 343.695 434.221 342.137C435.183 340.58 435.593 338.75 435.905 336.947C436.502 333.491 436.811 329.987 436.822 326.481C436.827 325.11 436.791 323.712 437.191 322.403C437.608 321.037 438.473 319.857 439.399 318.773C441.703 316.073 444.479 313.79 446.668 310.997C448.859 308.203 450.471 304.669 449.877 301.168C449.877 301.168 464.852 314.854 486.439 310.622C498.06 308.343 509.213 298.147 507.856 285.331C507.373 280.77 504.019 277.492 499.668 276.408C493.922 274.98 488.761 278.041 483.557 280.005C474.069 283.581 464.784 277.44 455.198 276.408C446.999 275.527 436.937 276.542 432.667 284.694C432.667 284.694 417.942 286.421 411.49 298.516C405.039 310.607 417.301 327.349 417.301 327.349C417.301 327.349 422.236 321.376 428.578 333.469L428.425 345.561Z" fill="#17282F"/>
<path d="M485.414 306.603C485.414 306.603 481.606 326.445 491.542 336.053C491.542 336.053 493.717 330.087 495.922 328.632C495.922 328.632 501.453 318.15 494.182 306.603C486.91 295.057 485.414 306.603 485.414 306.603Z" fill="#17282F"/>
<path d="M426.753 315.68C426.733 315.68 426.711 315.68 426.692 315.678C426.196 315.644 425.823 315.217 425.857 314.722C426.257 308.899 429.421 303.504 433.854 299.553C438.291 295.604 444.025 293.065 449.723 293.06C450.266 293.06 450.81 293.083 451.352 293.132C461.123 294.007 470.526 297.275 479.818 297.275C479.835 297.275 479.853 297.275 479.869 297.275C483.896 297.273 487.897 296.674 491.94 295.028C496.983 292.978 501.385 288.906 502.751 283.791C502.858 283.391 503.221 283.127 503.617 283.127C503.693 283.127 503.772 283.136 503.851 283.158C504.328 283.287 504.612 283.779 504.484 284.258C502.907 290.078 498.062 294.467 492.617 296.69C488.332 298.436 484.079 299.069 479.876 299.069C479.874 299.069 479.871 299.069 479.869 299.069C470.148 299.056 460.687 295.746 451.194 294.919C450.706 294.876 450.216 294.854 449.723 294.854C449.717 294.854 449.712 294.854 449.706 294.854C444.558 294.854 439.19 297.199 435.047 300.894C430.894 304.59 427.998 309.608 427.648 314.844C427.616 315.317 427.221 315.68 426.753 315.68Z" fill="#405158"/>
<path d="M418.186 312.624C418.179 312.624 418.172 312.624 418.164 312.624C417.669 312.611 417.276 312.202 417.287 311.705C417.517 302.205 423.735 293.198 432.542 289.619C432.653 289.574 432.766 289.552 432.879 289.552C433.233 289.552 433.569 289.764 433.71 290.112C433.897 290.571 433.676 291.095 433.217 291.28C425.106 294.553 419.27 303.005 419.081 311.747C419.071 312.236 418.67 312.624 418.186 312.624Z" fill="#405158"/>
<path d="M435.259 388.257C435.311 388.302 444.443 398.4 457.087 403.189C457.271 403.257 457.466 403.266 457.655 403.21C457.69 403.2 461.866 401.989 467.121 399.315C472.371 396.64 478.713 392.51 483.049 386.578C483.341 386.178 483.253 385.616 482.853 385.324C482.453 385.033 481.891 385.119 481.601 385.52C477.532 391.1 471.413 395.12 466.306 397.717C463.752 399.016 461.455 399.963 459.803 400.582C458.975 400.891 458.308 401.118 457.852 401.269C457.622 401.344 457.446 401.4 457.328 401.436L457.156 401.488L457.405 402.349L457.723 401.51C451.655 399.22 446.353 395.598 442.581 392.549C440.695 391.024 439.191 389.644 438.161 388.647C437.646 388.15 437.249 387.748 436.983 387.472L436.684 387.156L436.587 387.052C436.255 386.684 435.688 386.657 435.32 386.991C434.954 387.323 434.925 387.89 435.259 388.257Z" fill="#17282F"/>
<path d="M461.303 345.56H460.406C460.404 349.35 458.871 352.773 456.388 355.256C453.902 357.741 450.478 359.274 446.688 359.274C442.898 359.274 439.474 357.741 436.989 355.256C434.505 352.773 432.973 349.35 432.973 345.56C432.973 341.771 434.505 338.348 436.989 335.863C439.474 333.38 442.898 331.847 446.688 331.847C450.478 331.847 453.902 333.38 456.388 335.863C458.871 338.348 460.404 341.771 460.406 345.56H461.303H462.2C462.198 336.995 455.254 330.053 446.688 330.053C438.121 330.053 431.178 336.995 431.178 345.56C431.178 354.124 438.121 361.068 446.688 361.068C455.255 361.068 462.198 354.124 462.2 345.56H461.303Z" fill="#17282F"/>
<path d="M493.949 345.56H493.051C493.051 349.35 491.517 352.773 489.035 355.256C486.55 357.741 483.126 359.274 479.336 359.274C475.546 359.274 472.122 357.741 469.638 355.256C467.155 352.773 465.62 349.35 465.62 345.56C465.62 341.771 467.155 338.348 469.636 335.863C472.122 333.38 475.546 331.847 479.336 331.847C483.128 331.847 486.55 333.38 489.035 335.863C491.517 338.348 493.051 341.771 493.051 345.56H493.949H494.846C494.846 336.995 487.903 330.053 479.336 330.053C470.769 330.053 463.826 336.995 463.826 345.56C463.826 354.124 470.769 361.068 479.336 361.068C487.903 361.068 494.846 354.124 494.846 345.56H493.949Z" fill="#17282F"/>
<path d="M438.925 381.326C438.862 381.339 437.669 381.585 436.124 382.439C434.584 383.289 432.685 384.762 431.295 387.211C430.609 388.431 430.238 390.043 429.999 391.858C429.766 393.671 429.685 395.678 429.685 397.62C429.685 402.308 430.155 406.616 430.157 406.634C430.18 406.84 430.27 407.029 430.419 407.176C430.457 407.201 443.788 420.435 455.375 426.128C455.629 426.252 455.925 426.25 456.176 426.123C456.427 425.995 456.603 425.757 456.653 425.478L459.313 410.522L463.463 425.561C463.541 425.841 463.752 426.069 464.027 426.167C464.301 426.264 464.61 426.223 464.847 426.054C464.863 426.042 469.287 422.916 474.336 418.454C479.386 413.981 485.066 408.222 487.625 402.726L487.7 402.464C487.702 402.444 488.414 396.977 488.414 392.067C488.407 389.598 488.258 387.305 487.646 385.72C486.842 383.664 485.479 382.507 484.26 381.933C483.04 381.353 481.981 381.308 481.631 381.307L481.509 381.308C481.014 381.334 480.633 381.755 480.659 382.25C480.685 382.746 481.107 383.126 481.601 383.101L481.595 382.979L481.599 383.101H481.601L481.595 382.979L481.599 383.101H481.631C481.809 383.099 482.613 383.131 483.487 383.553C484.362 383.978 485.324 384.744 485.976 386.379C486.424 387.481 486.629 389.704 486.62 392.067C486.62 394.439 486.446 396.988 486.27 398.938C486.184 399.914 486.096 400.74 486.03 401.321C485.965 401.902 485.922 402.233 485.922 402.234L486.812 402.349L485.997 401.972C483.68 407.002 478.119 412.727 473.147 417.11C470.661 419.306 468.323 421.18 466.607 422.502C465.751 423.164 465.05 423.686 464.563 424.045C464.077 424.402 463.812 424.589 463.81 424.59L464.328 425.322L465.193 425.084L459.989 406.225C459.878 405.821 459.501 405.548 459.081 405.568C458.663 405.588 458.313 405.893 458.241 406.307L454.886 425.164L455.77 425.322L456.165 424.517C450.6 421.793 444.45 417.13 439.724 413.154C437.358 411.166 435.343 409.348 433.924 408.032C433.213 407.373 432.651 406.838 432.267 406.469C431.883 406.101 431.681 405.9 431.681 405.9L431.049 406.537L431.941 406.44C431.941 406.44 431.914 406.182 431.869 405.713C431.74 404.307 431.48 401.048 431.48 397.62C431.48 395.729 431.559 393.784 431.779 392.088C431.993 390.393 432.368 388.939 432.854 388.098C434.049 385.995 435.666 384.744 436.994 384.009C437.656 383.641 438.243 383.406 438.658 383.266C438.866 383.196 439.029 383.148 439.137 383.121L439.255 383.09L439.282 383.085C439.767 382.986 440.081 382.512 439.984 382.028C439.885 381.542 439.411 381.228 438.925 381.326Z" fill="#17282F"/>
<path d="M419.072 508.186C419.07 508.176 417.766 499.423 415.589 488.873C413.407 478.314 410.379 465.995 406.832 458.698C406.616 458.253 406.078 458.069 405.633 458.286C405.188 458.503 405.003 459.039 405.218 459.484C408.619 466.453 411.671 478.747 413.832 489.236C414.914 494.484 415.781 499.291 416.377 502.784C416.674 504.53 416.904 505.949 417.06 506.929C417.216 507.91 417.297 508.45 417.297 508.45C417.369 508.942 417.827 509.279 418.316 509.206C418.806 509.134 419.146 508.676 419.072 508.186Z" fill="#17282F"/>
<path d="M390.279 428.577C390.279 428.579 390.685 429.144 391.365 430.143C393.403 433.136 397.886 439.972 401.001 446.514C401.215 446.961 401.75 447.151 402.197 446.937C402.645 446.724 402.834 446.189 402.622 445.742C398.367 436.816 391.754 427.558 391.74 427.535C391.451 427.131 390.891 427.038 390.487 427.325C390.085 427.614 389.99 428.173 390.279 428.577Z" fill="#17282F"/>
<path d="M529.026 454.387C530.853 447.449 532.804 441.366 534.706 437.485C534.923 437.04 534.74 436.504 534.295 436.285C533.85 436.068 533.311 436.253 533.094 436.698C531.092 440.792 529.137 446.932 527.291 453.929C527.165 454.408 527.451 454.898 527.93 455.026C528.409 455.151 528.901 454.866 529.026 454.387Z" fill="#17282F"/>
<path d="M518.257 508.457C518.257 508.454 518.492 506.965 518.914 504.411C520.181 496.754 523.138 479.576 526.492 464.793C526.602 464.311 526.298 463.83 525.816 463.72C525.333 463.611 524.852 463.914 524.743 464.397C520.253 484.194 516.486 508.17 516.484 508.179C516.407 508.669 516.741 509.128 517.231 509.206C517.721 509.283 518.18 508.947 518.257 508.457Z" fill="#17282F"/>
<path d="M524.474 475.22C527.937 470.594 532.978 467.149 538.543 465.601C539.02 465.468 539.3 464.975 539.167 464.497C539.033 464.02 538.539 463.74 538.062 463.873C532.106 465.533 526.747 469.196 523.036 474.145C522.74 474.541 522.821 475.103 523.218 475.401C523.614 475.697 524.176 475.616 524.474 475.22Z" fill="#17282F"/>
<path d="M487.185 400.002C487.19 400.004 517.509 412.113 537.111 419.001L537.408 418.156L536.793 418.809L536.85 418.865C538.164 420.146 561.471 443.63 586.446 519.486L587.298 519.206L586.526 518.749C586.526 518.749 586.44 518.892 586.261 519.181C583.556 523.523 560.204 559.053 518.401 570.882C517.925 571.018 517.647 571.513 517.783 571.991C517.918 572.466 518.413 572.744 518.891 572.607C564.278 559.716 588.009 519.739 588.068 519.666C588.201 519.441 588.231 519.172 588.15 518.926C562.3 440.408 538.155 417.627 538.022 417.503L537.706 417.309C527.939 413.877 515.47 409.133 505.448 405.247C500.438 403.304 496.037 401.576 492.89 400.334C489.742 399.093 487.854 398.339 487.851 398.335C487.39 398.152 486.867 398.377 486.684 398.836C486.5 399.297 486.724 399.819 487.185 400.002Z" fill="#17282F"/>
<path d="M527.036 535.742L548.773 517.595L548.199 516.906L548.741 517.62L548.8 517.577C549.453 517.089 555.431 512.937 562.785 512.952C565.471 512.954 568.341 513.492 571.257 514.949C571.7 515.169 572.238 514.99 572.461 514.547C572.682 514.104 572.502 513.565 572.059 513.345C568.879 511.753 565.712 511.158 562.785 511.158C554.225 511.175 547.732 516.147 547.655 516.192L547.623 516.217L525.886 534.364C525.505 534.681 525.453 535.248 525.771 535.629C526.089 536.01 526.656 536.059 527.036 535.742Z" fill="#17282F"/>
<path d="M524.875 472.993C524.875 472.993 525.152 473.4 525.651 474.155C527.393 476.798 531.825 483.67 536.317 491.823C540.809 499.972 545.356 509.422 547.328 517.129C547.452 517.609 547.94 517.898 548.421 517.775C548.9 517.653 549.189 517.163 549.067 516.684C546.722 507.555 541.049 496.425 535.962 487.526C530.874 478.632 526.368 471.997 526.359 471.984C526.081 471.575 525.523 471.468 525.114 471.746C524.703 472.024 524.597 472.582 524.875 472.993Z" fill="#17282F"/>
<path d="M403.39 522.321L397.03 516.257C396.899 516.133 396.741 516.054 396.565 516.022C396.522 516.014 395.532 515.844 393.85 515.844C390.202 515.844 383.273 516.65 375.774 521.679C375.363 521.955 375.254 522.511 375.53 522.924C375.805 523.335 376.363 523.444 376.774 523.168C383.916 518.381 390.459 517.64 393.85 517.638C394.631 517.638 395.243 517.678 395.654 517.717C395.86 517.737 396.016 517.755 396.117 517.769L396.228 517.785L396.255 517.789L396.411 516.906L395.792 517.556L402.152 523.62C402.511 523.961 403.08 523.948 403.421 523.589C403.763 523.231 403.749 522.662 403.39 522.321Z" fill="#17282F"/>
<path d="M397.269 517.168C397.271 517.163 397.759 515.555 398.62 512.921C401.195 505.023 407.112 487.919 412.881 478.011C413.131 477.582 412.985 477.033 412.556 476.784C412.127 476.535 411.578 476.68 411.329 477.109C407.379 483.905 403.453 493.764 400.492 501.951C397.534 510.137 395.555 516.635 395.551 516.644C395.408 517.118 395.675 517.62 396.149 517.764C396.623 517.909 397.123 517.642 397.269 517.168Z" fill="#17282F"/>
<path d="M430.267 401.509C430.261 401.511 419.352 405.604 407.9 410.296C402.172 412.643 396.309 415.138 391.597 417.354C389.239 418.461 387.168 419.498 385.535 420.42C383.896 421.352 382.717 422.12 382.023 422.879C381.59 423.379 381.296 424.048 380.916 425.028C379.546 428.652 377.666 436.333 375.564 446.08C372.418 460.684 368.815 479.841 365.96 496.276C364.532 504.494 363.29 512.03 362.387 517.976C361.483 523.932 360.917 528.26 360.837 530.198L360.833 530.393C360.838 531.845 361.452 533.334 362.453 534.906C364.216 537.651 367.241 540.698 371.033 543.906C382.401 553.51 400.686 564.478 411.686 570.293C412.124 570.524 412.668 570.357 412.899 569.92C413.131 569.482 412.962 568.938 412.524 568.707C404.217 564.318 391.641 556.912 381.181 549.45C375.952 545.721 371.248 541.973 367.889 538.613C366.209 536.933 364.867 535.349 363.966 533.939C363.058 532.53 362.62 531.301 362.628 530.393L362.629 530.271C362.728 527.776 363.823 520.053 365.472 509.95C367.945 494.773 371.668 474.089 375.171 456.766C376.923 448.105 378.62 440.282 380.076 434.417C380.802 431.485 381.47 429.042 382.048 427.24C382.337 426.341 382.604 425.602 382.837 425.053C383.065 424.509 383.288 424.143 383.358 424.077C383.733 423.645 384.853 422.857 386.418 421.981C391.929 418.87 403.087 414.15 412.819 410.236C417.687 408.277 422.209 406.515 425.511 405.243C428.815 403.971 430.891 403.191 430.897 403.189C431.361 403.015 431.596 402.498 431.422 402.035C431.248 401.57 430.73 401.335 430.267 401.509Z" fill="#17282F"/>
<path d="M588.486 387.655H538.785C532.916 387.655 528.159 382.898 528.159 377.031V347.88C528.159 342.012 532.916 337.255 538.785 337.255H588.486C594.354 337.255 599.111 342.012 599.111 347.88V377.031C599.111 382.898 594.354 387.655 588.486 387.655Z" fill="white"/>
<path d="M588.486 387.655V386.758H538.785C536.097 386.758 533.669 385.67 531.906 383.908C530.144 382.146 529.057 379.721 529.057 377.031V347.88C529.057 345.191 530.144 342.765 531.906 341.001C533.669 339.24 536.097 338.154 538.785 338.152H588.486C591.174 338.154 593.602 339.24 595.364 341.001C597.127 342.765 598.212 345.191 598.214 347.88V377.031C598.212 379.721 597.127 382.146 595.364 383.908C593.602 385.67 591.176 386.758 588.486 386.758V387.655V388.552C594.849 388.552 600.007 383.395 600.009 377.031V347.88C600.007 341.516 594.851 336.36 588.486 336.358H538.785C532.421 336.36 527.262 341.516 527.262 347.88V377.031C527.262 383.395 532.421 388.55 538.785 388.552H588.486V387.655Z" fill="#17282F"/>
<path d="M550.573 351.654L536.931 360.217C536.692 360.368 536.536 360.623 536.515 360.903C536.491 361.184 536.603 361.461 536.813 361.649L549.473 372.876C549.843 373.206 550.41 373.172 550.74 372.8C551.068 372.431 551.034 371.864 550.663 371.533L538.9 361.1L551.528 353.173C551.948 352.91 552.075 352.355 551.811 351.935C551.547 351.515 550.993 351.39 550.573 351.654Z" fill="#17282F"/>
<path d="M576.495 373.703L588.755 363.257C588.971 363.074 589.087 362.799 589.069 362.518C589.051 362.236 588.901 361.977 588.665 361.823L574.512 352.545C574.098 352.274 573.541 352.389 573.27 352.804C572.999 353.218 573.114 353.774 573.529 354.047L586.681 362.668L575.332 372.337C574.954 372.658 574.909 373.225 575.23 373.602C575.551 373.979 576.118 374.024 576.495 373.703Z" fill="#17282F"/>
<path d="M558.539 379.721L568.61 348.146C568.761 347.674 568.5 347.168 568.028 347.019C567.556 346.868 567.052 347.129 566.901 347.6L556.829 379.177C556.678 379.649 556.94 380.153 557.412 380.304C557.884 380.454 558.388 380.194 558.539 379.721Z" fill="#17282F"/>
<path d="M463.198 433.269C463.198 434.851 461.913 436.136 460.33 436.136C458.745 436.136 457.46 434.851 457.46 433.269C457.46 431.685 458.745 430.4 460.33 430.4C461.913 430.4 463.198 431.685 463.198 433.269Z" fill="#17282F"/>
<path d="M513.667 586.518H414.405C413.12 586.518 412.077 585.477 412.077 584.191C412.077 582.907 413.12 581.864 414.405 581.864H513.667C514.954 581.864 515.994 582.907 515.994 584.191C515.994 585.477 514.954 586.518 513.667 586.518Z" fill="#17282F"/>
<path d="M517.143 578.805L530.444 516.348C531.325 512.214 528.17 508.319 523.942 508.319H407.966C403.779 508.319 400.633 512.144 401.444 516.253L413.371 576.63C413.976 579.687 416.623 581.914 419.741 581.986L510.489 584.066C513.681 584.139 516.477 581.929 517.143 578.805Z" fill="white"/>
<path d="M517.143 578.805L518.02 578.991L531.321 516.535C531.434 516.004 531.49 515.473 531.49 514.95C531.49 510.887 528.195 507.426 523.942 507.422H407.966C403.72 507.426 400.42 510.881 400.42 514.95C400.42 515.437 400.467 515.93 400.565 516.425L412.49 576.804C413.177 580.274 416.181 582.802 419.72 582.883L510.467 584.961L510.643 584.964C514.195 584.963 517.276 582.48 518.02 578.991L517.143 578.805L516.265 578.618C515.698 581.276 513.347 583.17 510.643 583.17L510.509 583.169L419.761 581.089C417.064 581.028 414.774 579.101 414.25 576.457L402.326 516.079C402.25 515.697 402.214 515.32 402.214 514.95C402.214 513.406 402.843 511.972 403.878 510.922C404.915 509.873 406.344 509.216 407.966 509.216H523.942C525.568 509.216 526.997 509.875 528.034 510.924C529.069 511.974 529.696 513.407 529.696 514.95C529.696 515.347 529.654 515.753 529.566 516.162L516.265 578.618L517.143 578.805Z" fill="#17282F"/>
<path d="M474.819 544.311C474.819 549.425 470.672 553.568 465.559 553.568C460.445 553.568 456.301 549.425 456.301 544.311C456.301 539.199 460.445 535.053 465.559 535.053C470.672 535.053 474.819 539.199 474.819 544.311Z" fill="#17282F"/>
<path d="M493.017 515.141H506.796C507.291 515.141 507.693 514.741 507.693 514.244C507.693 513.748 507.291 513.346 506.796 513.346H493.017C492.52 513.346 492.12 513.748 492.12 514.244C492.12 514.741 492.52 515.141 493.017 515.141Z" fill="#17282F"/>
<path d="M427.214 515.141H479.519C480.014 515.141 480.416 514.741 480.416 514.244C480.416 513.748 480.014 513.346 479.519 513.346H427.214C426.717 513.346 426.316 513.748 426.316 514.244C426.316 514.741 426.717 515.141 427.214 515.141Z" fill="#17282F"/>
<path d="M517.371 645.065L506.796 672.807C506.796 672.807 479.837 666.014 445.292 658.936C409.17 651.535 371.442 641.954 351.873 607.627C349.488 603.443 347.9 598.498 349.016 593.812C351.842 581.955 367.268 578.738 377.437 577.55C383.819 576.806 390.261 576.559 396.684 576.469C399.957 576.422 410.758 574.708 413.371 576.63C413.373 576.63 420.149 581.616 425.924 584.067C431.698 586.518 515.994 581.864 515.994 581.864C515.994 581.864 518.501 576.575 518.647 571.745C531.897 565.011 562.58 559.309 575.546 561.828C595.933 565.791 607.826 577.682 605.561 590.139C603.296 602.596 558.302 636.004 517.371 645.065Z" fill="#17282F"/>
<path d="M517.6 644.197C517.599 644.197 517.211 644.095 516.475 643.883C511.329 642.407 489.464 635.662 471.277 623.371C461.784 616.961 453.19 610.039 443.833 604.69C434.48 599.343 424.336 595.583 411.862 595.586C409.387 595.586 406.821 595.733 404.154 596.044C403.661 596.101 403.309 596.546 403.366 597.038C403.424 597.531 403.869 597.883 404.361 597.825C406.963 597.523 409.459 597.38 411.862 597.38C423.968 597.382 433.748 601 442.941 606.248C452.131 611.496 460.702 618.389 470.272 624.857C491.393 639.12 517.093 645.914 517.141 645.932C517.62 646.06 518.11 645.774 518.238 645.295C518.365 644.816 518.08 644.324 517.6 644.197Z" fill="white"/>
<path d="M466.203 621.636C479.678 617.752 489.486 609.084 500.075 600.895C511.303 592.202 523.154 583.804 535.869 577.375C536.312 577.15 536.49 576.611 536.265 576.169C536.041 575.728 535.503 575.55 535.059 575.775C522.185 582.286 510.245 590.753 498.975 599.478C488.325 607.729 478.7 616.178 465.706 619.912C465.231 620.048 464.956 620.546 465.093 621.022C465.229 621.498 465.726 621.773 466.203 621.636Z" fill="white"/>
<path d="M461.303 348.77H465.186C465.681 348.77 466.083 348.368 466.083 347.873C466.083 347.378 465.681 346.976 465.186 346.976H461.303C460.807 346.976 460.405 347.378 460.405 347.873C460.405 348.368 460.807 348.77 461.303 348.77Z" fill="#17282F"/>
</svg>
