<svg width="1920" height="1019" viewBox="0 0 1920 1019" fill="none" xmlns="http://www.w3.org/2000/svg">
<g clip-path="url(#clip0_108_2113)">
<rect width="1920" height="1019" fill="white"/>
<path opacity="0.04" d="M114.9 373L187.2 154H266.7L341.7 373H290.7L230.1 187.9L245.7 194.2H207L223.2 187.9L164.1 373H114.9ZM169.8 318.7L184.8 277.9H270.6L285.9 318.7H169.8ZM418.268 374.5V336.1H469.568C478.768 336.1 485.668 333.7 490.268 328.9C494.868 324.1 497.168 317.3 497.168 308.5C497.168 299.7 494.868 293 490.268 288.4C485.668 283.6 478.768 281.2 469.568 281.2H418.268V251.5H467.168C482.368 251.5 495.868 253.4 507.668 257.2C519.468 260.8 528.768 266.7 535.568 274.9C542.368 283.1 545.768 294.2 545.768 308.2V312.4C545.768 325.4 542.768 336.6 536.768 346C530.768 355.2 521.968 362.3 510.368 367.3C498.768 372.1 484.368 374.5 467.168 374.5H418.268ZM376.268 374.5V152.2H424.268V374.5H376.268ZM418.268 273.4V244H461.468C470.868 244 477.668 241.6 481.868 236.8C486.068 232 488.168 225.6 488.168 217.6C488.168 209.2 486.068 202.6 481.868 197.8C477.668 193 470.868 190.6 461.468 190.6H418.268V152.2H458.468C483.668 152.2 502.968 157.5 516.368 168.1C529.968 178.7 536.768 193.8 536.768 213.4V217.9C536.768 231.5 533.268 242.4 526.268 250.6C519.468 258.8 510.168 264.7 498.368 268.3C486.768 271.7 473.468 273.4 458.468 273.4H418.268ZM693.811 378.7C674.011 378.7 656.711 375.3 641.911 368.5C627.311 361.5 615.211 352.4 605.611 341.2C596.011 329.8 588.811 317.5 584.011 304.3C579.411 291.1 577.111 278.4 577.111 266.2V259.6C577.111 246 579.511 232.6 584.311 219.4C589.311 206 596.711 193.9 606.511 183.1C616.311 172.3 628.511 163.7 643.111 157.3C657.711 150.7 674.611 147.4 693.811 147.4C713.011 147.4 729.911 150.7 744.511 157.3C759.111 163.7 771.311 172.3 781.111 183.1C790.911 193.9 798.311 206 803.311 219.4C808.311 232.6 810.811 246 810.811 259.6V266.2C810.811 278.4 808.411 291.1 803.611 304.3C798.811 317.5 791.611 329.8 782.011 341.2C772.411 352.4 760.211 361.5 745.411 368.5C730.811 375.3 713.611 378.7 693.811 378.7ZM693.811 332.8C704.211 332.8 713.511 331 721.711 327.4C730.111 323.8 737.211 318.8 743.011 312.4C749.011 306 753.511 298.6 756.511 290.2C759.511 281.8 761.011 272.8 761.011 263.2C761.011 253 759.411 243.7 756.211 235.3C753.211 226.7 748.711 219.3 742.711 213.1C736.911 206.7 729.911 201.8 721.711 198.4C713.511 195 704.211 193.3 693.811 193.3C683.411 193.3 674.111 195 665.911 198.4C657.711 201.8 650.611 206.7 644.611 213.1C638.811 219.3 634.411 226.7 631.411 235.3C628.411 243.7 626.911 253 626.911 263.2C626.911 272.8 628.411 281.8 631.411 290.2C634.411 298.6 638.811 306 644.611 312.4C650.611 318.8 657.711 323.8 665.911 327.4C674.111 331 683.411 332.8 693.811 332.8ZM945.888 378.7C925.288 378.7 907.788 374.9 893.388 367.3C879.188 359.5 868.388 348.5 860.988 334.3C853.588 320.1 849.888 303.3 849.888 283.9V154H899.088V285.7C899.088 295.3 900.888 303.7 904.488 310.9C908.288 317.9 913.588 323.3 920.388 327.1C927.388 330.9 935.888 332.8 945.888 332.8C956.088 332.8 964.588 330.9 971.388 327.1C978.388 323.3 983.688 317.9 987.288 310.9C990.888 303.9 992.688 295.5 992.688 285.7V154H1041.89V283.9C1041.89 303.3 1038.19 320.1 1030.79 334.3C1023.39 348.5 1012.59 359.5 998.388 367.3C984.188 374.9 966.688 378.7 945.888 378.7ZM1135.91 373V190.9H1185.11V373H1135.91ZM1074.41 196.9V154H1246.91V196.9H1074.41Z" fill="url(#paint0_linear_108_2113)"/>
<path opacity="0.04" d="M135.6 782V563H203.4L253.5 686H259.2L308.7 563H377.7V782H329.1V595.1L336 595.7L278.1 737.6H231.3L173.1 595.7L180.6 595.1V782H135.6ZM432.811 782V563H480.811V782H432.811ZM474.811 782V741.2H570.511V782H474.811ZM474.811 691.1V650.3H563.611V691.1H474.811ZM474.811 603.8V563H568.411V603.8H474.811Z" fill="url(#paint1_linear_108_2113)"/>
<path d="M12.6374 864.266C64.0441 946.691 116.983 1011.32 188.586 1099.69C251.418 1177.23 444.958 1328.06 581.82 1347.5C811.541 1380.13 1764.29 1226.3 1893.11 1177.23C2096.68 1099.69 2357.73 673.559 2241.14 492.009C2124.55 310.46 1764.17 -102.74 1423.4 -270.283C1082.64 -437.826 356.636 -147.385 282.855 -116.141C146.88 -58.5611 -154.445 160.741 -192.682 328.271C-228.355 484.566 -32.602 791.73 12.6374 864.266Z" stroke="#3C59C5" stroke-opacity="0.1" stroke-width="2"/>
<path d="M60.6324 839.084C108.36 915.59 157.509 975.577 223.987 1057.6C282.322 1129.58 462.009 1269.58 589.075 1287.62C802.354 1317.9 1686.91 1175.12 1806.51 1129.58C1995.51 1057.6 2237.88 662.07 2129.63 493.557C2021.38 325.045 1686.8 -58.4849 1370.42 -213.997C1054.05 -369.509 380.009 -99.9235 311.509 -70.9236C185.266 -17.4779 -94.491 186.077 -129.991 341.577C-163.11 486.649 18.631 771.756 60.6324 839.084Z" stroke="#98AEFF" stroke-width="2"/>
</g>
<defs>
<linearGradient id="paint0_linear_108_2113" x1="111" y1="162.095" x2="1027.19" y2="155.653" gradientUnits="userSpaceOnUse">
<stop stop-color="#3A59C5"/>
<stop offset="1" stop-color="#8D43EA"/>
</linearGradient>
<linearGradient id="paint1_linear_108_2113" x1="111" y1="571.095" x2="1027.19" y2="564.653" gradientUnits="userSpaceOnUse">
<stop stop-color="#3A59C5"/>
<stop offset="1" stop-color="#8D43EA"/>
</linearGradient>
<clipPath id="clip0_108_2113">
<rect width="1920" height="1019" fill="white"/>
</clipPath>
</defs>
</svg>
