<svg width="239" height="56" viewBox="0 0 239 56" fill="none" xmlns="http://www.w3.org/2000/svg">
<path d="M55.26 33L60.08 18.4H65.38L70.38 33H66.98L62.94 20.66L63.98 21.08H61.4L62.48 20.66L58.54 33H55.26ZM58.92 29.38L59.92 26.66H65.64L66.66 29.38H58.92ZM72.5045 33V22.04H75.0445V26.74H74.8645C74.8645 25.62 75.0045 24.6867 75.2845 23.94C75.5779 23.1933 76.0179 22.6333 76.6045 22.26C77.1912 21.8867 77.9045 21.7 78.7445 21.7H78.8845C80.1645 21.7 81.1379 22.12 81.8045 22.96C82.4845 23.7867 82.8245 25.0467 82.8245 26.74V33H79.6245V26.56C79.6245 25.9733 79.4512 25.4933 79.1045 25.12C78.7579 24.7467 78.2912 24.56 77.7045 24.56C77.1045 24.56 76.6179 24.7533 76.2445 25.14C75.8845 25.5133 75.7045 26.0067 75.7045 26.62V33H72.5045ZM86.4714 33V22.04H89.6714V33H86.4714ZM85.0114 24.4V22.04H89.6714V24.4H85.0114ZM87.7114 20.96C87.1114 20.96 86.6647 20.8067 86.3714 20.5C86.0914 20.18 85.9514 19.78 85.9514 19.3C85.9514 18.8067 86.0914 18.4067 86.3714 18.1C86.6647 17.78 87.1114 17.62 87.7114 17.62C88.3114 17.62 88.7514 17.78 89.0314 18.1C89.3247 18.4067 89.4714 18.8067 89.4714 19.3C89.4714 19.78 89.3247 20.18 89.0314 20.5C88.7514 20.8067 88.3114 20.96 87.7114 20.96ZM97.1911 33.34C95.6311 33.34 94.4111 33.02 93.5311 32.38C92.6511 31.74 92.1844 30.84 92.1311 29.68H94.9711C95.0244 30.0267 95.2311 30.34 95.5911 30.62C95.9644 30.8867 96.5178 31.02 97.2511 31.02C97.8111 31.02 98.2711 30.9267 98.6311 30.74C99.0044 30.54 99.1911 30.26 99.1911 29.9C99.1911 29.58 99.0511 29.3267 98.7711 29.14C98.4911 28.94 97.9911 28.8 97.2711 28.72L96.4111 28.64C95.0911 28.5067 94.0978 28.14 93.4311 27.54C92.7778 26.94 92.4511 26.1733 92.4511 25.24C92.4511 24.4667 92.6444 23.82 93.0311 23.3C93.4178 22.78 93.9511 22.3867 94.6311 22.12C95.3244 21.8533 96.1111 21.72 96.9911 21.72C98.4044 21.72 99.5444 22.0333 100.411 22.66C101.278 23.2733 101.731 24.1667 101.771 25.34H98.9311C98.8778 24.98 98.6911 24.68 98.3711 24.44C98.0511 24.1867 97.5778 24.06 96.9511 24.06C96.4578 24.06 96.0644 24.1533 95.7711 24.34C95.4778 24.5267 95.3311 24.78 95.3311 25.1C95.3311 25.4067 95.4578 25.64 95.7111 25.8C95.9644 25.96 96.3778 26.0733 96.9511 26.14L97.8111 26.22C99.1578 26.3667 100.204 26.74 100.951 27.34C101.698 27.94 102.071 28.7467 102.071 29.76C102.071 30.4933 101.871 31.1333 101.471 31.68C101.071 32.2133 100.504 32.6267 99.7711 32.92C99.0378 33.2 98.1778 33.34 97.1911 33.34ZM104.544 33V18.4H107.744V26.82H107.264C107.264 25.7133 107.404 24.78 107.684 24.02C107.964 23.26 108.378 22.6867 108.924 22.3C109.471 21.9 110.158 21.7 110.984 21.7H111.124C112.338 21.7 113.264 22.1333 113.904 23C114.544 23.8533 114.864 25.1067 114.864 26.76V33H111.664V26.56C111.664 25.96 111.484 25.48 111.124 25.12C110.778 24.7467 110.318 24.56 109.744 24.56C109.144 24.56 108.658 24.7533 108.284 25.14C107.924 25.5267 107.744 26.04 107.744 26.68V33H104.544ZM129.47 33.38C128.15 33.38 127.017 33.1533 126.07 32.7C125.124 32.2333 124.35 31.6267 123.75 30.88C123.15 30.12 122.704 29.3067 122.41 28.44C122.13 27.56 121.99 26.7067 121.99 25.88V25.44C121.99 24.5333 122.137 23.64 122.43 22.76C122.724 21.8667 123.17 21.06 123.77 20.34C124.384 19.62 125.15 19.0467 126.07 18.62C127.004 18.18 128.104 17.96 129.37 17.96C130.69 17.96 131.857 18.2067 132.87 18.7C133.884 19.1933 134.69 19.88 135.29 20.76C135.904 21.6267 136.264 22.6467 136.37 23.82H133.07C132.977 23.2333 132.764 22.7333 132.43 22.32C132.097 21.9067 131.664 21.5867 131.13 21.36C130.61 21.1333 130.024 21.02 129.37 21.02C128.717 21.02 128.137 21.1333 127.63 21.36C127.124 21.5867 126.697 21.9067 126.35 22.32C126.017 22.7333 125.757 23.2267 125.57 23.8C125.397 24.36 125.31 24.9867 125.31 25.68C125.31 26.36 125.397 26.9867 125.57 27.56C125.757 28.12 126.024 28.6133 126.37 29.04C126.73 29.4533 127.17 29.7733 127.69 30C128.21 30.2133 128.804 30.32 129.47 30.32C130.484 30.32 131.337 30.0733 132.03 29.58C132.737 29.0867 133.164 28.4067 133.31 27.54H136.59C136.47 28.6067 136.11 29.5867 135.51 30.48C134.924 31.36 134.117 32.0667 133.09 32.6C132.077 33.12 130.87 33.38 129.47 33.38ZM138.987 33V18.4H142.187V26.82H141.707C141.707 25.7133 141.847 24.78 142.127 24.02C142.407 23.26 142.82 22.6867 143.367 22.3C143.913 21.9 144.6 21.7 145.427 21.7H145.567C146.78 21.7 147.707 22.1333 148.347 23C148.987 23.8533 149.307 25.1067 149.307 26.76V33H146.107V26.56C146.107 25.96 145.927 25.48 145.567 25.12C145.22 24.7467 144.76 24.56 144.187 24.56C143.587 24.56 143.1 24.7533 142.727 25.14C142.367 25.5267 142.187 26.04 142.187 26.68V33H138.987ZM159.053 33V29.76H158.513V26.24C158.513 25.68 158.38 25.26 158.113 24.98C157.847 24.7 157.42 24.56 156.833 24.56C156.54 24.56 156.153 24.5667 155.673 24.58C155.193 24.5933 154.7 24.6133 154.193 24.64C153.687 24.6667 153.227 24.6933 152.813 24.72V22.02C153.12 21.9933 153.48 21.9667 153.893 21.94C154.307 21.9133 154.733 21.8933 155.173 21.88C155.613 21.8667 156.027 21.86 156.413 21.86C157.533 21.86 158.473 22.02 159.233 22.34C160.007 22.66 160.593 23.1467 160.993 23.8C161.393 24.44 161.593 25.2667 161.593 26.28V33H159.053ZM155.553 33.28C154.767 33.28 154.073 33.14 153.473 32.86C152.887 32.58 152.427 32.18 152.093 31.66C151.76 31.1267 151.593 30.4933 151.593 29.76C151.593 28.96 151.8 28.3067 152.213 27.8C152.627 27.28 153.207 26.9 153.953 26.66C154.7 26.4067 155.56 26.28 156.533 26.28H158.873V28.06H156.513C155.953 28.06 155.52 28.2 155.213 28.48C154.92 28.7467 154.773 29.1133 154.773 29.58C154.773 30.02 154.92 30.38 155.213 30.66C155.52 30.9267 155.953 31.06 156.513 31.06C156.873 31.06 157.193 31 157.473 30.88C157.767 30.7467 158.007 30.5267 158.193 30.22C158.38 29.9133 158.487 29.4867 158.513 28.94L159.273 29.74C159.207 30.5 159.02 31.14 158.713 31.66C158.42 32.18 158.007 32.58 157.473 32.86C156.953 33.14 156.313 33.28 155.553 33.28ZM169.688 33.14C168.582 33.14 167.688 33.0067 167.008 32.74C166.328 32.46 165.828 32 165.508 31.36C165.202 30.7067 165.048 29.8267 165.048 28.72V19.08H168.028V28.84C168.028 29.36 168.162 29.76 168.428 30.04C168.708 30.3067 169.102 30.44 169.608 30.44H171.228V33.14H169.688ZM163.388 24.38V22.04H171.228V24.38H163.388ZM178.76 33.14C177.654 33.14 176.76 33.0067 176.08 32.74C175.4 32.46 174.9 32 174.58 31.36C174.274 30.7067 174.12 29.8267 174.12 28.72V19.08H177.1V28.84C177.1 29.36 177.234 29.76 177.5 30.04C177.78 30.3067 178.174 30.44 178.68 30.44H180.3V33.14H178.76ZM172.46 24.38V22.04H180.3V24.38H172.46ZM187.833 33.38C186.9 33.38 186.073 33.22 185.353 32.9C184.646 32.58 184.053 32.1533 183.573 31.62C183.106 31.0733 182.746 30.4667 182.493 29.8C182.253 29.12 182.133 28.4267 182.133 27.72V27.32C182.133 26.5867 182.253 25.8867 182.493 25.22C182.746 24.54 183.106 23.9333 183.573 23.4C184.04 22.8667 184.62 22.4467 185.313 22.14C186.02 21.82 186.82 21.66 187.713 21.66C188.886 21.66 189.873 21.9267 190.673 22.46C191.486 22.98 192.106 23.6667 192.533 24.52C192.96 25.36 193.173 26.28 193.173 27.28V28.36H183.473V26.54H191.233L190.193 27.38C190.193 26.7267 190.1 26.1667 189.913 25.7C189.726 25.2333 189.446 24.88 189.073 24.64C188.713 24.3867 188.26 24.26 187.713 24.26C187.153 24.26 186.68 24.3867 186.293 24.64C185.906 24.8933 185.613 25.2667 185.413 25.76C185.213 26.24 185.113 26.8333 185.113 27.54C185.113 28.1933 185.206 28.7667 185.393 29.26C185.58 29.74 185.873 30.1133 186.273 30.38C186.673 30.6467 187.193 30.78 187.833 30.78C188.42 30.78 188.9 30.6667 189.273 30.44C189.646 30.2133 189.9 29.9333 190.033 29.6H192.973C192.813 30.3333 192.5 30.9867 192.033 31.56C191.566 32.1333 190.98 32.58 190.273 32.9C189.566 33.22 188.753 33.38 187.833 33.38ZM195.694 33V22.04H198.234V26.74H198.174C198.174 25.1933 198.5 24 199.154 23.16C199.82 22.32 200.78 21.9 202.034 21.9H202.454V24.66H201.654C200.774 24.66 200.094 24.9 199.614 25.38C199.134 25.8467 198.894 26.5267 198.894 27.42V33H195.694ZM203.288 37.1V34.4H203.988C204.481 34.4 204.854 34.2667 205.108 34C205.361 33.7467 205.488 33.38 205.488 32.9V22.04H208.588V32.8C208.588 33.8533 208.421 34.6933 208.088 35.32C207.768 35.9467 207.254 36.4 206.548 36.68C205.854 36.96 204.961 37.1 203.868 37.1H203.288ZM203.968 24.4V22.04H208.588V24.4H203.968ZM206.628 20.92C206.028 20.92 205.581 20.7667 205.288 20.46C205.008 20.14 204.868 19.74 204.868 19.26C204.868 18.7667 205.008 18.3667 205.288 18.06C205.581 17.74 206.028 17.58 206.628 17.58C207.241 17.58 207.688 17.74 207.968 18.06C208.248 18.3667 208.388 18.7667 208.388 19.26C208.388 19.74 208.248 20.14 207.968 20.46C207.688 20.7667 207.241 20.92 206.628 20.92ZM216.865 33.38C215.932 33.38 215.105 33.22 214.385 32.9C213.678 32.58 213.085 32.1533 212.605 31.62C212.138 31.0733 211.778 30.4667 211.525 29.8C211.285 29.12 211.165 28.4267 211.165 27.72V27.32C211.165 26.5867 211.285 25.8867 211.525 25.22C211.778 24.54 212.138 23.9333 212.605 23.4C213.072 22.8667 213.652 22.4467 214.345 22.14C215.052 21.82 215.852 21.66 216.745 21.66C217.918 21.66 218.905 21.9267 219.705 22.46C220.518 22.98 221.138 23.6667 221.565 24.52C221.992 25.36 222.205 26.28 222.205 27.28V28.36H212.505V26.54H220.265L219.225 27.38C219.225 26.7267 219.132 26.1667 218.945 25.7C218.758 25.2333 218.478 24.88 218.105 24.64C217.745 24.3867 217.292 24.26 216.745 24.26C216.185 24.26 215.712 24.3867 215.325 24.64C214.938 24.8933 214.645 25.2667 214.445 25.76C214.245 26.24 214.145 26.8333 214.145 27.54C214.145 28.1933 214.238 28.7667 214.425 29.26C214.612 29.74 214.905 30.1133 215.305 30.38C215.705 30.6467 216.225 30.78 216.865 30.78C217.452 30.78 217.932 30.6667 218.305 30.44C218.678 30.2133 218.932 29.9333 219.065 29.6H222.005C221.845 30.3333 221.532 30.9867 221.065 31.56C220.598 32.1333 220.012 32.58 219.305 32.9C218.598 33.22 217.785 33.38 216.865 33.38ZM229.746 33.38C228.812 33.38 227.986 33.22 227.266 32.9C226.559 32.58 225.966 32.1533 225.486 31.62C225.019 31.0733 224.659 30.4667 224.406 29.8C224.166 29.12 224.046 28.4267 224.046 27.72V27.32C224.046 26.5867 224.166 25.8867 224.406 25.22C224.659 24.54 225.019 23.9333 225.486 23.4C225.952 22.8667 226.532 22.4467 227.226 22.14C227.932 21.82 228.732 21.66 229.626 21.66C230.799 21.66 231.786 21.9267 232.586 22.46C233.399 22.98 234.019 23.6667 234.446 24.52C234.872 25.36 235.086 26.28 235.086 27.28V28.36H225.386V26.54H233.146L232.106 27.38C232.106 26.7267 232.012 26.1667 231.826 25.7C231.639 25.2333 231.359 24.88 230.986 24.64C230.626 24.3867 230.172 24.26 229.626 24.26C229.066 24.26 228.592 24.3867 228.206 24.64C227.819 24.8933 227.526 25.2667 227.326 25.76C227.126 26.24 227.026 26.8333 227.026 27.54C227.026 28.1933 227.119 28.7667 227.306 29.26C227.492 29.74 227.786 30.1133 228.186 30.38C228.586 30.6467 229.106 30.78 229.746 30.78C230.332 30.78 230.812 30.6667 231.186 30.44C231.559 30.2133 231.812 29.9333 231.946 29.6H234.886C234.726 30.3333 234.412 30.9867 233.946 31.56C233.479 32.1333 232.892 32.58 232.186 32.9C231.479 33.22 230.666 33.38 229.746 33.38Z" fill="#554497"/>
<rect x="2.16699" y="11.9167" width="23.8333" height="29.25" fill="#694DDA"/>
<path d="M24.4821 18.0408L19.2151 35.2857H13.4236L7.95996 18.0408H11.6753L16.0899 32.6163L14.9535 32.1202H17.7727L16.5926 32.6163L20.898 18.0408H24.4821ZM32.3681 22.2857C32.0039 23.5219 31.8743 24.2803 31.9702 25.4693C29.6888 25.4615 13.1395 25.5293 13.1395 25.5293L12.0249 22.3166C12.0249 22.3166 29.8184 22.3408 32.3681 22.2857Z" fill="#694DDA"/>
<path d="M22.9101 18.3062L17.2137 35.5607H10.9501L5.04102 18.3062H9.0592L13.8337 32.8898L12.6047 32.3934H15.6537L14.3774 32.8898L19.0337 18.3062H22.9101ZM26.0002 22.2857C26.0002 25.5003 26.0002 22.949 26.0002 25.4694C23.5328 25.4615 10.6428 25.7989 10.6428 25.7989L9.43738 22.5843C9.43738 22.5843 23.2426 22.3409 26.0002 22.2857Z" fill="white"/>
<path d="M36.5376 16.9797C38.0976 16.9797 39.437 17.2476 40.5558 17.7834C41.6746 18.3349 42.5885 19.0519 43.2976 19.9343C44.0067 20.8325 44.5346 21.7937 44.8812 22.8179C45.2121 23.8579 45.3776 24.8664 45.3776 25.8434V26.3634C45.3776 27.4349 45.2043 28.4906 44.8576 29.5306C44.5109 30.5864 43.983 31.5397 43.274 32.3906C42.5491 33.2416 41.643 33.9191 40.5558 34.4234C39.4527 34.9434 38.1527 35.2034 36.6558 35.2034C35.0958 35.2034 33.717 34.9119 32.5194 34.3288C31.3218 33.7458 30.3685 32.9343 29.6594 31.8943C28.9346 30.87 28.5091 29.6646 28.383 28.2779H32.283C32.3934 28.9713 32.6455 29.5622 33.0394 30.0506C33.4334 30.5391 33.9455 30.9173 34.5758 31.1852C35.1903 31.4531 35.8837 31.587 36.6558 31.587C37.4279 31.587 38.1134 31.4531 38.7121 31.1852C39.3109 30.9173 39.8152 30.5391 40.2249 30.0506C40.6188 29.5622 40.9261 28.9791 41.1467 28.3016C41.3515 27.6397 41.454 26.8991 41.454 26.0797C41.454 25.2761 41.3515 24.5355 41.1467 23.8579C40.9261 23.1961 40.6109 22.6131 40.2012 22.1088C39.7758 21.6203 39.2558 21.2422 38.6412 20.9743C38.0267 20.7222 37.3255 20.5961 36.5376 20.5961C35.34 20.5961 34.3315 20.8876 33.5121 21.4706C32.677 22.0537 32.1727 22.8573 31.9994 23.8816H28.123C28.2649 22.6209 28.6903 21.4628 29.3994 20.407C30.0927 19.367 31.0461 18.5319 32.2594 17.9016C33.457 17.287 34.883 16.9797 36.5376 16.9797Z" fill="#694DDA"/>
</svg>
