<svg width="560" height="566" viewBox="0 0 560 566" fill="none" xmlns="http://www.w3.org/2000/svg">
<path d="M399.804 160.616C384.466 165.457 369.272 170.88 354.384 177.154C339.463 183.421 324.928 190.587 310.857 198.612C295.871 207.164 281.521 216.807 267.921 227.465C249.601 241.667 233.311 258.359 219.514 277.068C212.596 286.519 206.519 296.57 201.353 307.103C198.639 312.521 196.387 318.164 194.622 323.97C192.721 330.155 191.843 336.616 192.026 343.09C192.146 346.649 192.794 350.17 193.947 353.535C195.224 357.308 197.371 360.72 200.21 363.488C203.187 366.337 206.867 368.325 210.864 369.245C214.553 370.087 218.372 370.167 222.093 369.48C225.533 368.864 228.87 367.758 232.004 366.194C234.91 364.721 237.675 362.976 240.261 360.984C245.081 357.341 249.595 353.301 253.757 348.906C261.988 340.225 269.025 330.462 274.677 319.881C280.354 309.261 284.486 297.868 286.944 286.054C290.047 271.353 290.139 256.166 287.217 241.428C286.787 239.427 286.235 237.456 285.562 235.526C284.867 233.53 284.01 231.596 282.999 229.743C281.012 225.929 278.383 222.495 275.229 219.593C272.016 216.661 268.284 214.369 264.229 212.836C260.36 211.384 256.3 210.516 252.181 210.263C244.516 209.878 236.842 210.786 229.472 212.949C225.919 213.919 222.418 215.078 218.985 216.42C217.281 217.086 215.588 217.775 213.923 218.518C212.246 219.249 210.7 220.012 209.083 220.759C196.286 226.747 183.891 233.577 171.978 241.205C124.39 271.95 85.1483 314.216 57.813 364.17C56.7539 366.02 55.7937 367.928 54.8125 369.826C53.846 371.732 52.8343 373.615 51.915 375.546C50.0876 379.415 48.2113 383.259 46.5565 387.2C43.0933 395.009 40.1079 402.994 37.3334 410.934C35.1406 417.277 33.3368 423.75 31.9324 430.317C31.3989 432.984 30.9634 435.362 30.6532 437.485C30.3884 439.621 30.2144 441.492 30.119 443.125C29.8415 447.88 30.7635 448.062 32.551 444.41C32.9977 443.497 33.4984 442.344 34.0475 440.961C34.5821 439.576 35.2006 437.973 35.9032 436.153C36.5986 434.337 37.3407 432.305 38.1294 430.059C38.9622 427.83 39.8799 425.406 40.8186 422.776C45.881 408.952 51.6893 395.418 58.2175 382.237C73.1273 352.114 92.6336 324.55 116.021 300.556C139.228 276.576 166.118 256.547 195.652 241.245C197.689 240.219 199.736 239.188 201.791 238.152C203.874 237.179 205.963 236.203 208.057 235.224C210.134 234.215 212.286 233.361 214.399 232.424C216.525 231.503 218.641 230.559 220.694 229.775C228.616 226.542 236.962 224.492 245.468 223.69C251.81 223.205 257.94 224.138 262.731 226.949C265.132 228.387 267.23 230.285 268.91 232.537C269.784 233.714 270.558 234.964 271.222 236.274C271.924 237.577 272.503 238.945 272.951 240.358C273.429 241.839 273.813 243.35 274.101 244.88L274.904 249.905C275.086 251.602 275.288 253.297 275.446 254.998C275.526 256.706 275.671 258.411 275.704 260.122C275.848 266.997 275.288 273.869 274.032 280.627C271.475 294.235 266.455 307.249 259.223 319.014C255.599 324.907 251.502 330.488 246.974 335.703C242.526 340.875 237.577 345.584 232.201 349.759L230.702 350.87L229.951 351.423L229.249 351.896C228.328 352.521 227.373 353.092 226.389 353.609C224.505 354.607 222.499 355.352 220.424 355.825C218.554 356.26 216.621 356.342 214.722 356.069C213.88 355.949 213.057 355.719 212.273 355.386C211.529 355.09 210.83 354.686 210.201 354.186C209.552 353.698 208.976 353.118 208.491 352.463C207.953 351.765 207.497 351.007 207.132 350.202C206.32 348.338 205.803 346.356 205.6 344.329C205.366 342.049 205.362 339.75 205.589 337.468C205.817 335.076 206.218 332.703 206.791 330.37C208.04 325.483 209.73 320.722 211.84 316.148C212.896 313.789 214.033 311.439 215.23 309.084C216.424 306.753 217.661 304.446 218.943 302.161C224.149 293.017 230.045 284.293 236.577 276.065C248.326 261.311 261.727 247.984 276.511 236.348C291.388 224.643 307.269 214.305 323.966 205.455C332.32 200.994 340.833 196.834 349.504 192.973C353.841 191.059 358.195 189.183 362.616 187.451L369.235 184.824L375.91 182.332C380.347 180.633 384.871 179.161 389.352 177.575C393.882 176.122 398.379 174.572 402.945 173.217C412.029 170.369 421.222 167.84 430.435 165.375C459.881 157.652 487.91 150.971 512.5 142.958C523.808 139.284 522.422 136.138 508.794 137.833C489.543 140.465 469.399 143.762 449.446 147.915C433.037 151.3 416.38 155.881 400.016 160.798C399.948 160.735 399.884 160.677 399.804 160.616Z" fill="black"/>
<path d="M432.811 205.501C439.824 198.298 447.38 191.655 455.409 185.632C457.584 184.09 459.753 182.52 461.963 181.005C464.226 179.563 466.509 178.149 468.823 176.806C478.947 171.173 489.586 166.288 500.383 161.542L516.674 154.498C522.115 152.151 527.612 149.847 533.014 147.354L533.094 147.317C534.953 146.459 536.398 144.89 537.112 142.955C537.826 141.02 537.75 138.878 536.901 137C536.359 135.817 535.535 134.79 534.503 134.009C533.471 133.228 532.263 132.719 530.988 132.527L514.432 130.126C496.601 127.436 478.752 124.755 460.849 122.186C442.947 119.624 424.996 117.17 406.905 115.186C401.423 114.66 395.916 114.436 390.409 114.516C385.181 114.505 381.681 115.88 379.472 117.755C376.26 120.507 379.087 123.887 386.197 125.322C390.893 126.232 395.638 126.859 400.408 127.2C422.242 129.156 443.93 132.53 465.336 137.301C471.266 138.596 477.406 140.17 483.297 140.653C498.567 141.909 513.698 144.719 528.865 147.129L527.053 133.88C523.788 135.314 520.55 136.797 517.361 138.385C504.757 144.601 491.717 150.174 479.043 156.794C467.611 162.659 456.645 169.41 446.245 176.986C435.916 184.672 426.271 193.253 417.419 202.634C415.672 204.5 413.995 206.382 412.407 208.281C410.88 210.231 409.452 212.203 408.123 214.197C405.528 218.04 403.411 222.19 401.817 226.554C401.114 228.505 401.379 229.907 402.309 230.509C403.217 231.092 404.871 230.95 406.71 229.609C409.18 227.595 411.561 225.407 413.99 223.253C416.435 221.117 418.823 218.897 421.163 216.655C423.144 214.882 425.03 212.975 426.892 211.026L428.286 209.561L429.726 208.153C430.691 207.221 431.655 206.29 432.618 205.36L432.811 205.501Z" fill="black"/>
</svg>
