<svg width="1153" height="252" viewBox="0 0 1153 252" fill="none" xmlns="http://www.w3.org/2000/svg">
<mask id="path-1-outside-1_200_29" maskUnits="userSpaceOnUse" x="0" y="0" width="1153" height="252" fill="black">
<rect fill="white" width="1153" height="252"/>
<path d="M2 2H1153V252H2V2Z"/>
</mask>
<path d="M2 2V1H1V2H2ZM1 2V9.8125H3V2H1ZM1 25.4375V41.0625H3V25.4375H1ZM1 56.6875V72.3125H3V56.6875H1ZM1 87.9375V103.562H3V87.9375H1ZM1 119.188V134.812H3V119.188H1ZM1 150.438V166.062H3V150.438H1ZM1 181.688V197.312H3V181.688H1ZM1 212.938V228.562H3V212.938H1ZM1 244.188V252H3V244.188H1ZM1153 1H1145.43V3H1153V1ZM1130.28 1H1115.14V3H1130.28V1ZM1099.99 1H1084.85V3H1099.99V1ZM1069.7 1H1054.56V3H1069.7V1ZM1039.41 1H1024.27V3H1039.41V1ZM1009.12 1H993.98V3H1009.12V1ZM978.836 1H963.691V3H978.836V1ZM948.546 1H933.401V3H948.546V1ZM918.257 1H903.112V3H918.257V1ZM887.967 1H872.822V3H887.967V1ZM857.678 1H842.533V3H857.678V1ZM827.388 1H812.243V3H827.388V1ZM797.099 1H781.954V3H797.099V1ZM766.809 1H751.664V3H766.809V1ZM736.52 1H721.375V3H736.52V1ZM706.23 1H691.085V3H706.23V1ZM675.941 1H660.796V3H675.941V1ZM645.651 1H630.506V3H645.651V1ZM615.362 1H600.217V3H615.362V1ZM585.072 1H569.928V3H585.072V1ZM554.783 1H539.638V3H554.783V1ZM524.493 1H509.349V3H524.493V1ZM494.204 1H479.059V3H494.204V1ZM463.915 1H448.77V3H463.915V1ZM433.625 1H418.48V3H433.625V1ZM403.336 1H388.191V3H403.336V1ZM373.046 1H357.902V3H373.046V1ZM342.757 1H327.612V3H342.757V1ZM312.467 1H297.323V3H312.467V1ZM282.178 1H267.033V3H282.178V1ZM251.889 1H236.744V3H251.889V1ZM221.599 1H206.454V3H221.599V1ZM191.31 1H176.165V3H191.31V1ZM161.02 1H145.876V3H161.02V1ZM130.731 1H115.586V3H130.731V1ZM100.441 1H85.2965V3H100.441V1ZM70.1517 1H55.0069V3H70.1517V1ZM39.8622 1H24.7174V3H39.8622V1ZM9.57261 1H2V3H9.57261V1ZM2 2V0H0V2H2ZM0 2V9.8125H4V2H0ZM0 25.4375V41.0625H4V25.4375H0ZM0 56.6875V72.3125H4V56.6875H0ZM0 87.9375V103.562H4V87.9375H0ZM0 119.188V134.812H4V119.188H0ZM0 150.438V166.062H4V150.438H0ZM0 181.688V197.312H4V181.688H0ZM0 212.938V228.562H4V212.938H0ZM0 244.188V252H4V244.188H0ZM1153 0H1145.43V4H1153V0ZM1130.28 0H1115.14V4H1130.28V0ZM1099.99 0H1084.85V4H1099.99V0ZM1069.7 0H1054.56V4H1069.7V0ZM1039.41 0H1024.27V4H1039.41V0ZM1009.12 0H993.98V4H1009.12V0ZM978.836 0H963.691V4H978.836V0ZM948.546 0H933.401V4H948.546V0ZM918.257 0H903.112V4H918.257V0ZM887.967 0H872.822V4H887.967V0ZM857.678 0H842.533V4H857.678V0ZM827.388 0H812.243V4H827.388V0ZM797.099 0H781.954V4H797.099V0ZM766.809 0H751.664V4H766.809V0ZM736.52 0H721.375V4H736.52V0ZM706.23 0H691.085V4H706.23V0ZM675.941 0H660.796V4H675.941V0ZM645.651 0H630.506V4H645.651V0ZM615.362 0H600.217V4H615.362V0ZM585.072 0H569.928V4H585.072V0ZM554.783 0H539.638V4H554.783V0ZM524.493 0H509.349V4H524.493V0ZM494.204 0H479.059V4H494.204V0ZM463.915 0H448.77V4H463.915V0ZM433.625 0H418.48V4H433.625V0ZM403.336 0H388.191V4H403.336V0ZM373.046 0H357.902V4H373.046V0ZM342.757 0H327.612V4H342.757V0ZM312.467 0H297.323V4H312.467V0ZM282.178 0H267.033V4H282.178V0ZM251.889 0H236.744V4H251.889V0ZM221.599 0H206.454V4H221.599V0ZM191.31 0H176.165V4H191.31V0ZM161.02 0H145.876V4H161.02V0ZM130.731 0H115.586V4H130.731V0ZM100.441 0H85.2965V4H100.441V0ZM70.1517 0H55.0069V4H70.1517V0ZM39.8622 0H24.7174V4H39.8622V0ZM9.57261 0H2V4H9.57261V0Z" fill="black" mask="url(#path-1-outside-1_200_29)"/>
</svg>
