<svg width="1154" height="253" viewBox="0 0 1154 253" fill="none" xmlns="http://www.w3.org/2000/svg">
<mask id="path-1-outside-1_200_29" maskUnits="userSpaceOnUse" x="0" y="0" width="1154" height="253" fill="black">
<rect fill="white" width="1154" height="253"/>
<path d="M3 3H1154V253H3V3Z"/>
</mask>
<path d="M3 3V1.5H1.5V3H3ZM1.5 3V10.8125H4.5V3H1.5ZM1.5 26.4375V42.0625H4.5V26.4375H1.5ZM1.5 57.6875V73.3125H4.5V57.6875H1.5ZM1.5 88.9375V104.562H4.5V88.9375H1.5ZM1.5 120.188V135.812H4.5V120.188H1.5ZM1.5 151.438V167.062H4.5V151.438H1.5ZM1.5 182.688V198.312H4.5V182.688H1.5ZM1.5 213.938V229.562H4.5V213.938H1.5ZM1.5 245.188V253H4.5V245.188H1.5ZM1154 1.5H1146.43V4.5H1154V1.5ZM1131.28 1.5H1116.14V4.5H1131.28V1.5ZM1100.99 1.5H1085.85V4.5H1100.99V1.5ZM1070.7 1.5H1055.56V4.5H1070.7V1.5ZM1040.41 1.5H1025.27V4.5H1040.41V1.5ZM1010.12 1.5H994.98V4.5H1010.12V1.5ZM979.836 1.5H964.691V4.5H979.836V1.5ZM949.546 1.5H934.401V4.5H949.546V1.5ZM919.257 1.5H904.112V4.5H919.257V1.5ZM888.967 1.5H873.822V4.5H888.967V1.5ZM858.678 1.5H843.533V4.5H858.678V1.5ZM828.388 1.5H813.243V4.5H828.388V1.5ZM798.099 1.5H782.954V4.5H798.099V1.5ZM767.809 1.5H752.664V4.5H767.809V1.5ZM737.52 1.5H722.375V4.5H737.52V1.5ZM707.23 1.5H692.085V4.5H707.23V1.5ZM676.941 1.5H661.796V4.5H676.941V1.5ZM646.651 1.5H631.506V4.5H646.651V1.5ZM616.362 1.5H601.217V4.5H616.362V1.5ZM586.072 1.5H570.928V4.5H586.072V1.5ZM555.783 1.5H540.638V4.5H555.783V1.5ZM525.493 1.5H510.349V4.5H525.493V1.5ZM495.204 1.5H480.059V4.5H495.204V1.5ZM464.915 1.5H449.77V4.5H464.915V1.5ZM434.625 1.5H419.48V4.5H434.625V1.5ZM404.336 1.5H389.191V4.5H404.336V1.5ZM374.046 1.5H358.902V4.5H374.046V1.5ZM343.757 1.5H328.612V4.5H343.757V1.5ZM313.467 1.5H298.323V4.5H313.467V1.5ZM283.178 1.5H268.033V4.5H283.178V1.5ZM252.889 1.5H237.744V4.5H252.889V1.5ZM222.599 1.5H207.454V4.5H222.599V1.5ZM192.31 1.5H177.165V4.5H192.31V1.5ZM162.02 1.5H146.876V4.5H162.02V1.5ZM131.731 1.5H116.586V4.5H131.731V1.5ZM101.441 1.5H86.2965V4.5H101.441V1.5ZM71.1517 1.5H56.0069V4.5H71.1517V1.5ZM40.8622 1.5H25.7174V4.5H40.8622V1.5ZM10.5726 1.5H3V4.5H10.5726V1.5ZM3 3V0H0V3H3ZM0 3V10.8125H6V3H0ZM0 26.4375V42.0625H6V26.4375H0ZM0 57.6875V73.3125H6V57.6875H0ZM0 88.9375V104.562H6V88.9375H0ZM0 120.188V135.812H6V120.188H0ZM0 151.438V167.062H6V151.438H0ZM0 182.688V198.312H6V182.688H0ZM0 213.938V229.562H6V213.938H0ZM0 245.188V253H6V245.188H0ZM1154 0H1146.43V6H1154V0ZM1131.28 0H1116.14V6H1131.28V0ZM1100.99 0H1085.85V6H1100.99V0ZM1070.7 0H1055.56V6H1070.7V0ZM1040.41 0H1025.27V6H1040.41V0ZM1010.12 0H994.98V6H1010.12V0ZM979.836 0H964.691V6H979.836V0ZM949.546 0H934.401V6H949.546V0ZM919.257 0H904.112V6H919.257V0ZM888.967 0H873.822V6H888.967V0ZM858.678 0H843.533V6H858.678V0ZM828.388 0H813.243V6H828.388V0ZM798.099 0H782.954V6H798.099V0ZM767.809 0H752.664V6H767.809V0ZM737.52 0H722.375V6H737.52V0ZM707.23 0H692.085V6H707.23V0ZM676.941 0H661.796V6H676.941V0ZM646.651 0H631.506V6H646.651V0ZM616.362 0H601.217V6H616.362V0ZM586.072 0H570.928V6H586.072V0ZM555.783 0H540.638V6H555.783V0ZM525.493 0H510.349V6H525.493V0ZM495.204 0H480.059V6H495.204V0ZM464.915 0H449.77V6H464.915V0ZM434.625 0H419.48V6H434.625V0ZM404.336 0H389.191V6H404.336V0ZM374.046 0H358.902V6H374.046V0ZM343.757 0H328.612V6H343.757V0ZM313.467 0H298.323V6H313.467V0ZM283.178 0H268.033V6H283.178V0ZM252.889 0H237.744V6H252.889V0ZM222.599 0H207.454V6H222.599V0ZM192.31 0H177.165V6H192.31V0ZM162.02 0H146.876V6H162.02V0ZM131.731 0H116.586V6H131.731V0ZM101.441 0H86.2965V6H101.441V0ZM71.1517 0H56.0069V6H71.1517V0ZM40.8622 0H25.7174V6H40.8622V0ZM10.5726 0H3V6H10.5726V0Z" fill="black" mask="url(#path-1-outside-1_200_29)"/>
</svg>
