<svg width="1264" height="480" viewBox="0 0 1264 480" fill="none" xmlns="http://www.w3.org/2000/svg">
<path d="M11.25 477C10.4167 477 10 476.583 10 475.75L10.5 304C10.5 303.333 10.8333 303 11.5 303L58.25 302.75C67.4167 302.583 75.75 304.75 83.25 309.25C90.9167 313.75 97 319.833 101.5 327.5C106 335 108.25 343.333 108.25 352.5V424.25C108.25 433.917 105.917 442.75 101.25 450.75C96.5833 458.583 90.3333 464.833 82.5 469.5C74.6667 474.167 65.8333 476.583 56 476.75L11.25 477ZM40.5 446.25H56C62.1667 446.25 67.3333 444.083 71.5 439.75C75.8333 435.417 78 430.25 78 424.25V352.25C78 346.917 76 342.333 72 338.5C68.1667 334.5 63.5833 332.583 58.25 332.75L40.75 333L40.5 446.25ZM128.92 477C128.253 477 127.92 476.583 127.92 475.75L128.17 304C128.17 303.333 128.503 303 129.17 303H209.42C210.087 303 210.42 303.417 210.42 304.25V332.25C210.42 332.917 210.087 333.25 209.42 333.25H158.17V372.25H209.42C210.087 372.25 210.42 372.583 210.42 373.25L210.67 401.5C210.67 402.167 210.337 402.5 209.67 402.5H158.17V446.25H209.67C210.337 446.25 210.67 446.667 210.67 447.5V476C210.67 476.667 210.337 477 209.67 477H128.92ZM260.9 477C260.234 477 259.817 476.583 259.65 475.75L225.15 304C224.984 303.333 225.317 303 226.15 303H254.4C255.067 303 255.484 303.333 255.65 304L276.15 418.5L296.15 304C296.317 303.333 296.734 303 297.4 303H325.4C326.234 303 326.567 303.333 326.4 304L292.4 475.75C292.234 476.583 291.817 477 291.15 477H260.9ZM342.055 477C341.388 477 341.055 476.583 341.055 475.75L341.305 304C341.305 303.333 341.638 303 342.305 303H422.555C423.221 303 423.555 303.417 423.555 304.25V332.25C423.555 332.917 423.221 333.25 422.555 333.25H371.305V372.25H422.555C423.221 372.25 423.555 372.583 423.555 373.25L423.805 401.5C423.805 402.167 423.471 402.5 422.805 402.5H371.305V446.25H422.805C423.471 446.25 423.805 446.667 423.805 447.5V476C423.805 476.667 423.471 477 422.805 477H342.055ZM447.035 477C446.368 477 446.035 476.583 446.035 475.75L446.285 304.25C446.285 303.417 446.702 303 447.535 303H475.285C476.118 303 476.535 303.417 476.535 304.25L476.285 446.25H527.785C528.618 446.25 529.035 446.667 529.035 447.5V475.75C529.035 476.583 528.618 477 527.785 477H447.035ZM588.232 479.5C579.232 479.5 570.982 477.25 563.482 472.75C556.149 468.083 550.232 462 545.732 454.5C541.232 446.833 538.982 438.417 538.982 429.25L539.232 350C539.232 340.833 541.399 332.5 545.732 325C550.232 317.5 556.232 311.5 563.732 307C571.232 302.5 579.399 300.25 588.232 300.25C597.232 300.25 605.399 302.5 612.732 307C620.066 311.5 625.899 317.5 630.232 325C634.732 332.5 636.982 340.833 636.982 350L637.232 429.25C637.232 438.417 634.982 446.833 630.482 454.5C626.149 462 620.232 468.083 612.732 472.75C605.399 477.25 597.232 479.5 588.232 479.5ZM588.232 449.25C593.232 449.25 597.566 447.25 601.232 443.25C605.066 439.083 606.982 434.417 606.982 429.25L606.732 350C606.732 344.5 604.982 339.833 601.482 336C597.982 332.167 593.566 330.25 588.232 330.25C583.066 330.25 578.649 332.167 574.982 336C571.316 339.667 569.482 344.333 569.482 350V429.25C569.482 434.75 571.316 439.5 574.982 443.5C578.649 447.333 583.066 449.25 588.232 449.25ZM657.49 477C656.657 477 656.24 476.583 656.24 475.75L656.74 304C656.74 303.333 657.074 303 657.74 303H705.74C721.074 303 733.157 307.667 741.99 317C750.99 326.333 755.49 339 755.49 355C755.49 366.833 753.157 377.083 748.49 385.75C743.824 394.417 737.74 401.083 730.24 405.75C722.74 410.417 714.574 412.75 705.74 412.75H686.74V475.75C686.74 476.583 686.324 477 685.49 477H657.49ZM686.74 382.5H705.74C711.074 382.5 715.657 380 719.49 375C723.49 369.833 725.49 363.167 725.49 355C725.49 348.5 723.74 343.167 720.24 339C716.74 334.833 711.907 332.75 705.74 332.75L686.74 333V382.5ZM773.451 477C772.785 477 772.451 476.583 772.451 475.75L772.701 304C772.701 303.333 773.035 303 773.701 303H853.951C854.618 303 854.951 303.417 854.951 304.25V332.25C854.951 332.917 854.618 333.25 853.951 333.25H802.701V372.25H853.951C854.618 372.25 854.951 372.583 854.951 373.25L855.201 401.5C855.201 402.167 854.868 402.5 854.201 402.5H802.701V446.25H854.201C854.868 446.25 855.201 446.667 855.201 447.5V476C855.201 476.667 854.868 477 854.201 477H773.451ZM878.432 477C877.765 477 877.432 476.583 877.432 475.75L877.932 304C877.932 303.333 878.265 303 878.932 303H929.432C938.432 303 946.682 305.25 954.182 309.75C961.848 314.083 967.932 320 972.432 327.5C976.932 334.833 979.182 343.167 979.182 352.5C979.182 358.667 978.265 364.25 976.432 369.25C974.598 374.083 972.432 378.25 969.932 381.75C967.432 385.083 965.182 387.583 963.182 389.25C972.182 399.25 976.682 411 976.682 424.5L976.932 475.75C976.932 476.583 976.515 477 975.682 477H947.432C946.765 477 946.432 476.75 946.432 476.25V424.5C946.432 418.5 944.265 413.333 939.932 409C935.765 404.5 930.598 402.25 924.432 402.25H907.932L907.682 475.75C907.682 476.583 907.348 477 906.682 477H878.432ZM907.932 372.25H929.432C934.598 372.25 939.182 370.333 943.182 366.5C947.182 362.667 949.182 358 949.182 352.5C949.182 347.167 947.182 342.583 943.182 338.75C939.348 334.917 934.765 333 929.432 333H907.932V372.25Z" fill="#F0D4B4"/>
<circle cx="731" cy="240" r="26" fill="#F0D4B4"/>
<path d="M384.25 177C383.417 177 383 176.583 383 175.75L383.5 3.99999C383.5 3.33332 383.833 2.99999 384.5 2.99999L431.25 2.74999C440.417 2.58333 448.75 4.75 456.25 9.25C463.917 13.75 470 19.8333 474.5 27.5C479 35 481.25 43.3333 481.25 52.5V124.25C481.25 133.917 478.917 142.75 474.25 150.75C469.583 158.583 463.333 164.833 455.5 169.5C447.667 174.167 438.833 176.583 429 176.75L384.25 177ZM413.5 146.25H429C435.167 146.25 440.333 144.083 444.5 139.75C448.833 135.417 451 130.25 451 124.25V52.25C451 46.9167 449 42.3333 445 38.5C441.167 34.5 436.583 32.5833 431.25 32.75L413.75 33L413.5 146.25ZM501.92 177C501.253 177 500.92 176.583 500.92 175.75L501.17 3.99999C501.17 3.33332 501.503 2.99999 502.17 2.99999H582.42C583.087 2.99999 583.42 3.41666 583.42 4.24999V32.25C583.42 32.9167 583.087 33.25 582.42 33.25H531.17V72.25H582.42C583.087 72.25 583.42 72.5833 583.42 73.25L583.67 101.5C583.67 102.167 583.337 102.5 582.67 102.5H531.17V146.25H582.67C583.337 146.25 583.67 146.667 583.67 147.5V176C583.67 176.667 583.337 177 582.67 177H501.92ZM646.936 179.5C637.936 179.5 629.686 177.25 622.186 172.75C614.852 168.083 608.936 162 604.436 154.5C600.102 146.833 597.936 138.417 597.936 129.25V117.75C597.936 116.917 598.352 116.5 599.186 116.5H627.186C627.852 116.5 628.186 116.917 628.186 117.75V129.25C628.186 134.75 630.019 139.5 633.686 143.5C637.352 147.333 641.769 149.25 646.936 149.25C652.102 149.25 656.519 147.25 660.186 143.25C663.852 139.25 665.686 134.583 665.686 129.25C665.686 123.083 661.686 117.75 653.686 113.25C651.019 111.75 646.852 109.417 641.186 106.25C635.519 103.083 630.186 100.083 625.186 97.25C616.019 91.9167 609.186 85.25 604.686 77.25C600.352 69.0833 598.186 59.9167 598.186 49.75C598.186 40.4167 600.436 32.0833 604.936 24.75C609.436 17.25 615.352 11.3333 622.686 7C630.186 2.66666 638.269 0.499992 646.936 0.499992C655.769 0.499992 663.852 2.74999 671.186 7.24999C678.686 11.5833 684.602 17.5 688.936 25C693.436 32.3333 695.686 40.5833 695.686 49.75V70.25C695.686 70.9167 695.352 71.25 694.686 71.25H666.686C666.019 71.25 665.686 70.9167 665.686 70.25L665.436 49.75C665.436 43.9167 663.602 39.1667 659.936 35.5C656.269 31.8333 651.936 30 646.936 30C641.769 30 637.352 32 633.686 36C630.019 39.8333 628.186 44.4167 628.186 49.75C628.186 55.25 629.352 59.8333 631.686 63.5C634.019 67.1667 638.269 70.6667 644.436 74C645.269 74.5 646.852 75.4167 649.186 76.75C651.686 77.9167 654.352 79.3333 657.186 81C660.019 82.5 662.519 83.8333 664.686 85C667.019 86.1667 668.436 86.9167 668.936 87.25C677.269 91.9167 683.852 97.6667 688.686 104.5C693.519 111.167 695.936 119.417 695.936 129.25C695.936 138.75 693.686 147.333 689.186 155C684.852 162.5 678.936 168.5 671.436 173C664.102 177.333 655.936 179.5 646.936 179.5ZM714.572 177C713.739 177 713.322 176.583 713.322 175.75L713.572 3.99999C713.572 3.33332 713.906 2.99999 714.572 2.99999H742.572C743.239 2.99999 743.572 3.33332 743.572 3.99999L743.822 175.75C743.822 176.583 743.489 177 742.822 177H714.572ZM811.563 179.5C802.563 179.5 794.396 177.25 787.062 172.75C779.729 168.25 773.813 162.25 769.313 154.75C764.979 147.083 762.813 138.583 762.813 129.25V50C762.813 41 764.979 32.75 769.313 25.25C773.813 17.5833 779.729 11.5 787.062 7C794.563 2.5 802.729 0.249996 811.563 0.249996C820.729 0.249996 828.979 2.5 836.313 7C843.813 11.3333 849.729 17.25 854.063 24.75C858.396 32.25 860.563 40.6667 860.563 50V61.5C860.563 62.1667 860.146 62.5 859.313 62.5H831.313C830.646 62.5 830.313 62.1667 830.313 61.5V52C830.313 45.6667 828.479 40.4167 824.813 36.25C821.313 32.0833 816.896 30 811.563 30C806.729 30 802.396 32 798.563 36C794.896 40 793.063 44.6667 793.063 50V129.25C793.063 134.75 794.896 139.5 798.563 143.5C802.229 147.333 806.563 149.25 811.563 149.25C816.896 149.25 821.313 147.333 824.813 143.5C828.479 139.667 830.313 134.917 830.313 129.25V117H812.813C811.979 117 811.563 116.583 811.563 115.75V87.75C811.563 86.9167 811.979 86.5 812.813 86.5H859.563C860.229 86.5 860.563 86.9167 860.563 87.75V129.25C860.563 138.583 858.313 147.083 853.813 154.75C849.479 162.25 843.646 168.25 836.313 172.75C828.979 177.25 820.729 179.5 811.563 179.5ZM880.611 177C879.278 177 878.611 176.417 878.611 175.25L878.361 4.99999C878.361 3.66666 879.028 2.99999 880.361 2.99999H902.861L945.111 101.5L943.861 4.99999C943.861 3.66666 944.611 2.99999 946.111 2.99999H970.861C971.861 2.99999 972.361 3.66666 972.361 4.99999L972.611 175.5C972.611 176.5 972.195 177 971.361 177H949.361L906.111 85L907.861 175C907.861 176.333 907.111 177 905.611 177H880.611ZM995.328 177C994.661 177 994.328 176.583 994.328 175.75L994.578 3.99999C994.578 3.33332 994.911 2.99999 995.578 2.99999H1075.83C1076.49 2.99999 1076.83 3.41666 1076.83 4.24999V32.25C1076.83 32.9167 1076.49 33.25 1075.83 33.25H1024.58V72.25H1075.83C1076.49 72.25 1076.83 72.5833 1076.83 73.25L1077.08 101.5C1077.08 102.167 1076.74 102.5 1076.08 102.5H1024.58V146.25H1076.08C1076.74 146.25 1077.08 146.667 1077.08 147.5V176C1077.08 176.667 1076.74 177 1076.08 177H995.328ZM1100.31 177C1099.64 177 1099.31 176.583 1099.31 175.75L1099.81 3.99999C1099.81 3.33332 1100.14 2.99999 1100.81 2.99999H1151.31C1160.31 2.99999 1168.56 5.24999 1176.06 9.74999C1183.73 14.0833 1189.81 20 1194.31 27.5C1198.81 34.8333 1201.06 43.1667 1201.06 52.5C1201.06 58.6667 1200.14 64.25 1198.31 69.25C1196.48 74.0833 1194.31 78.25 1191.81 81.75C1189.31 85.0833 1187.06 87.5833 1185.06 89.25C1194.06 99.25 1198.56 111 1198.56 124.5L1198.81 175.75C1198.81 176.583 1198.39 177 1197.56 177H1169.31C1168.64 177 1168.31 176.75 1168.31 176.25V124.5C1168.31 118.5 1166.14 113.333 1161.81 109C1157.64 104.5 1152.48 102.25 1146.31 102.25H1129.81L1129.56 175.75C1129.56 176.583 1129.23 177 1128.56 177H1100.31ZM1129.81 72.25H1151.31C1156.48 72.25 1161.06 70.3333 1165.06 66.5C1169.06 62.6667 1171.06 58 1171.06 52.5C1171.06 47.1667 1169.06 42.5833 1165.06 38.75C1161.23 34.9167 1156.64 33 1151.31 33H1129.81V72.25Z" fill="#F0D4B4"/>
</svg>
