<svg width="1912" height="1019" viewBox="0 0 1912 1019" fill="none" xmlns="http://www.w3.org/2000/svg">
<g clip-path="url(#clip0_113_3930)">
<rect width="1912" height="1019" fill="white"/>
<path d="M61.1236 818.507C108.851 895.013 158 955 224.478 1037.02C282.813 1109 462.5 1249 589.566 1267.04C802.845 1297.32 1687.4 1154.55 1807 1109C1996 1037.02 2238.37 641.494 2130.12 472.981C2021.87 304.468 1687.29 -79.0616 1370.91 -234.573C1054.54 -390.085 380.5 -120.5 312 -91.5002C185.757 -38.0546 -93.9998 165.5 -129.5 321C-162.619 466.072 19.1223 751.18 61.1236 818.507Z" stroke="#98AEFF" stroke-width="2"/>
<path d="M12.6374 864.266C64.0441 946.691 116.983 1011.32 188.586 1099.69C251.418 1177.23 444.958 1328.06 581.82 1347.5C811.541 1380.13 1764.29 1226.3 1893.11 1177.23C2096.68 1099.69 2357.73 673.559 2241.14 492.009C2124.55 310.46 1764.17 -102.74 1423.4 -270.283C1082.64 -437.826 356.636 -147.385 282.855 -116.141C146.88 -58.5611 -154.445 160.741 -192.682 328.271C-228.355 484.566 -32.602 791.73 12.6374 864.266Z" stroke="#3C59C5" stroke-opacity="0.1" stroke-width="2"/>
</g>
<defs>
<clipPath id="clip0_113_3930">
<rect width="1912" height="1019" fill="white"/>
</clipPath>
</defs>
</svg>
