<svg width="1920" height="1019" viewBox="0 0 1920 1019" fill="none" xmlns="http://www.w3.org/2000/svg">
<g clip-path="url(#clip0_108_2332)">
<rect width="1920" height="1019" fill="white"/>
<path opacity="0.035" d="M309.1 454.7C289.3 454.7 272.3 451.3 258.1 444.5C243.9 437.5 232.3 428.4 223.3 417.2C214.3 405.8 207.6 393.6 203.2 380.6C199 367.4 196.9 354.6 196.9 342.2V335.6C196.9 322 199.1 308.6 203.5 295.4C207.9 282 214.6 269.9 223.6 259.1C232.8 248.3 244.3 239.7 258.1 233.3C272.1 226.7 288.6 223.4 307.6 223.4C327.4 223.4 344.9 227.1 360.1 234.5C375.3 241.9 387.4 252.2 396.4 265.4C405.6 278.4 411 293.7 412.6 311.3H363.1C361.7 302.5 358.5 295 353.5 288.8C348.5 282.6 342 277.8 334 274.4C326.2 271 317.4 269.3 307.6 269.3C297.8 269.3 289.1 271 281.5 274.4C273.9 277.8 267.5 282.6 262.3 288.8C257.3 295 253.4 302.4 250.6 311C248 319.4 246.7 328.8 246.7 339.2C246.7 349.4 248 358.8 250.6 367.4C253.4 375.8 257.4 383.2 262.6 389.6C268 395.8 274.6 400.6 282.4 404C290.2 407.2 299.1 408.8 309.1 408.8C324.3 408.8 337.1 405.1 347.5 397.7C358.1 390.3 364.5 380.1 366.7 367.1H415.9C414.1 383.1 408.7 397.8 399.7 411.2C390.9 424.4 378.8 435 363.4 443C348.2 450.8 330.1 454.7 309.1 454.7ZM559.541 454.7C539.741 454.7 522.441 451.3 507.641 444.5C493.041 437.5 480.941 428.4 471.341 417.2C461.741 405.8 454.541 393.5 449.741 380.3C445.141 367.1 442.841 354.4 442.841 342.2V335.6C442.841 322 445.241 308.6 450.041 295.4C455.041 282 462.441 269.9 472.241 259.1C482.041 248.3 494.241 239.7 508.841 233.3C523.441 226.7 540.341 223.4 559.541 223.4C578.741 223.4 595.641 226.7 610.241 233.3C624.841 239.7 637.041 248.3 646.841 259.1C656.641 269.9 664.041 282 669.041 295.4C674.041 308.6 676.541 322 676.541 335.6V342.2C676.541 354.4 674.141 367.1 669.341 380.3C664.541 393.5 657.341 405.8 647.741 417.2C638.141 428.4 625.941 437.5 611.141 444.5C596.541 451.3 579.341 454.7 559.541 454.7ZM559.541 408.8C569.941 408.8 579.241 407 587.441 403.4C595.841 399.8 602.941 394.8 608.741 388.4C614.741 382 619.241 374.6 622.241 366.2C625.241 357.8 626.741 348.8 626.741 339.2C626.741 329 625.141 319.7 621.941 311.3C618.941 302.7 614.441 295.3 608.441 289.1C602.641 282.7 595.641 277.8 587.441 274.4C579.241 271 569.941 269.3 559.541 269.3C549.141 269.3 539.841 271 531.641 274.4C523.441 277.8 516.341 282.7 510.341 289.1C504.541 295.3 500.141 302.7 497.141 311.3C494.141 319.7 492.641 329 492.641 339.2C492.641 348.8 494.141 357.8 497.141 366.2C500.141 374.6 504.541 382 510.341 388.4C516.341 394.8 523.441 399.8 531.641 403.4C539.841 407 549.141 408.8 559.541 408.8ZM719.819 449V230H800.519L883.019 409.1H893.219L887.219 414.5V230H933.419V449H852.119L769.619 269.9H759.419L765.419 264.5V449H719.819ZM1032.11 449V266.9H1081.31V449H1032.11ZM970.612 272.9V230H1143.11V272.9H970.612ZM1140.03 449L1212.33 230H1291.83L1366.83 449H1315.83L1255.23 263.9L1270.83 270.2H1232.13L1248.33 263.9L1189.23 449H1140.03ZM1194.93 394.7L1209.93 353.9H1295.73L1311.03 394.7H1194.93ZM1492.52 454.7C1472.72 454.7 1455.72 451.3 1441.52 444.5C1427.32 437.5 1415.72 428.4 1406.72 417.2C1397.72 405.8 1391.02 393.6 1386.62 380.6C1382.42 367.4 1380.32 354.6 1380.32 342.2V335.6C1380.32 322 1382.52 308.6 1386.92 295.4C1391.32 282 1398.02 269.9 1407.02 259.1C1416.22 248.3 1427.72 239.7 1441.52 233.3C1455.52 226.7 1472.02 223.4 1491.02 223.4C1510.82 223.4 1528.32 227.1 1543.52 234.5C1558.72 241.9 1570.82 252.2 1579.82 265.4C1589.02 278.4 1594.42 293.7 1596.02 311.3H1546.52C1545.12 302.5 1541.92 295 1536.92 288.8C1531.92 282.6 1525.42 277.8 1517.42 274.4C1509.62 271 1500.82 269.3 1491.02 269.3C1481.22 269.3 1472.52 271 1464.92 274.4C1457.32 277.8 1450.92 282.6 1445.72 288.8C1440.72 295 1436.82 302.4 1434.02 311C1431.42 319.4 1430.12 328.8 1430.12 339.2C1430.12 349.4 1431.42 358.8 1434.02 367.4C1436.82 375.8 1440.82 383.2 1446.02 389.6C1451.42 395.8 1458.02 400.6 1465.82 404C1473.62 407.2 1482.52 408.8 1492.52 408.8C1507.72 408.8 1520.52 405.1 1530.92 397.7C1541.52 390.3 1547.92 380.1 1550.12 367.1H1599.32C1597.52 383.1 1592.12 397.8 1583.12 411.2C1574.32 424.4 1562.22 435 1546.82 443C1531.62 450.8 1513.52 454.7 1492.52 454.7ZM1679.41 449V266.9H1728.61V449H1679.41ZM1617.91 272.9V230H1790.41V272.9H1617.91Z" fill="url(#paint0_linear_108_2332)"/>
<path d="M61.1236 818.507C108.851 895.013 158 955 224.478 1037.02C282.813 1109 462.5 1249 589.566 1267.04C802.845 1297.32 1687.4 1154.55 1807 1109C1996 1037.02 2238.37 641.494 2130.12 472.981C2021.87 304.468 1687.29 -79.0616 1370.91 -234.573C1054.54 -390.085 380.5 -120.5 312 -91.5002C185.757 -38.0546 -93.9998 165.5 -129.5 321C-162.619 466.072 19.1223 751.18 61.1236 818.507Z" stroke="#98AEFF" stroke-width="2"/>
<path d="M12.6374 864.266C64.0441 946.691 116.983 1011.32 188.586 1099.69C251.418 1177.23 444.958 1328.06 581.82 1347.5C811.541 1380.13 1764.29 1226.3 1893.11 1177.23C2096.68 1099.69 2357.73 673.559 2241.14 492.009C2124.55 310.46 1764.17 -102.74 1423.4 -270.283C1082.64 -437.826 356.636 -147.385 282.855 -116.141C146.88 -58.5611 -154.445 160.741 -192.682 328.271C-228.355 484.566 -32.602 791.73 12.6374 864.266Z" stroke="#3C59C5" stroke-opacity="0.1" stroke-width="2"/>
<path opacity="0.035" d="M708.6 805V586H776.4L826.5 709H832.2L881.7 586H950.7V805H902.1V618.1L909 618.7L851.1 760.6H804.3L746.1 618.7L753.6 618.1V805H708.6ZM1005.81 805V586H1053.81V805H1005.81ZM1047.81 805V764.2H1143.51V805H1047.81ZM1047.81 714.1V673.3H1136.61V714.1H1047.81ZM1047.81 626.8V586H1141.41V626.8H1047.81Z" fill="url(#paint1_linear_108_2332)"/>
</g>
<defs>
<linearGradient id="paint0_linear_108_2332" x1="184" y1="281.763" x2="1521.77" y2="271.784" gradientUnits="userSpaceOnUse">
<stop stop-color="#3A59C5"/>
<stop offset="1" stop-color="#8D43EA"/>
</linearGradient>
<linearGradient id="paint1_linear_108_2332" x1="684" y1="631.018" x2="1089.9" y2="630.059" gradientUnits="userSpaceOnUse">
<stop stop-color="#3A59C5"/>
<stop offset="1" stop-color="#8D43EA"/>
</linearGradient>
<clipPath id="clip0_108_2332">
<rect width="1920" height="1019" fill="white"/>
</clipPath>
</defs>
</svg>
