<svg width="48" height="48" viewBox="0 0 48 48" fill="none" xmlns="http://www.w3.org/2000/svg">
<g clip-path="url(#clip0_554_111)">
<path d="M47.5265 19.8472C47.3965 19.7452 46.1815 18.8402 43.6185 18.8402C42.9415 18.8432 42.2665 18.9002 41.5995 19.0112C41.1035 15.6572 38.3805 14.0812 38.2545 14.0082L37.5665 13.6162L37.1135 14.2602C36.5465 15.1262 36.0455 16.0202 35.8025 17.0232C35.3435 18.9382 35.6225 20.7362 36.6085 22.2732C35.4165 22.9282 33.3855 22.9862 32.9995 23.0002H1.58152C0.755519 23.0012 0.0855186 23.6602 0.0805186 24.4742C0.0435186 27.2072 0.433519 30.0272 1.38652 32.5932C2.47552 35.4112 4.09652 37.4872 6.20452 38.7572C8.56652 40.1842 12.4045 41.0002 16.7555 41.0002C18.7205 41.0062 20.6825 40.8312 22.6145 40.4762C25.3005 39.9892 27.8855 39.0632 30.2615 37.7362C32.2195 36.6172 33.9815 35.1942 35.4805 33.5212C37.9855 30.7232 39.4775 27.6082 40.5875 24.8392C40.7365 24.8392 40.8855 24.8392 41.0295 24.8392C43.7725 24.8392 45.4585 23.7562 46.3885 22.8492C47.0065 22.2702 47.4895 21.5652 47.8025 20.7842L47.9995 20.2162L47.5265 19.8472Z" fill="white"/>
<path d="M8 22H5C4.448 22 4 21.552 4 21V18C4 17.448 4.448 17 5 17H8C8.552 17 9 17.448 9 18V21C9 21.552 8.552 22 8 22Z" fill="white"/>
<path d="M14 22H11C10.448 22 10 21.552 10 21V18C10 17.448 10.448 17 11 17H14C14.552 17 15 17.448 15 18V21C15 21.552 14.552 22 14 22Z" fill="white"/>
<path d="M20 22H17C16.448 22 16 21.552 16 21V18C16 17.448 16.448 17 17 17H20C20.552 17 21 17.448 21 18V21C21 21.552 20.552 22 20 22Z" fill="white"/>
<path d="M26 22H23C22.448 22 22 21.552 22 21V18C22 17.448 22.448 17 23 17H26C26.552 17 27 17.448 27 18V21C27 21.552 26.552 22 26 22Z" fill="white"/>
<path d="M14 16H11C10.448 16 10 15.552 10 15V12C10 11.448 10.448 11 11 11H14C14.552 11 15 11.448 15 12V15C15 15.552 14.552 16 14 16Z" fill="white"/>
<path d="M20 16H17C16.448 16 16 15.552 16 15V12C16 11.448 16.448 11 17 11H20C20.552 11 21 11.448 21 12V15C21 15.552 20.552 16 20 16Z" fill="white"/>
<path d="M26 16H23C22.448 16 22 15.552 22 15V12C22 11.448 22.448 11 23 11H26C26.552 11 27 11.448 27 12V15C27 15.552 26.552 16 26 16Z" fill="white"/>
<path d="M26 10H23C22.448 10 22 9.552 22 9V6C22 5.448 22.448 5 23 5H26C26.552 5 27 5.448 27 6V9C27 9.552 26.552 10 26 10Z" fill="white"/>
<path d="M32 22H29C28.448 22 28 21.552 28 21V18C28 17.448 28.448 17 29 17H32C32.552 17 33 17.448 33 18V21C33 21.552 32.552 22 32 22Z" fill="white"/>
</g>
<defs>
<clipPath id="clip0_554_111">
<rect width="48" height="48" fill="white"/>
</clipPath>
</defs>
</svg>
