<svg width="42" height="42" viewBox="0 0 42 42" fill="none" xmlns="http://www.w3.org/2000/svg">
<path d="M21.0002 1.67969V13.4397H15.1202C11.882 13.4397 9.24023 10.7979 9.24023 7.55969C9.24023 4.32149 11.882 1.67969 15.1202 1.67969H21.0002ZM21.0002 15.1197V26.8797H15.1202C11.882 26.8797 9.24023 24.2379 9.24023 20.9997C9.24023 17.7615 11.882 15.1197 15.1202 15.1197H21.0002ZM21.0002 28.5597V34.4397C21.0002 37.6779 18.3584 40.3197 15.1202 40.3197C11.882 40.3197 9.24023 37.6779 9.24023 34.4397C9.24023 31.2015 11.882 28.5597 15.1202 28.5597H21.0002ZM34.4402 7.55969C34.4402 10.7979 31.7984 13.4397 28.5602 13.4397H22.6802V1.67969H28.5602C31.7984 1.67969 34.4402 4.32149 34.4402 7.55969ZM28.5602 15.1197C27.0008 15.1197 25.5052 15.7392 24.4024 16.8419C23.2997 17.9446 22.6802 19.4402 22.6802 20.9997C22.6802 22.5592 23.2997 24.0548 24.4024 25.1575C25.5052 26.2602 27.0008 26.8797 28.5602 26.8797C30.1197 26.8797 31.6153 26.2602 32.718 25.1575C33.8207 24.0548 34.4402 22.5592 34.4402 20.9997C34.4402 19.4402 33.8207 17.9446 32.718 16.8419C31.6153 15.7392 30.1197 15.1197 28.5602 15.1197Z" fill="white"/>
</svg>
