<svg width="46" height="46" viewBox="0 0 46 46" fill="none" xmlns="http://www.w3.org/2000/svg">
<g clip-path="url(#clip0_554_122)">
<path d="M2.40022 13.4589C2.01819 13.4909 1.68468 13.7981 2.16124 14.3124C3.07664 14.8294 1.25844 15.2099 1.78928 15.5558C1.95856 15.9201 1.77573 16.326 1.28077 16.3914C0.555808 16.4539 0.62452 17.4439 1.33108 16.925C2.11952 16.6748 1.46737 17.024 1.09569 17.0957C0.26125 17.3386 -0.307354 18.1722 0.177486 18.9339C0.641167 19.9827 0.76472 21.1527 1.12444 22.2438C1.71968 23.9219 2.58937 25.5186 3.71913 26.8977C4.25549 27.6797 5.03963 28.2353 5.77655 28.8149C6.50151 29.2851 7.30881 29.7554 8.13405 29.9955C9.59961 30.5319 11.1724 30.582 12.7125 30.7035C13.6509 30.7016 14.5928 30.6355 15.5192 30.4699C16.3527 30.56 16.9525 29.8474 17.706 30.2237C18.1623 29.8189 18.8273 29.9952 19.2837 29.7008C19.6213 28.5526 18.1241 29.4732 17.6503 28.912C17.1351 29.5173 16.7027 28.8456 16.078 29.0342C15.0145 29.0875 16.1586 28.5577 16.1319 28.071C15.568 27.6386 14.9311 28.6647 14.5705 28.9407C13.6799 28.7797 12.7981 28.5266 11.9812 28.1411C11.0501 27.6563 10.1363 27.0795 9.46194 26.2616C8.7563 25.4262 7.97628 24.5815 7.65428 23.5088C6.97348 21.7378 7.01777 19.8203 6.84389 17.96C6.90829 16.7005 8.23827 18.0956 8.81327 17.6402C8.61639 16.987 7.56724 16.7802 6.98764 16.5189C6.42828 16.4803 6.22445 15.979 5.62921 15.9385C5.65773 15.2393 4.5355 15.6241 4.12702 15.1264C4.52906 14.0886 2.79506 15.151 2.9303 14.2531C3.21274 13.6693 2.78225 13.4268 2.40022 13.4589ZM2.40561 13.5469C2.49629 13.5243 2.60058 13.5425 2.70569 13.626C3.20433 14.2976 1.78855 13.5489 2.27983 14.1902C1.98106 14.0501 2.13358 13.6148 2.40561 13.5469ZM38.5605 13.8793C38.4989 13.8793 38.3375 13.9634 38.0772 14.1345C37.7552 14.3424 37.4153 14.5063 37.0601 14.625C36.8375 14.7014 36.7277 14.8078 36.7277 14.9449C36.7277 15.0396 36.8049 15.1134 36.9613 15.1659C37.2934 15.2754 37.5114 15.4264 37.6154 15.6205C37.6917 15.7723 37.7304 16.0417 37.7304 16.4309V22.6463C37.7304 23.1909 37.599 23.4964 37.3387 23.5627C37.0489 23.6381 36.9038 23.7497 36.9038 23.8969C36.9038 23.9585 36.909 24.0075 36.9182 24.0406C36.9412 24.1354 37.0957 24.1706 37.38 24.1467C38.5088 24.0565 39.3104 24.0343 39.7842 24.0766C39.936 24.0913 40.0286 24.0844 40.0645 24.0586C40.1004 24.0329 40.1184 23.9651 40.1184 23.8556C40.1184 23.7176 40.0068 23.6343 39.7842 23.6058C39.4236 23.5681 39.1936 23.5157 39.0942 23.4495C38.9525 23.3547 38.8752 23.1565 38.866 22.8529C38.8568 22.5493 38.8534 22.3167 38.8534 22.1557C38.8534 21.9285 38.965 21.7525 39.1876 21.6292C39.3864 21.4866 39.5254 21.4154 39.6063 21.4154C39.6726 21.4154 39.7275 21.455 39.7698 21.5304C40.2915 22.4127 40.9274 23.2563 41.6763 24.0622C41.7895 24.1809 41.98 24.2135 42.2459 24.161C42.7823 24.1187 43.2147 24.0956 43.5469 24.091C43.7695 24.0818 43.8811 23.9924 43.8811 23.8268C43.8811 23.6943 43.8545 23.6128 43.802 23.5824C43.7496 23.5521 43.6158 23.5357 43.3977 23.5357C43.1042 23.5357 42.7875 23.3916 42.4508 23.1027C41.9245 22.6436 41.365 21.9621 40.7725 21.0614C40.6115 20.8103 40.5317 20.6515 40.5317 20.5853C40.5317 20.5429 40.5497 20.5078 40.5874 20.4792C41.0989 19.9677 41.5813 19.609 42.0321 19.4047C42.355 19.2529 42.6983 19.1687 43.0635 19.1549C43.2963 19.1411 43.4121 19.0536 43.4121 18.8926C43.4121 18.7215 43.3383 18.6331 43.1911 18.6285C42.7412 18.6285 42.288 18.6259 41.8326 18.6213C41.1785 18.6167 40.6808 18.5918 40.3394 18.544C40.1876 18.5201 40.1035 18.5922 40.0897 18.7578C40.0805 18.9234 40.1595 19.0152 40.3251 19.0346C40.7087 19.087 40.9001 19.1762 40.9001 19.3041C40.9001 19.3749 40.8434 19.4711 40.7294 19.5898C40.1553 20.0875 39.673 20.4891 39.2793 20.7973C39.1321 20.9206 39.0231 20.9824 38.9523 20.9824C38.886 20.9824 38.8516 20.9206 38.8516 20.7973L38.839 16.3464C38.839 15.7632 38.8416 15.298 38.8462 14.9521C38.8508 14.4497 38.8534 14.2146 38.8534 14.2477C38.8534 14.0011 38.7547 13.8793 38.5605 13.8793ZM22.3258 13.9296C22.2503 13.9296 22.0692 14.0137 21.7849 14.1848C21.439 14.4028 21.1043 14.5642 20.7823 14.6681C20.5688 14.739 20.4624 14.8472 20.4624 14.9898C20.4624 15.0846 20.5362 15.1566 20.6834 15.209C20.9631 15.3084 21.1579 15.4492 21.2692 15.6295C21.3805 15.8098 21.4381 16.0922 21.4381 16.4758V22.9104C21.4381 23.2987 21.3085 23.533 21.05 23.6112C20.7915 23.6894 20.6637 23.7846 20.6637 23.8987C20.6637 24.0266 20.6851 24.1056 20.7301 24.1341C20.7752 24.1617 20.8954 24.166 21.0895 24.1467C22.0574 24.0657 22.8666 24.0581 23.5207 24.1197C23.7341 24.1427 23.8405 24.0595 23.8405 23.8699C23.8405 23.7329 23.735 23.6522 23.5207 23.6292C23.1748 23.5868 22.9302 23.4993 22.7876 23.3686C22.645 23.238 22.5737 23.0286 22.5737 22.7397L22.5468 16.3896C22.5413 15.9351 22.5456 15.4716 22.5594 15.0024C22.5787 14.5092 22.5881 14.2715 22.5881 14.2908C22.5881 14.0488 22.5015 13.9296 22.3258 13.9296ZM12.8688 14.6771C12.8164 14.6863 12.7795 14.7361 12.7556 14.8263C12.7087 14.9735 12.7799 15.0893 12.9694 15.1749C13.2721 15.3129 13.4798 15.4665 13.5912 15.6349C13.7025 15.8032 13.7583 16.0444 13.7583 16.3572V22.445C13.7583 23.2086 13.5257 23.6163 13.0611 23.6687C12.8578 23.688 12.7556 23.7574 12.7556 23.8807C12.7556 24.0758 12.8568 24.159 13.0611 24.1305C13.7906 24.0311 14.7175 24.0278 15.8408 24.1179C16.2291 24.151 16.4376 24.0892 16.4662 23.9328C16.4947 23.7534 16.3925 23.6513 16.1607 23.6274C15.7062 23.5703 15.4101 23.5059 15.273 23.4351C15.0973 23.3495 15.0089 23.1873 15.0089 22.9499V19.7515C15.0089 19.6908 15.0509 19.6581 15.1365 19.6581C15.89 19.6581 16.4359 19.6787 16.7698 19.7192C17.1038 19.7596 17.333 20.0772 17.4562 20.6697C17.4903 20.8261 17.5717 20.8955 17.7042 20.8817C17.8652 20.8725 17.9442 20.8074 17.9396 20.6841C17.8918 19.6509 17.9347 18.8116 18.0672 18.1667C18.0911 18.0526 18.0215 17.9788 17.8605 17.9456C17.671 17.9033 17.5612 17.9771 17.5281 18.1667C17.4757 18.5135 17.4225 18.7271 17.3682 18.8099C17.3139 18.8927 17.2065 18.9434 17.0501 18.9627C16.2488 19.0151 15.6378 19.0443 15.2155 19.0489C15.0785 19.0535 15.0107 19.0021 15.0107 18.8926V15.6708C15.0107 15.5613 15.0329 15.4901 15.0808 15.457C15.1571 15.4045 15.3194 15.3797 15.5659 15.3797C16.6423 15.3797 17.3133 15.4003 17.5838 15.4426C17.835 15.4757 18.0376 15.5745 18.1894 15.7355C18.3182 15.8726 18.4529 16.1137 18.5955 16.4596C18.647 16.5875 18.7397 16.6519 18.8722 16.6519C19.0047 16.6519 19.0698 16.5781 19.0698 16.4309C19.0882 15.682 19.138 15.1491 19.219 14.8317C19.2236 14.8123 19.2261 14.7945 19.228 14.7706C19.228 14.6997 19.0692 14.6722 18.7518 14.6915C17.7987 14.7485 16.6675 14.7778 15.3593 14.7778C14.2498 14.7778 13.5452 14.7537 13.2462 14.7059C13.0419 14.6728 12.9167 14.6633 12.8688 14.6771ZM3.48733 14.846C3.61429 14.873 3.65812 14.9487 3.30944 14.9952L3.16928 14.988C3.15088 14.8413 3.36037 14.8191 3.48733 14.846ZM3.34717 15.3366C3.59925 15.447 4.11605 15.4981 4.20069 15.775C3.68457 15.5064 4.30338 16.0987 3.87006 16.0877C3.63638 16.0904 3.20365 15.5887 3.34717 15.3366ZM3.2178 15.7535C3.802 16.1978 2.89225 15.7532 2.52241 16.032C1.94005 16.0909 3.16076 15.7038 3.2178 15.7535ZM4.76131 16.0194C4.83586 16.04 4.83585 16.1105 4.7128 16.2584C5.16544 16.7993 4.81436 16.6169 4.50616 16.2332C4.77664 16.42 4.56801 17.2264 4.15217 16.6717C3.85777 16.1233 3.67139 16.494 3.98327 16.8693C3.67691 16.2925 2.79007 16.5389 2.14147 16.7597C1.72287 16.7137 3.22926 16.4021 3.3921 16.3285C3.64395 16.3333 4.53767 15.9576 4.76131 16.0194ZM6.57616 16.6303C6.76118 16.628 6.94366 16.6349 7.12421 16.6501C7.41401 16.9877 6.90483 17.5593 6.37491 17.5971C5.73091 17.8381 5.07541 17.8971 4.47741 17.9762C3.71013 17.8796 3.15916 18.5698 2.36428 18.6572C2.57588 18.2653 2.19045 18.522 1.78749 18.5027C1.99265 19.2939 0.367927 18.2924 1.32749 18.102C0.608046 17.8462 0.597984 18.6022 0.673424 19.0328H0.624908C-0.0338117 18.1845 0.69881 17.8386 1.53233 17.73C1.37409 18.121 1.75993 18.2468 2.13069 18.3176C2.73145 18.152 1.73551 18.0455 2.18999 17.8881C2.43931 17.8421 1.39514 17.6384 2.26546 17.5216C3.15786 17.3716 3.96073 17.021 4.84577 16.837C5.44469 16.7183 6.0211 16.6375 6.57616 16.6303ZM6.3785 16.8316C6.29973 16.8071 6.11656 16.8564 6.02272 17.1029C6.0908 17.2584 6.12457 17.0574 6.11077 17.0041C6.43231 16.9549 6.45728 16.8561 6.3785 16.8316ZM4.52233 17.1622C4.26485 17.1504 3.84301 17.2061 3.69397 17.385C3.88349 17.4715 4.09189 17.1457 4.36421 17.3509C4.87251 17.2543 4.77982 17.1741 4.52233 17.1622ZM8.19874 17.2089C8.32744 17.1879 8.72594 17.3367 8.58506 17.5863C8.48846 17.6139 8.50497 17.4682 8.43413 17.4443C8.14226 17.2956 8.12152 17.2215 8.19874 17.2089ZM3.20702 17.5539C3.13973 17.5539 3.08588 17.5843 3.07944 17.6671L3.20881 17.7857C3.72562 17.8278 3.40889 17.5541 3.20702 17.5539ZM2.91772 17.7911C2.82178 17.7771 2.73289 17.8302 2.68413 18.0103C2.77429 17.9883 2.91749 18.0403 3.00397 18.1056C3.54907 18.4782 3.20554 17.8332 2.91772 17.7911ZM6.42342 17.8792C6.90185 17.7855 6.76226 19.0239 6.6085 19.4047C6.8983 19.2069 6.8425 20.324 6.74866 20.7398C6.9069 20.5273 6.97202 21.0837 6.79538 21.4765C6.8101 21.4121 7.17818 21.356 6.90678 21.8215C6.69978 21.3652 6.60987 22.7498 6.74327 22.1288C7.10851 21.5418 7.01289 22.0975 7.12421 22.357C7.19597 22.8952 7.43606 23.3916 7.50874 23.8681C7.84638 24.2085 7.36494 23.9778 7.36678 24.4378C7.47626 24.3044 7.92298 24.6251 7.92022 25.1026C7.95702 24.3454 8.00052 24.9255 8.36944 25.1224C8.67764 25.6192 8.9085 26.084 9.3685 26.4934C9.7273 26.9083 9.34599 26.6168 9.50147 26.8707C9.88235 27.546 10.7647 27.9375 11.5283 28.1142C11.8632 28.5502 12.3659 28.984 13.0467 28.7862C12.4708 29.1413 14.6687 29.2379 13.9254 29.4385C13.539 29.6482 13.1723 29.3033 12.7951 29.3217C12.2707 29.1413 11.4418 28.5887 10.8797 28.9641C10.1023 29.4508 11.2781 28.4214 10.6479 28.8814C10.0094 29.6478 10.2142 28.4046 9.59131 28.7772C9.55543 28.6585 9.03768 28.6258 9.4296 28.416C9.07816 28.394 9.29725 28.3714 9.42421 28.0908C9.27333 28.0595 8.43466 28.0892 8.1053 27.8141C7.71706 27.309 8.17308 27.5141 8.57788 27.5877C7.92836 27.7018 8.80129 28.075 9.23553 27.868C9.04049 27.7852 8.81728 27.3636 8.30116 26.9947C7.57988 26.5605 6.98631 26.3533 6.23835 26.0064C5.42875 25.5262 6.41954 25.8361 6.70014 26.0891C7.5079 26.4451 7.18999 25.5894 6.72171 25.3667C6.20835 25.3879 6.07638 24.7982 5.66514 24.8313C6.31466 24.9352 6.76561 24.6633 6.04249 24.0101C5.35525 23.2079 6.32948 24.6154 5.92928 24.4342C5.74712 24.194 5.88361 23.8486 5.30217 23.7244C5.29573 23.9461 5.22249 24.2897 5.09553 23.8232C4.93361 23.8508 4.74825 24.0285 4.61577 23.5483C4.74089 23.0027 4.07553 22.8782 3.97249 22.5295C4.54749 22.8966 4.8077 22.6072 4.40014 22.206C4.11954 21.7157 4.08037 22.1002 3.92397 22.1683C3.36001 22.7442 3.87234 21.1748 3.6221 21.6274C3.37002 21.6201 3.51507 21.9049 3.51967 22.2581C2.69535 22.0539 3.71983 22.6919 3.95811 23.0434C3.58183 22.6496 3.64564 23.3386 3.331 23.011C3.22428 22.7212 3.2094 22.2636 2.68592 22.1827C3.28116 21.9766 2.33188 21.5579 2.411 21.5358C2.7514 21.2258 2.7949 20.7996 3.20522 21.4657C2.68542 21.4234 3.19054 22.3237 3.31842 22.0551C3.29818 21.5942 3.5309 21.1104 2.74522 20.8979C2.5143 21.2089 2.11627 20.2887 2.57811 20.4828C2.51739 19.872 3.29443 20.2321 3.24475 19.9671C3.64587 19.7914 2.75916 19.2241 3.23756 18.9968C3.60372 19.2195 4.55347 18.6465 3.91499 18.5674C4.31427 18.5637 4.63454 18.7386 4.67686 18.3338C4.99978 18.4037 5.87332 18.6819 5.07936 18.2439C5.33328 18.1179 5.86993 18.0113 6.17905 18.0067C6.27438 17.9326 6.35508 17.8925 6.42342 17.8792ZM33.691 18.3931C33.0801 18.3931 32.5918 18.5295 32.2265 18.8046C31.8328 19.0898 31.6372 19.487 31.6372 19.9995C31.6372 20.4162 31.7634 20.7484 32.0145 20.9949C32.2464 21.2268 32.7081 21.4971 33.3999 21.8053C33.8783 22.0142 34.201 22.197 34.3666 22.3534C34.5184 22.4914 34.5948 22.6613 34.5948 22.8655C34.5948 23.3301 34.261 23.5627 33.5922 23.5627C32.8001 23.5627 32.2259 23.2529 31.8708 22.6319C31.7898 22.4948 31.692 22.433 31.5779 22.4468C31.4638 22.456 31.4072 22.5856 31.4072 22.8367C31.4072 23.42 31.427 23.7462 31.4647 23.8124C31.5263 23.8833 31.7495 23.9605 32.1331 24.046C32.5784 24.1408 33.0247 24.1898 33.47 24.1898C34.1388 24.1898 34.6666 24.0404 35.053 23.7442C35.4394 23.4479 35.6316 23.0498 35.6316 22.5474C35.6316 22.093 35.49 21.73 35.2076 21.4567C34.9895 21.2488 34.5767 21.0127 33.9695 20.7524C33.3908 20.5012 33.0244 20.3158 32.868 20.1971C32.6923 20.0591 32.6039 19.8765 32.6039 19.6437C32.6039 19.2269 32.9283 19.0184 33.5778 19.0184C34.1519 19.0184 34.6265 19.323 35.0009 19.9348C35.0534 20.0204 35.1572 20.047 35.3136 20.0139C35.4599 19.9761 35.5268 19.9264 35.513 19.8647C35.3944 19.3624 35.3154 18.9788 35.2776 18.7129C35.2629 18.6228 35.0853 18.5464 34.744 18.4847C34.4266 18.424 34.0746 18.3931 33.691 18.3931ZM27.7721 18.4218C27.2127 18.4218 26.6309 18.5824 26.0237 18.8998C25.4451 19.2034 25.1558 19.4686 25.1558 19.6958C25.1558 20.0601 25.3507 20.2241 25.7398 20.1864C26.0812 20.1578 26.3429 19.9604 26.5251 19.5952C26.7072 19.2299 26.9012 19.0471 27.1055 19.0471C27.8212 19.0471 28.1636 19.4377 28.1351 20.2151L28.1225 20.6697C28.1179 20.8684 27.9539 20.9998 27.6319 21.0614C25.7542 21.4175 24.8162 22.0044 24.8162 22.8242C24.8162 23.2556 24.9578 23.5972 25.2421 23.8484C25.5025 24.0756 25.8268 24.1898 26.216 24.1898C26.6282 24.1898 27.0393 24.0928 27.4469 23.8987C27.8544 23.7046 28.0802 23.6058 28.1225 23.6058C28.1795 23.6058 28.2782 23.6968 28.4208 23.8771C28.5624 24.0575 28.7264 24.1467 28.9113 24.1467C29.1294 24.1467 29.4203 24.0463 29.7828 23.8448C30.1453 23.6433 30.3273 23.4931 30.3273 23.3938C30.3273 23.2089 30.2577 23.1162 30.1188 23.1153C30.0949 23.1153 30.0109 23.1273 29.8637 23.1512C29.7165 23.1751 29.6178 23.1871 29.5654 23.1871C29.3004 23.1871 29.1691 23.0335 29.1737 22.7253L29.2024 19.7946C29.2116 18.8792 28.7344 18.4218 27.7721 18.4218ZM6.37131 18.6392C6.25035 18.6739 6.06122 19.3169 6.19163 19.5467C6.47867 20.0039 6.76588 18.4229 6.52944 18.9537C6.40248 19.6299 6.27269 19.3473 6.45577 18.8441C6.44473 18.6824 6.41164 18.6277 6.37131 18.6392ZM2.33194 19.2376C2.37767 19.2355 2.45797 19.2392 2.58171 19.252C3.22019 19.2299 3.01518 19.6063 2.65178 19.6311C2.6435 19.655 2.31889 19.5532 2.45413 19.464C3.32997 19.5751 2.01185 19.252 2.33194 19.2376ZM3.94014 19.4604C3.99339 19.5798 4.08369 19.8044 4.01561 19.9042C4.19501 20.0818 4.80789 20.3978 4.31569 19.9635C4.62941 19.901 4.27425 19.8017 4.08749 19.6527C3.87083 19.3275 3.8869 19.341 3.94014 19.4604ZM1.85756 19.4766C2.00246 19.471 2.1512 19.5453 1.87014 19.7174C1.5716 19.5679 1.71266 19.4822 1.85756 19.4766ZM5.94186 19.8953C5.93256 19.882 5.92769 19.8937 5.93827 19.9581C6.0466 20.201 5.96976 19.9349 5.94186 19.8953ZM3.76585 20.1378C3.85049 20.2602 4.07959 20.206 4.18631 20.3247C5.15047 20.724 4.09981 20.0661 3.76585 20.1378ZM3.61491 20.2133C3.56748 20.2241 3.576 20.2871 3.68139 20.4325C3.74763 20.5825 3.90737 20.5952 4.04077 20.6302C5.07531 21.1071 3.82045 20.1666 3.61491 20.2133ZM1.83421 20.2942C1.99141 20.3198 2.18048 20.4046 1.97256 20.4864L1.88811 20.4541C1.55185 20.3009 1.677 20.2685 1.83421 20.2942ZM3.29686 20.4199C3.24975 20.4224 3.29016 20.4931 3.50889 20.6877L3.65085 20.8332C4.36845 21.0299 3.43818 20.4126 3.29686 20.4199ZM3.19983 20.6122C3.16279 20.611 3.49565 20.967 3.34178 20.9608C2.8091 20.5716 3.02657 20.8469 3.32741 21.1459C3.65401 21.6307 3.92386 20.8571 3.3921 20.7596C3.2656 20.6533 3.21218 20.6126 3.19983 20.6122ZM5.4603 21.1189C5.45353 21.1411 5.45235 21.2162 5.46569 21.3795C5.5547 21.4602 5.48061 21.0523 5.4603 21.1189ZM5.93108 21.1603C5.81632 21.1609 5.73015 21.9745 6.01374 22.1449C6.13058 22.4807 6.25532 22.3425 6.29764 21.9617C6.02348 21.9672 6.41049 21.365 6.04249 21.4837C6.01029 21.2493 5.96933 21.16 5.93108 21.1603ZM6.7235 21.1782C6.70292 21.1326 6.6534 21.2324 6.63546 21.5664V21.6616C6.73482 21.4146 6.74409 21.2239 6.7235 21.1782ZM1.35085 21.2052C1.42355 21.1877 1.83799 22.027 1.7821 22.2581C1.52818 22.1698 1.54048 21.7725 1.42272 21.5628C1.34107 21.3123 1.32661 21.211 1.35085 21.2052ZM4.37858 21.2465C4.31142 21.4333 4.52115 22.0457 4.64811 22.2546C4.97195 22.7523 4.82666 21.9824 5.18178 22.4792C4.98674 22.0431 5.2735 22.2805 5.2321 22.0946C5.14194 21.907 4.26864 20.9136 4.66608 21.6634C5.0258 22.5576 4.44022 21.551 4.37858 21.2465ZM1.18014 21.3921C1.27736 21.4547 1.53794 21.8786 1.58624 22.1144C1.99564 22.6075 1.83415 22.8792 2.25827 23.4836C1.71271 23.1395 1.60964 22.3182 1.2628 21.7874C1.121 21.4469 1.12181 21.3545 1.18014 21.3921ZM27.941 21.5035C27.9878 21.507 28.0248 21.5187 28.0542 21.5376C28.114 21.5753 28.1415 21.6525 28.1369 21.7712L28.1225 22.9392C28.1225 23.0864 27.9757 23.2125 27.6823 23.3165C27.4311 23.4067 27.1865 23.4513 26.9491 23.4513C26.3566 23.4513 26.0597 23.1793 26.0597 22.6337C26.0597 22.0927 26.6313 21.7203 27.7739 21.516C27.8378 21.5041 27.8942 21.4999 27.941 21.5035ZM4.19171 22.9374C4.41117 23.0062 4.27853 23.724 4.60858 23.8214C5.3455 24.7828 4.09815 23.8497 3.68139 23.7567C3.73475 23.754 3.31144 23.6364 3.49452 23.595C3.36112 23.4579 3.06256 22.9601 3.74428 23.2931C4.28616 23.5645 4.33163 23.3814 4.07311 22.9499C4.12118 22.9296 4.16035 22.9275 4.19171 22.9374ZM1.70483 23.0775C1.72307 22.9858 2.09832 23.5893 2.16663 23.8412C2.37271 24.4972 3.01771 24.875 3.08303 25.3092C3.79787 25.7214 3.43102 26.3937 4.03178 26.5832C4.29858 26.448 4.32485 27.3928 4.89249 27.196C4.57693 27.3441 5.02534 27.5192 5.18358 27.7943C5.54146 27.7456 6.32583 28.5827 5.54475 28.2939C5.21539 28.2239 4.99048 27.8813 4.75772 27.6578C4.0668 27.2189 3.6184 26.4847 3.23936 25.7818C2.75084 25.0431 2.16277 24.3044 1.82881 23.4405C1.73083 23.2162 1.69875 23.1081 1.70483 23.0775ZM7.19428 23.6328C7.15786 23.6514 7.15596 23.7606 7.26257 23.9993L7.32546 24.1017C7.41228 23.8194 7.25498 23.6017 7.19428 23.6328ZM4.70921 24.4773C4.91253 24.5216 5.21843 24.6308 5.34171 24.6552C5.37575 24.8015 4.64481 24.7787 5.28421 25.0649C4.91161 25.0547 4.79916 25.0267 5.33092 25.3524C5.12208 25.5198 5.75197 25.6528 5.53577 25.904C6.17701 26.4045 5.42001 26.031 5.14585 25.8267C4.98393 25.7145 4.32406 25.4915 4.4271 25.3452C5.20542 25.7537 4.62471 25.3273 4.28155 25.0559C4.90899 25.2095 3.77878 24.5912 4.37678 24.754C4.55434 24.7972 4.10791 24.3876 4.69303 24.6857C4.40507 24.453 4.50589 24.433 4.70921 24.4773ZM8.61202 26.046C8.53185 26.0177 8.6112 26.328 8.78991 26.5149C9.17079 26.9685 8.88106 26.2574 8.74858 26.2041C8.68418 26.1027 8.63874 26.0554 8.61202 26.046ZM5.25186 26.4916C5.46392 26.4939 5.81062 26.5895 6.02452 26.7036C6.96292 26.9125 5.82488 27.1641 5.44952 26.8761L5.29139 26.842C4.96341 26.5816 5.0398 26.4893 5.25186 26.4916ZM6.37311 26.5904C6.45116 26.5738 6.80587 26.7196 6.9571 26.8599C7.40698 26.9207 7.40897 27.1262 6.91217 26.9983C6.82385 26.944 6.68146 26.9471 6.63546 26.833C6.37947 26.6695 6.32628 26.6004 6.37311 26.5904ZM6.97147 26.5976C7.11338 26.5952 7.34575 26.6355 7.41889 26.7431C8.40421 26.9014 7.35655 26.9702 7.06491 26.7108C6.77833 26.645 6.82956 26.6 6.97147 26.5976ZM6.97147 27.1528C7.07799 27.1293 7.7736 27.4165 7.27335 27.3523L7.1278 27.3056C6.96611 27.2041 6.93596 27.1607 6.97147 27.1528ZM10.2867 27.3199C10.3178 27.3309 10.3493 27.3593 10.3712 27.4152C10.1124 27.411 10.1936 27.2872 10.2867 27.3199ZM6.97507 27.5895C7.17719 27.609 7.95478 28.0338 7.26616 27.8392L7.16014 27.7979L7.03975 27.7422C6.90336 27.621 6.90769 27.583 6.97507 27.5895ZM8.64796 28.7089C8.74136 28.6941 9.50844 28.7637 8.85639 28.7574C8.6602 28.7275 8.61682 28.7139 8.64796 28.7089ZM6.6085 28.8221C6.66373 28.8345 6.75126 28.8615 6.87983 28.9084C7.70323 29.4171 8.6525 29.6862 9.53202 30.0782C10.3048 30.1794 11.1197 30.3839 11.8805 30.2201C12.5153 30.5375 13.1737 30.1379 13.8104 30.4249C12.4037 30.6991 10.9565 30.399 9.55538 30.2039C8.67218 30.0926 7.88341 29.7261 7.07749 29.3774C6.96065 29.3222 6.85012 29.2531 6.73788 29.1887C6.18404 28.8814 6.25266 28.8187 6.79178 29.1204C6.98222 29.2722 8.3333 29.8253 7.69022 29.46C7.44711 29.3997 6.2219 28.7357 6.6085 28.8221ZM11.7296 29.0665C11.7926 29.107 11.7948 29.2391 11.7925 29.4061C11.3693 29.8735 11.6216 29.2151 11.3594 29.469C11.1175 29.6622 11.1749 29.3539 11.3055 29.2803C11.5424 29.0775 11.6666 29.026 11.7296 29.0665ZM15.2569 29.2157C15.6346 29.2482 16.0668 29.3355 16.317 29.3414C16.1652 29.6607 15.227 29.3673 14.8148 29.451L14.6369 29.4403L14.5273 29.4223C14.5563 29.2052 14.8791 29.1831 15.2569 29.2157ZM18.5056 29.3181C19.4827 29.3172 18.57 29.4601 18.1211 29.4582C17.6114 29.3386 18.352 29.342 18.5056 29.3181ZM12.6208 29.4457C12.699 29.4368 12.7258 29.4984 12.504 29.6415L12.4232 29.6667C12.4121 29.5323 12.5426 29.4545 12.6208 29.4457ZM12.2489 29.5032C12.2633 29.5254 12.2311 29.589 12.1069 29.7206C11.7454 29.744 12.2058 29.4365 12.2489 29.5032ZM8.72342 29.6038C8.81166 29.5816 9.76208 29.8557 9.88421 29.8302C10.853 30.1899 9.30593 29.9472 8.98577 29.7457C8.76106 29.6507 8.69401 29.6112 8.72342 29.6038ZM13.4043 29.6505C13.4064 29.6746 13.356 29.7312 13.2138 29.8338L13.0952 29.911C12.9269 29.7944 13.398 29.5781 13.4043 29.6505Z" fill="white"/>
</g>
<defs>
<clipPath id="clip0_554_122">
<rect width="46" height="46" fill="white"/>
</clipPath>
</defs>
</svg>
