<svg width="32" height="30" viewBox="0 0 32 30" fill="none" xmlns="http://www.w3.org/2000/svg">
<path d="M16 0C7.16369 0 0 6.66057 0 14.8763C0 21.9008 5.23815 27.7843 12.28 29.344C11.9157 29.2634 11.5545 29.173 11.2 29.07V25.6616C11.2 25.6616 10.6 25.8475 9.8 25.8475C7.56185 25.8475 6.632 23.9909 6.4 23.0582C6.25908 22.4901 5.89108 21.9517 5.496 21.6227C5.024 21.2313 4.80308 21.2302 4.8 21.0963C4.79385 20.8154 5.20492 20.8268 5.4 20.8268C6.4 20.8268 7.15815 21.8161 7.51015 22.3276C8.38215 23.5904 9.31815 23.8021 9.8 23.8021C10.4 23.8021 10.9182 23.7185 11.2751 23.5583C11.44 22.4781 11.9569 21.5157 12.8 20.8268C9.048 20.1293 6.4 18.1285 6.4 14.8763C6.4 13.201 7.12308 11.6613 8.328 10.418C8.20492 10.0936 8 9.43729 8 8.36791C8 7.66129 8.05292 6.79388 8.4 5.95051C8.4 5.95051 10.6818 5.96539 12.8338 7.8604C13.8271 7.59148 14.8898 7.43814 16 7.43814C17.1102 7.43814 18.1729 7.59148 19.1662 7.8604C21.3182 5.96539 23.6 5.95051 23.6 5.95051C23.9489 6.79388 24 7.66129 24 8.36791C24 9.52082 23.8351 10.1931 23.7342 10.4832C24.9022 11.7151 25.6 13.2307 25.6 14.8763C25.6 18.1285 22.952 20.1293 19.2 20.8268C20.2018 21.645 20.8 22.8368 20.8 24.174V29.07C20.4455 29.1735 20.0849 29.2634 19.72 29.344C26.7618 27.7843 32 21.9008 32 14.8763C32 6.66057 24.8363 0 16 0ZM17.1157 29.7125C16.7471 29.7365 16.3754 29.7526 16 29.7526C16.3754 29.7526 16.7465 29.736 17.1157 29.7125ZM16 29.7526C15.6246 29.7526 15.2529 29.7365 14.8843 29.7125C15.2535 29.736 15.6246 29.7526 16 29.7526ZM14.6388 29.6954C13.8898 29.6364 13.1551 29.53 12.4394 29.3784C13.1557 29.5294 13.8898 29.6364 14.6388 29.6954Z" fill="#3E4856"/>
</svg>
