<svg width="46" height="46" viewBox="0 0 46 46" fill="none" xmlns="http://www.w3.org/2000/svg">
<path d="M4.69247 19.8229C4.60837 19.8229 4.58753 19.7812 4.62922 19.7179L5.06981 19.1508C5.1115 19.0876 5.21643 19.0459 5.30053 19.0459H12.7964C12.8805 19.0459 12.9013 19.1091 12.8596 19.1717L12.5024 19.7179C12.4607 19.7812 12.3558 19.8437 12.2925 19.8437L4.69247 19.8229Z" fill="white"/>
<path d="M1.52157 21.7545C1.43747 21.7545 1.41663 21.7128 1.45832 21.6496L1.89891 21.0825C1.9406 21.0192 2.04554 20.9775 2.12963 20.9775H11.7041C11.7882 20.9775 11.8299 21.0408 11.809 21.1033L11.6408 21.6072C11.62 21.6913 11.5359 21.7329 11.4518 21.7329L1.52157 21.7545Z" fill="white"/>
<path d="M6.60262 23.6854C6.51853 23.6854 6.49768 23.6222 6.53937 23.5596L6.83334 23.035C6.87503 22.9717 6.95912 22.9092 7.04322 22.9092H11.2429C11.327 22.9092 11.3687 22.9724 11.3687 23.0558L11.327 23.5596C11.327 23.6437 11.2429 23.7063 11.1803 23.7063L6.60262 23.6854Z" fill="white"/>
<path d="M28.3978 19.4439C27.0753 19.7796 26.1718 20.0319 24.8702 20.3675C24.5554 20.4516 24.5345 20.4724 24.2614 20.1576C23.9466 19.8004 23.7151 19.5697 23.2746 19.3598C21.9521 18.7086 20.6712 18.8977 19.4738 19.6746C18.0464 20.5982 17.3111 21.9631 17.3319 23.6637C17.3528 25.3434 18.5078 26.7292 20.1667 26.9599C21.5941 27.1489 22.7915 26.6451 23.736 25.5741C23.925 25.3434 24.0932 25.0911 24.3031 24.7972C23.547 24.7972 22.6025 24.7972 20.2508 24.7972C19.8102 24.7972 19.7045 24.524 19.8519 24.1675C20.125 23.5164 20.6288 22.4246 20.9228 21.879C20.9861 21.7533 21.1327 21.5434 21.4475 21.5434C22.5184 21.5434 26.4658 21.5434 29.0907 21.5434C29.049 22.1105 29.049 22.6776 28.9649 23.2439C28.7342 24.7555 28.1671 26.1412 27.2435 27.3595C25.732 29.354 23.7583 30.5932 21.2592 30.9288C19.2014 31.202 17.291 30.803 15.6112 29.5431C14.0573 28.3672 13.1754 26.8133 12.9447 24.882C12.6716 22.5935 13.3436 20.5357 14.7293 18.7302C16.22 16.7774 18.1937 15.5389 20.6087 15.0976C22.5824 14.7404 24.472 14.9719 26.1726 16.1262C27.2852 16.8607 28.083 17.8691 28.6084 19.0867C28.7335 19.2764 28.6494 19.3814 28.3978 19.4439Z" fill="white"/>
<path d="M35.3473 31.0553C33.4368 31.0136 31.6939 30.4674 30.224 29.2074C28.9849 28.1365 28.2086 26.7716 27.9564 25.1551C27.5783 22.7825 28.2295 20.683 29.6569 18.8143C31.19 16.7989 33.0372 15.7488 35.5363 15.3075C37.6782 14.9294 39.6935 15.1393 41.5206 16.3784C43.1795 17.5126 44.208 19.045 44.4811 21.0611C44.8384 23.8959 44.019 26.2052 42.0661 28.1789C40.6804 29.5855 38.9798 30.4674 37.027 30.8663C36.4599 30.9712 35.8935 30.9928 35.3473 31.0553ZM40.3447 22.5726C40.3239 22.2995 40.3239 22.0896 40.2815 21.8798C39.9034 19.8011 37.993 18.6253 35.9985 19.0874C34.0456 19.528 32.7856 20.7671 32.3242 22.7408C31.9461 24.3789 32.744 26.037 34.2562 26.709C35.4112 27.2129 36.5655 27.1496 37.6789 26.5833C39.337 25.7222 40.2398 24.3781 40.3447 22.5726Z" fill="white"/>
</svg>
