<svg width="1920" height="1019" viewBox="0 0 1920 1019" fill="none" xmlns="http://www.w3.org/2000/svg">
<g clip-path="url(#clip0_107_1557)">
<rect width="1920" height="1019" fill="white"/>
<path opacity="0.1" d="M146.8 431.2V385.3H187.6C197.8 385.3 207 383.8 215.2 380.8C223.4 377.6 230.4 373.2 236.2 367.6C242 361.8 246.4 354.9 249.4 346.9C252.4 338.7 253.9 329.7 253.9 319.9C253.9 309.7 252.4 300.6 249.4 292.6C246.4 284.6 242 277.8 236.2 272.2C230.4 266.6 223.4 262.4 215.2 259.6C207 256.6 197.8 255.1 187.6 255.1H146.8V209.2H184.9C204.7 209.2 222 212.1 236.8 217.9C251.6 223.7 264 231.6 274 241.6C284 251.6 291.4 263.1 296.2 276.1C301.2 288.9 303.7 302.4 303.7 316.6V323.2C303.7 336.4 301.2 349.5 296.2 362.5C291.4 375.3 284 386.9 274 397.3C264 407.5 251.6 415.7 236.8 421.9C222 428.1 204.7 431.2 184.9 431.2H146.8ZM103.6 431.2V209.2H152.8V431.2H103.6ZM343.975 430V211H391.975V430H343.975ZM385.975 430V389.2H481.675V430H385.975ZM385.975 339.1V298.3H474.775V339.1H385.975ZM385.975 251.8V211H479.575V251.8H385.975ZM576.4 430L509.8 211H560.5L613.3 395.8L601.9 390.1H632.5L620.5 395.8L669.4 211H718.6L656.5 430H576.4ZM756.17 430V211H804.17V430H756.17ZM798.17 430V389.2H893.87V430H798.17ZM798.17 339.1V298.3H886.97V339.1H798.17ZM798.17 251.8V211H891.77V251.8H798.17ZM940.295 430V211H989.495V430H940.295ZM983.495 430V386.8H1075.3V430H983.495ZM1214.19 435.7C1194.39 435.7 1177.09 432.3 1162.29 425.5C1147.69 418.5 1135.59 409.4 1125.99 398.2C1116.39 386.8 1109.19 374.5 1104.39 361.3C1099.79 348.1 1097.49 335.4 1097.49 323.2V316.6C1097.49 303 1099.89 289.6 1104.69 276.4C1109.69 263 1117.09 250.9 1126.89 240.1C1136.69 229.3 1148.89 220.7 1163.49 214.3C1178.09 207.7 1194.99 204.4 1214.19 204.4C1233.39 204.4 1250.29 207.7 1264.89 214.3C1279.49 220.7 1291.69 229.3 1301.49 240.1C1311.29 250.9 1318.69 263 1323.69 276.4C1328.69 289.6 1331.19 303 1331.19 316.6V323.2C1331.19 335.4 1328.79 348.1 1323.99 361.3C1319.19 374.5 1311.99 386.8 1302.39 398.2C1292.79 409.4 1280.59 418.5 1265.79 425.5C1251.19 432.3 1233.99 435.7 1214.19 435.7ZM1214.19 389.8C1224.59 389.8 1233.89 388 1242.09 384.4C1250.49 380.8 1257.59 375.8 1263.39 369.4C1269.39 363 1273.89 355.6 1276.89 347.2C1279.89 338.8 1281.39 329.8 1281.39 320.2C1281.39 310 1279.79 300.7 1276.59 292.3C1273.59 283.7 1269.09 276.3 1263.09 270.1C1257.29 263.7 1250.29 258.8 1242.09 255.4C1233.89 252 1224.59 250.3 1214.19 250.3C1203.79 250.3 1194.49 252 1186.29 255.4C1178.09 258.8 1170.99 263.7 1164.99 270.1C1159.19 276.3 1154.79 283.7 1151.79 292.3C1148.79 300.7 1147.29 310 1147.29 320.2C1147.29 329.8 1148.79 338.8 1151.79 347.2C1154.79 355.6 1159.19 363 1164.99 369.4C1170.99 375.8 1178.09 380.8 1186.29 384.4C1194.49 388 1203.79 389.8 1214.19 389.8ZM1417.66 367.3V324.7H1456.96C1464.56 324.7 1471.06 323.2 1476.46 320.2C1482.06 317.2 1486.36 313 1489.36 307.6C1492.36 302 1493.86 295.6 1493.86 288.4C1493.86 280.8 1492.36 274.3 1489.36 268.9C1486.36 263.3 1482.06 259.1 1476.46 256.3C1471.06 253.3 1464.56 251.8 1456.96 251.8H1417.66V209.2H1454.56C1473.16 209.2 1489.06 212.3 1502.26 218.5C1515.66 224.7 1525.86 233.5 1532.86 244.9C1540.06 256.3 1543.66 270 1543.66 286V290.8C1543.66 306.4 1540.06 320 1532.86 331.6C1525.86 343 1515.66 351.8 1502.26 358C1489.06 364.2 1473.16 367.3 1454.56 367.3H1417.66ZM1374.46 430V209.2H1423.66V430H1374.46Z" fill="url(#paint0_linear_107_1557)"/>
<path opacity="0.1" d="M144.8 778.2V732.3H185.6C195.8 732.3 205 730.8 213.2 727.8C221.4 724.6 228.4 720.2 234.2 714.6C240 708.8 244.4 701.9 247.4 693.9C250.4 685.7 251.9 676.7 251.9 666.9C251.9 656.7 250.4 647.6 247.4 639.6C244.4 631.6 240 624.8 234.2 619.2C228.4 613.6 221.4 609.4 213.2 606.6C205 603.6 195.8 602.1 185.6 602.1H144.8V556.2H182.9C202.7 556.2 220 559.1 234.8 564.9C249.6 570.7 262 578.6 272 588.6C282 598.6 289.4 610.1 294.2 623.1C299.2 635.9 301.7 649.4 301.7 663.6V670.2C301.7 683.4 299.2 696.5 294.2 709.5C289.4 722.3 282 733.9 272 744.3C262 754.5 249.6 762.7 234.8 768.9C220 775.1 202.7 778.2 182.9 778.2H144.8ZM101.6 778.2V556.2H150.8V778.2H101.6ZM341.975 777V558H389.975V777H341.975ZM383.975 777V736.2H479.675V777H383.975ZM383.975 686.1V645.3H472.775V686.1H383.975ZM383.975 598.8V558H477.575V598.8H383.975ZM600.835 782.7C581.035 782.7 564.335 779.6 550.735 773.4C537.135 767 526.835 758.4 519.835 747.6C512.835 736.6 509.335 724 509.335 709.8H557.035C557.035 715.4 558.535 720.6 561.535 725.4C564.735 730.2 569.535 734.1 575.935 737.1C582.335 739.9 590.635 741.3 600.835 741.3C610.035 741.3 617.735 740.1 623.935 737.7C630.135 735.3 634.835 732 638.035 727.8C641.235 723.4 642.835 718.4 642.835 712.8C642.835 705.8 639.835 700.3 633.835 696.3C627.835 692.1 618.135 689.4 604.735 688.2L588.235 686.7C566.435 684.9 549.035 678.1 536.035 666.3C523.035 654.5 516.535 638.9 516.535 619.5C516.535 605.5 519.835 593.4 526.435 583.2C533.235 573 542.635 565.2 554.635 559.8C566.635 554.2 580.835 551.4 597.235 551.4C614.435 551.4 629.135 554.4 641.335 560.4C653.735 566.2 663.235 574.5 669.835 585.3C676.435 595.9 679.735 608.4 679.735 622.8H631.735C631.735 617.4 630.435 612.5 627.835 608.1C625.235 603.5 621.335 599.8 616.135 597C611.135 594.2 604.835 592.8 597.235 592.8C590.035 592.8 583.935 594 578.935 596.4C574.135 598.8 570.535 602.1 568.135 606.3C565.735 610.3 564.535 614.7 564.535 619.5C564.535 625.7 566.735 631.1 571.135 635.7C575.535 640.3 582.735 643 592.735 643.8L609.535 645.3C625.535 646.7 639.635 650.2 651.835 655.8C664.035 661.2 673.535 668.7 680.335 678.3C687.335 687.7 690.835 699.2 690.835 712.8C690.835 726.8 687.135 739.1 679.735 749.7C672.535 760.1 662.235 768.2 648.835 774C635.435 779.8 619.435 782.7 600.835 782.7ZM731.333 777V558H780.533V777H731.333ZM940.142 782.7C920.542 782.7 903.442 779.5 888.842 773.1C874.242 766.5 862.142 757.7 852.542 746.7C843.142 735.7 836.142 723.5 831.542 710.1C826.942 696.7 824.642 683.3 824.642 669.9V663.3C824.642 649.5 826.942 636 831.542 622.8C836.142 609.6 843.042 597.6 852.242 586.8C861.642 576 873.242 567.4 887.042 561C901.042 554.6 917.142 551.4 935.342 551.4C955.142 551.4 972.642 555.1 987.842 562.5C1003.04 569.7 1015.24 579.8 1024.44 592.8C1033.64 605.6 1038.94 620.5 1040.34 637.5H991.142C989.942 629.5 986.742 622.5 981.542 616.5C976.542 610.5 970.042 605.8 962.042 602.4C954.242 599 945.342 597.3 935.342 597.3C925.742 597.3 917.142 599 909.542 602.4C902.142 605.8 895.742 610.6 890.342 616.8C885.142 623 881.142 630.4 878.342 639C875.742 647.4 874.442 656.7 874.442 666.9C874.442 677.5 875.842 687.2 878.642 696C881.642 704.6 885.942 712.1 891.542 718.5C897.142 724.7 904.042 729.5 912.242 732.9C920.642 736.3 929.942 738 940.142 738C953.742 738 965.542 735.2 975.542 729.6C985.542 724 992.742 716.6 997.142 707.4L991.142 741V688.8H1036.44V735.6C1027.04 750.8 1014.04 762.5 997.442 770.7C981.042 778.7 961.942 782.7 940.142 782.7ZM933.842 698.4V663H1054.44V698.4H933.842ZM1092.24 777V558H1172.94L1255.44 737.1H1265.64L1259.64 742.5V558H1305.84V777H1224.54L1142.04 597.9H1131.84L1137.84 592.5V777H1092.24Z" fill="url(#paint1_linear_107_1557)"/>
<path d="M61.1236 818.507C108.851 895.013 158 955 224.478 1037.02C282.813 1109 462.5 1249 589.566 1267.04C802.845 1297.32 1687.4 1154.55 1807 1109C1996 1037.02 2238.37 641.494 2130.12 472.981C2021.87 304.468 1687.29 -79.0616 1370.91 -234.573C1054.54 -390.085 380.5 -120.5 312 -91.5002C185.757 -38.0546 -93.9998 165.5 -129.5 321C-162.619 466.072 19.1223 751.18 61.1236 818.507Z" stroke="#98AEFF" stroke-width="2"/>
<path d="M12.6374 864.266C64.0441 946.691 116.983 1011.32 188.586 1099.69C251.418 1177.23 444.958 1328.06 581.82 1347.5C811.541 1380.13 1764.29 1226.3 1893.11 1177.23C2096.68 1099.69 2357.73 673.559 2241.14 492.009C2124.55 310.46 1764.17 -102.74 1423.4 -270.283C1082.64 -437.826 356.636 -147.385 282.855 -116.141C146.88 -58.5611 -154.445 160.741 -192.682 328.271C-228.355 484.566 -32.602 791.73 12.6374 864.266Z" stroke="#3C59C5" stroke-opacity="0.1" stroke-width="2"/>
</g>
<defs>
<linearGradient id="paint0_linear_107_1557" x1="79" y1="256.018" x2="1266.04" y2="247.814" gradientUnits="userSpaceOnUse">
<stop stop-color="#3A59C5"/>
<stop offset="1" stop-color="#8D43EA"/>
</linearGradient>
<linearGradient id="paint1_linear_107_1557" x1="77" y1="566.095" x2="1201.99" y2="556.382" gradientUnits="userSpaceOnUse">
<stop stop-color="#3A59C5"/>
<stop offset="1" stop-color="#8D43EA"/>
</linearGradient>
<clipPath id="clip0_107_1557">
<rect width="1920" height="1019" fill="white"/>
</clipPath>
</defs>
</svg>
