<svg width="42" height="42" viewBox="0 0 42 42" fill="none" xmlns="http://www.w3.org/2000/svg">
<path d="M36.4025 3.36035H5.60145C4.36441 3.36035 3.36035 4.36441 3.36035 5.60145V36.3993C3.36035 37.6363 4.36441 38.6404 5.60145 38.6404H36.3993C37.6363 38.6404 38.6404 37.6363 38.6404 36.4025V5.60145C38.6404 4.36441 37.6363 3.36035 36.4025 3.36035ZM22.6804 30.3946C22.6804 33.7513 20.7116 35.2804 17.8372 35.2804C15.2385 35.2804 13.3649 33.538 12.6004 31.9204L15.2418 30.3224C15.7504 31.2247 16.5247 31.9204 17.6404 31.9204C18.7068 31.9204 19.3204 31.5036 19.3204 29.8827V19.3204H22.6804V30.3946ZM29.968 35.2804C26.9919 35.2804 25.3021 33.7808 24.3604 31.9204L26.8804 30.2404C27.5661 31.3625 28.3143 32.4355 29.8958 32.4355C31.2247 32.4355 31.9204 31.7727 31.9204 30.8539C31.9204 29.758 31.1985 29.3675 29.7383 28.7277L28.9377 28.3832C26.6244 27.3988 25.0855 26.165 25.0855 23.5532C25.0855 21.1513 26.9197 19.3204 29.781 19.3204C31.8186 19.3204 33.2821 20.0291 34.3386 21.8863L31.8449 23.4908C31.2936 22.5032 30.703 22.116 29.781 22.116C28.8425 22.116 28.2486 22.7132 28.2486 23.4908C28.2486 24.4522 28.8425 24.8394 30.2174 25.4366L31.018 25.7811C33.7447 26.946 35.2804 28.1371 35.2804 30.8146C35.2804 33.6988 33.013 35.2804 29.968 35.2804Z" fill="white"/>
</svg>
