<svg width="32" height="33" viewBox="0 0 32 33" fill="none" xmlns="http://www.w3.org/2000/svg">
<path d="M26.0379 3.00293H6.04186C4.3172 3.00293 2.91748 4.42257 2.91748 6.17176V26.4523C2.91748 28.2015 4.3172 29.6211 6.04186 29.6211H26.0379C27.7625 29.6211 29.1623 28.2015 29.1623 26.4523V6.17176C29.1623 4.42257 27.7625 3.00293 26.0379 3.00293ZM11.0409 13.1432V25.1847H7.29161V13.1432H11.0409ZM7.29161 9.63846C7.29161 8.75119 8.04146 8.07306 9.16624 8.07306C10.291 8.07306 10.9971 8.75119 11.0409 9.63846C11.0409 10.5257 10.341 11.2419 9.16624 11.2419C8.04146 11.2419 7.29161 10.5257 7.29161 9.63846ZM24.7881 25.1847H21.0389C21.0389 25.1847 21.0389 19.3161 21.0389 18.8471C21.0389 17.5796 20.414 16.312 18.8518 16.2867H18.8018C17.2896 16.2867 16.6647 17.5922 16.6647 18.8471C16.6647 19.4238 16.6647 25.1847 16.6647 25.1847H12.9155V13.1432H16.6647V14.7656C16.6647 14.7656 17.8708 13.1432 20.2953 13.1432C22.776 13.1432 24.7881 14.8734 24.7881 18.3781V25.1847Z" fill="#3E4856"/>
</svg>
