<svg width="91" height="57" viewBox="0 0 91 57" fill="none" xmlns="http://www.w3.org/2000/svg">
<path d="M10.24 41.8L15.2 14.32C15.2267 14.2133 15.2933 14.16 15.4 14.16H21.2C21.3067 14.16 21.3733 14.2133 21.4 14.32L26.16 41.8C26.1867 41.9333 26.1333 42 26 42H21.56C21.4533 42 21.3867 41.9333 21.36 41.8L20.92 38.88H15.48L15.04 41.8C15.0133 41.9333 14.9467 42 14.84 42H10.4C10.2933 42 10.24 41.9333 10.24 41.8ZM16.28 34.6H20.12L18.48 23.36L18.24 21.88L18.08 23.36L16.28 34.6ZM30.7563 42C30.6496 42 30.5963 41.9333 30.5963 41.8V19H25.3963C25.2629 19 25.1963 18.9333 25.1963 18.8L25.2363 14.32C25.2363 14.2133 25.2896 14.16 25.3963 14.16H40.5963C40.7296 14.16 40.7963 14.2133 40.7963 14.32V18.8C40.7963 18.9333 40.7429 19 40.6363 19H35.3963L35.4362 41.8C35.4362 41.9333 35.3829 42 35.2763 42H30.7563ZM49.2334 42.4C47.7668 42.4 46.4334 42.04 45.2334 41.32C44.0601 40.5733 43.1268 39.5867 42.4334 38.36C41.7401 37.1333 41.3934 35.76 41.3934 34.24L41.4334 21.76C41.4334 20.2933 41.7668 18.96 42.4334 17.76C43.1268 16.5333 44.0601 15.56 45.2334 14.84C46.4334 14.0933 47.7668 13.72 49.2334 13.72C50.7001 13.72 52.0201 14.08 53.1934 14.8C54.3668 15.52 55.3001 16.4933 55.9934 17.72C56.6868 18.92 57.0334 20.2667 57.0334 21.76V23.6C57.0334 23.7067 56.9801 23.76 56.8734 23.76H52.3934C52.2868 23.76 52.2334 23.7067 52.2334 23.6V21.76C52.2334 20.88 51.9401 20.12 51.3534 19.48C50.7934 18.84 50.0868 18.52 49.2334 18.52C48.2734 18.52 47.5401 18.8533 47.0334 19.52C46.5268 20.16 46.2734 20.9067 46.2734 21.76V34.24C46.2734 35.2267 46.5534 36.0267 47.1134 36.64C47.7001 37.2533 48.4068 37.56 49.2334 37.56C50.0868 37.56 50.7934 37.2267 51.3534 36.56C51.9401 35.8667 52.2334 35.0933 52.2334 34.24V32.4C52.2334 32.2933 52.2868 32.24 52.3934 32.24H56.9134C57.0201 32.24 57.0734 32.2933 57.0734 32.4V34.24C57.0734 35.76 56.7134 37.1333 55.9934 38.36C55.3001 39.5867 54.3668 40.5733 53.1934 41.32C52.0201 42.04 50.7001 42.4 49.2334 42.4ZM60.1584 42C60.0518 42 59.9984 41.9333 59.9984 41.8L60.0384 14.32C60.0384 14.2133 60.1051 14.16 60.2384 14.16H64.6784C64.8118 14.16 64.8784 14.2133 64.8784 14.32L64.8384 25.2H70.8384V14.32C70.8384 14.2133 70.8918 14.16 70.9984 14.16H75.4384C75.5718 14.16 75.6384 14.2133 75.6384 14.32L75.7184 41.8C75.7184 41.9333 75.6518 42 75.5184 42H71.0384C70.9051 42 70.8384 41.9333 70.8384 41.8V30.04H64.8384V41.8C64.8384 41.9333 64.7851 42 64.6784 42H60.1584Z" fill="white"/>
</svg>
