<svg width="250" height="31" viewBox="0 0 250 31" fill="none" xmlns="http://www.w3.org/2000/svg">
<path d="M54.1765 22L58.9965 7.4H64.2965L69.2965 22H65.8965L61.8565 9.66L62.8965 10.08H60.3165L61.3965 9.66L57.4565 22H54.1765ZM57.8365 18.38L58.8365 15.66H64.5565L65.5765 18.38H57.8365ZM71.421 22V11.04H73.961V15.74H73.781C73.781 14.62 73.921 13.6867 74.201 12.94C74.4944 12.1933 74.9344 11.6333 75.521 11.26C76.1077 10.8867 76.821 10.7 77.661 10.7H77.801C79.081 10.7 80.0544 11.12 80.721 11.96C81.401 12.7867 81.741 14.0467 81.741 15.74V22H78.541V15.56C78.541 14.9733 78.3677 14.4933 78.021 14.12C77.6744 13.7467 77.2077 13.56 76.621 13.56C76.021 13.56 75.5344 13.7533 75.161 14.14C74.801 14.5133 74.621 15.0067 74.621 15.62V22H71.421ZM85.3879 22V11.04H88.5879V22H85.3879ZM83.9279 13.4V11.04H88.5879V13.4H83.9279ZM86.6279 9.96C86.0279 9.96 85.5812 9.80667 85.2879 9.5C85.0079 9.18 84.8679 8.78 84.8679 8.3C84.8679 7.80667 85.0079 7.40667 85.2879 7.1C85.5812 6.78 86.0279 6.62 86.6279 6.62C87.2279 6.62 87.6679 6.78 87.9479 7.1C88.2412 7.40667 88.3879 7.80667 88.3879 8.3C88.3879 8.78 88.2412 9.18 87.9479 9.5C87.6679 9.80667 87.2279 9.96 86.6279 9.96ZM96.1076 22.34C94.5476 22.34 93.3276 22.02 92.4476 21.38C91.5676 20.74 91.1009 19.84 91.0476 18.68H93.8876C93.9409 19.0267 94.1476 19.34 94.5076 19.62C94.8809 19.8867 95.4343 20.02 96.1676 20.02C96.7276 20.02 97.1876 19.9267 97.5476 19.74C97.9209 19.54 98.1076 19.26 98.1076 18.9C98.1076 18.58 97.9676 18.3267 97.6876 18.14C97.4076 17.94 96.9076 17.8 96.1876 17.72L95.3276 17.64C94.0076 17.5067 93.0143 17.14 92.3476 16.54C91.6943 15.94 91.3676 15.1733 91.3676 14.24C91.3676 13.4667 91.5609 12.82 91.9476 12.3C92.3343 11.78 92.8676 11.3867 93.5476 11.12C94.2409 10.8533 95.0276 10.72 95.9076 10.72C97.3209 10.72 98.4609 11.0333 99.3276 11.66C100.194 12.2733 100.648 13.1667 100.688 14.34H97.8476C97.7943 13.98 97.6076 13.68 97.2876 13.44C96.9676 13.1867 96.4943 13.06 95.8676 13.06C95.3743 13.06 94.9809 13.1533 94.6876 13.34C94.3943 13.5267 94.2476 13.78 94.2476 14.1C94.2476 14.4067 94.3743 14.64 94.6276 14.8C94.8809 14.96 95.2943 15.0733 95.8676 15.14L96.7276 15.22C98.0743 15.3667 99.1209 15.74 99.8676 16.34C100.614 16.94 100.988 17.7467 100.988 18.76C100.988 19.4933 100.788 20.1333 100.388 20.68C99.9876 21.2133 99.4209 21.6267 98.6876 21.92C97.9543 22.2 97.0943 22.34 96.1076 22.34ZM103.461 22V7.4H106.661V15.82H106.181C106.181 14.7133 106.321 13.78 106.601 13.02C106.881 12.26 107.294 11.6867 107.841 11.3C108.388 10.9 109.074 10.7 109.901 10.7H110.041C111.254 10.7 112.181 11.1333 112.821 12C113.461 12.8533 113.781 14.1067 113.781 15.76V22H110.581V15.56C110.581 14.96 110.401 14.48 110.041 14.12C109.694 13.7467 109.234 13.56 108.661 13.56C108.061 13.56 107.574 13.7533 107.201 14.14C106.841 14.5267 106.661 15.04 106.661 15.68V22H103.461ZM128.387 22.38C127.067 22.38 125.934 22.1533 124.987 21.7C124.04 21.2333 123.267 20.6267 122.667 19.88C122.067 19.12 121.62 18.3067 121.327 17.44C121.047 16.56 120.907 15.7067 120.907 14.88V14.44C120.907 13.5333 121.054 12.64 121.347 11.76C121.64 10.8667 122.087 10.06 122.687 9.34C123.3 8.62 124.067 8.04667 124.987 7.62C125.92 7.18 127.02 6.96 128.287 6.96C129.607 6.96 130.774 7.20667 131.787 7.7C132.8 8.19333 133.607 8.88 134.207 9.76C134.82 10.6267 135.18 11.6467 135.287 12.82H131.987C131.894 12.2333 131.68 11.7333 131.347 11.32C131.014 10.9067 130.58 10.5867 130.047 10.36C129.527 10.1333 128.94 10.02 128.287 10.02C127.634 10.02 127.054 10.1333 126.547 10.36C126.04 10.5867 125.614 10.9067 125.267 11.32C124.934 11.7333 124.674 12.2267 124.487 12.8C124.314 13.36 124.227 13.9867 124.227 14.68C124.227 15.36 124.314 15.9867 124.487 16.56C124.674 17.12 124.94 17.6133 125.287 18.04C125.647 18.4533 126.087 18.7733 126.607 19C127.127 19.2133 127.72 19.32 128.387 19.32C129.4 19.32 130.254 19.0733 130.947 18.58C131.654 18.0867 132.08 17.4067 132.227 16.54H135.507C135.387 17.6067 135.027 18.5867 134.427 19.48C133.84 20.36 133.034 21.0667 132.007 21.6C130.994 22.12 129.787 22.38 128.387 22.38ZM137.903 22V7.4H141.103V15.82H140.623C140.623 14.7133 140.763 13.78 141.043 13.02C141.323 12.26 141.736 11.6867 142.283 11.3C142.83 10.9 143.516 10.7 144.343 10.7H144.483C145.696 10.7 146.623 11.1333 147.263 12C147.903 12.8533 148.223 14.1067 148.223 15.76V22H145.023V15.56C145.023 14.96 144.843 14.48 144.483 14.12C144.136 13.7467 143.676 13.56 143.103 13.56C142.503 13.56 142.016 13.7533 141.643 14.14C141.283 14.5267 141.103 15.04 141.103 15.68V22H137.903ZM157.97 22V18.76H157.43V15.24C157.43 14.68 157.297 14.26 157.03 13.98C156.763 13.7 156.337 13.56 155.75 13.56C155.457 13.56 155.07 13.5667 154.59 13.58C154.11 13.5933 153.617 13.6133 153.11 13.64C152.603 13.6667 152.143 13.6933 151.73 13.72V11.02C152.037 10.9933 152.397 10.9667 152.81 10.94C153.223 10.9133 153.65 10.8933 154.09 10.88C154.53 10.8667 154.943 10.86 155.33 10.86C156.45 10.86 157.39 11.02 158.15 11.34C158.923 11.66 159.51 12.1467 159.91 12.8C160.31 13.44 160.51 14.2667 160.51 15.28V22H157.97ZM154.47 22.28C153.683 22.28 152.99 22.14 152.39 21.86C151.803 21.58 151.343 21.18 151.01 20.66C150.677 20.1267 150.51 19.4933 150.51 18.76C150.51 17.96 150.717 17.3067 151.13 16.8C151.543 16.28 152.123 15.9 152.87 15.66C153.617 15.4067 154.477 15.28 155.45 15.28H157.79V17.06H155.43C154.87 17.06 154.437 17.2 154.13 17.48C153.837 17.7467 153.69 18.1133 153.69 18.58C153.69 19.02 153.837 19.38 154.13 19.66C154.437 19.9267 154.87 20.06 155.43 20.06C155.79 20.06 156.11 20 156.39 19.88C156.683 19.7467 156.923 19.5267 157.11 19.22C157.297 18.9133 157.403 18.4867 157.43 17.94L158.19 18.74C158.123 19.5 157.937 20.14 157.63 20.66C157.337 21.18 156.923 21.58 156.39 21.86C155.87 22.14 155.23 22.28 154.47 22.28ZM168.605 22.14C167.498 22.14 166.605 22.0067 165.925 21.74C165.245 21.46 164.745 21 164.425 20.36C164.118 19.7067 163.965 18.8267 163.965 17.72V8.08H166.945V17.84C166.945 18.36 167.078 18.76 167.345 19.04C167.625 19.3067 168.018 19.44 168.525 19.44H170.145V22.14H168.605ZM162.305 13.38V11.04H170.145V13.38H162.305ZM177.677 22.14C176.57 22.14 175.677 22.0067 174.997 21.74C174.317 21.46 173.817 21 173.497 20.36C173.19 19.7067 173.037 18.8267 173.037 17.72V8.08H176.017V17.84C176.017 18.36 176.15 18.76 176.417 19.04C176.697 19.3067 177.09 19.44 177.597 19.44H179.217V22.14H177.677ZM171.377 13.38V11.04H179.217V13.38H171.377ZM186.75 22.38C185.816 22.38 184.99 22.22 184.27 21.9C183.563 21.58 182.97 21.1533 182.49 20.62C182.023 20.0733 181.663 19.4667 181.41 18.8C181.17 18.12 181.05 17.4267 181.05 16.72V16.32C181.05 15.5867 181.17 14.8867 181.41 14.22C181.663 13.54 182.023 12.9333 182.49 12.4C182.956 11.8667 183.536 11.4467 184.23 11.14C184.936 10.82 185.736 10.66 186.63 10.66C187.803 10.66 188.79 10.9267 189.59 11.46C190.403 11.98 191.023 12.6667 191.45 13.52C191.876 14.36 192.09 15.28 192.09 16.28V17.36H182.39V15.54H190.15L189.11 16.38C189.11 15.7267 189.016 15.1667 188.83 14.7C188.643 14.2333 188.363 13.88 187.99 13.64C187.63 13.3867 187.176 13.26 186.63 13.26C186.07 13.26 185.596 13.3867 185.21 13.64C184.823 13.8933 184.53 14.2667 184.33 14.76C184.13 15.24 184.03 15.8333 184.03 16.54C184.03 17.1933 184.123 17.7667 184.31 18.26C184.496 18.74 184.79 19.1133 185.19 19.38C185.59 19.6467 186.11 19.78 186.75 19.78C187.336 19.78 187.816 19.6667 188.19 19.44C188.563 19.2133 188.816 18.9333 188.95 18.6H191.89C191.73 19.3333 191.416 19.9867 190.95 20.56C190.483 21.1333 189.896 21.58 189.19 21.9C188.483 22.22 187.67 22.38 186.75 22.38ZM194.61 22V11.04H197.15V15.74H197.09C197.09 14.1933 197.417 13 198.07 12.16C198.737 11.32 199.697 10.9 200.95 10.9H201.37V13.66H200.57C199.69 13.66 199.01 13.9 198.53 14.38C198.05 14.8467 197.81 15.5267 197.81 16.42V22H194.61ZM202.204 26.1V23.4H202.904C203.398 23.4 203.771 23.2667 204.024 23C204.278 22.7467 204.404 22.38 204.404 21.9V11.04H207.504V21.8C207.504 22.8533 207.338 23.6933 207.004 24.32C206.684 24.9467 206.171 25.4 205.464 25.68C204.771 25.96 203.878 26.1 202.784 26.1H202.204ZM202.884 13.4V11.04H207.504V13.4H202.884ZM205.544 9.92C204.944 9.92 204.498 9.76667 204.204 9.46C203.924 9.14 203.784 8.74 203.784 8.26C203.784 7.76667 203.924 7.36667 204.204 7.06C204.498 6.74 204.944 6.58 205.544 6.58C206.158 6.58 206.604 6.74 206.884 7.06C207.164 7.36667 207.304 7.76667 207.304 8.26C207.304 8.74 207.164 9.14 206.884 9.46C206.604 9.76667 206.158 9.92 205.544 9.92ZM215.782 22.38C214.848 22.38 214.022 22.22 213.302 21.9C212.595 21.58 212.002 21.1533 211.522 20.62C211.055 20.0733 210.695 19.4667 210.442 18.8C210.202 18.12 210.082 17.4267 210.082 16.72V16.32C210.082 15.5867 210.202 14.8867 210.442 14.22C210.695 13.54 211.055 12.9333 211.522 12.4C211.988 11.8667 212.568 11.4467 213.262 11.14C213.968 10.82 214.768 10.66 215.662 10.66C216.835 10.66 217.822 10.9267 218.622 11.46C219.435 11.98 220.055 12.6667 220.482 13.52C220.908 14.36 221.122 15.28 221.122 16.28V17.36H211.422V15.54H219.182L218.142 16.38C218.142 15.7267 218.048 15.1667 217.862 14.7C217.675 14.2333 217.395 13.88 217.022 13.64C216.662 13.3867 216.208 13.26 215.662 13.26C215.102 13.26 214.628 13.3867 214.242 13.64C213.855 13.8933 213.562 14.2667 213.362 14.76C213.162 15.24 213.062 15.8333 213.062 16.54C213.062 17.1933 213.155 17.7667 213.342 18.26C213.528 18.74 213.822 19.1133 214.222 19.38C214.622 19.6467 215.142 19.78 215.782 19.78C216.368 19.78 216.848 19.6667 217.222 19.44C217.595 19.2133 217.848 18.9333 217.982 18.6H220.922C220.762 19.3333 220.448 19.9867 219.982 20.56C219.515 21.1333 218.928 21.58 218.222 21.9C217.515 22.22 216.702 22.38 215.782 22.38ZM228.662 22.38C227.729 22.38 226.902 22.22 226.182 21.9C225.475 21.58 224.882 21.1533 224.402 20.62C223.935 20.0733 223.575 19.4667 223.322 18.8C223.082 18.12 222.962 17.4267 222.962 16.72V16.32C222.962 15.5867 223.082 14.8867 223.322 14.22C223.575 13.54 223.935 12.9333 224.402 12.4C224.869 11.8667 225.449 11.4467 226.142 11.14C226.849 10.82 227.649 10.66 228.542 10.66C229.715 10.66 230.702 10.9267 231.502 11.46C232.315 11.98 232.935 12.6667 233.362 13.52C233.789 14.36 234.002 15.28 234.002 16.28V17.36H224.302V15.54H232.062L231.022 16.38C231.022 15.7267 230.929 15.1667 230.742 14.7C230.555 14.2333 230.275 13.88 229.902 13.64C229.542 13.3867 229.089 13.26 228.542 13.26C227.982 13.26 227.509 13.3867 227.122 13.64C226.735 13.8933 226.442 14.2667 226.242 14.76C226.042 15.24 225.942 15.8333 225.942 16.54C225.942 17.1933 226.035 17.7667 226.222 18.26C226.409 18.74 226.702 19.1133 227.102 19.38C227.502 19.6467 228.022 19.78 228.662 19.78C229.249 19.78 229.729 19.6667 230.102 19.44C230.475 19.2133 230.729 18.9333 230.862 18.6H233.802C233.642 19.3333 233.329 19.9867 232.862 20.56C232.395 21.1333 231.809 21.58 231.102 21.9C230.395 22.22 229.582 22.38 228.662 22.38Z" fill="black"/>
<rect x="1.0835" y="0.916626" width="23.8333" height="29.25" fill="#CE5A67"/>
<path d="M23.3982 7.04065L18.1312 24.2855H12.3397L6.87598 7.04065H10.5913L15.0059 21.6161L13.8695 21.12H16.6888L15.5086 21.6161L19.814 7.04065H23.3982ZM31.2841 11.2855C30.9199 12.5218 30.7903 13.2802 30.8862 14.4692C28.6048 14.4613 12.0555 14.5292 12.0555 14.5292L10.941 11.3164C10.941 11.3164 28.7344 11.3407 31.2841 11.2855Z" fill="#CE5A67"/>
<path d="M21.8266 7.30603L16.1302 24.5606H9.86661L3.95752 7.30603H7.9757L12.7502 21.8897L11.5212 21.3933H14.5702L13.2939 21.8897L17.9502 7.30603H21.8266ZM24.9167 11.2856C24.9167 14.5002 24.9167 11.9489 24.9167 14.4693C22.4493 14.4614 9.55934 14.7988 9.55934 14.7988L8.35388 11.5842C8.35388 11.5842 22.1591 11.3408 24.9167 11.2856Z" fill="#FCF5ED"/>
<path d="M35.4541 5.97949C37.0141 5.97949 38.3535 6.24737 39.4723 6.78313C40.5911 7.33464 41.505 8.05161 42.2141 8.93404C42.9232 9.83222 43.4511 10.7934 43.7977 11.8177C44.1286 12.8577 44.2941 13.8662 44.2941 14.8431V15.3631C44.2941 16.4346 44.1208 17.4904 43.7741 18.5304C43.4274 19.5862 42.8996 20.5395 42.1905 21.3904C41.4656 22.2413 40.5596 22.9189 39.4723 23.4231C38.3692 23.9431 37.0692 24.2031 35.5723 24.2031C34.0123 24.2031 32.6335 23.9116 31.4359 23.3286C30.2383 22.7456 29.285 21.934 28.5759 20.894C27.8511 19.8698 27.4256 18.6643 27.2996 17.2777H31.1996C31.3099 17.971 31.562 18.5619 31.9559 19.0504C32.3499 19.5389 32.862 19.9171 33.4923 20.1849C34.1068 20.4528 34.8002 20.5868 35.5723 20.5868C36.3444 20.5868 37.0299 20.4528 37.6286 20.1849C38.2274 19.9171 38.7317 19.5389 39.1414 19.0504C39.5353 18.5619 39.8426 17.9789 40.0632 17.3013C40.268 16.6395 40.3705 15.8989 40.3705 15.0795C40.3705 14.2759 40.268 13.5353 40.0632 12.8577C39.8426 12.1959 39.5274 11.6128 39.1177 11.1086C38.6923 10.6201 38.1723 10.2419 37.5577 9.97404C36.9432 9.72192 36.242 9.59586 35.4541 9.59586C34.2565 9.59586 33.248 9.88737 32.4286 10.4704C31.5935 11.0534 31.0892 11.8571 30.9159 12.8813H27.0396C27.1814 11.6207 27.6068 10.4625 28.3159 9.40676C29.0092 8.36676 29.9626 7.53161 31.1759 6.90131C32.3735 6.28676 33.7996 5.97949 35.4541 5.97949Z" fill="#CE5A67"/>
</svg>
