<svg width="194" height="195" viewBox="0 0 194 195" fill="none" xmlns="http://www.w3.org/2000/svg">
<path d="M94.4967 174.575C90.1677 170.785 88.6677 164.493 88.0231 158.591C87.1994 151.049 87.462 132.817 86.2154 125.338C83.2146 107.336 74.7907 105.441 71.734 101.431C70.4453 99.7405 69.8261 97.2022 70.9746 95.4138C71.7666 94.1805 73.1715 93.6054 74.4413 92.961C82.941 88.6476 86.3203 79.2863 88.1656 69.4804C90.0108 59.6745 88.5111 48.0249 89.0104 38.0331C89.3214 31.8116 91.2019 24.2498 95.9416 20.3793C101.917 15.4997 111.668 14.9834 118.607 18.0065C126.102 21.2721 122.763 28.7054 116.827 29.8124C96.1887 33.6618 113.092 53.6149 105.739 81.8317C103.724 89.5668 99.4216 94.0673 92.9621 98.2375C116.283 120.439 104.059 158.789 109.481 164.475C113.06 168.228 124.339 161.366 123.595 172.576C123.274 177.416 114.911 178.65 111.863 178.789C104.272 179.136 98.9606 178.483 94.4967 174.575Z" fill="black"/>
<path d="M106.645 165.743C106.195 165.061 105.957 164.441 105.763 163.86L105.631 163.429L105.527 163.018C105.454 162.739 105.409 162.482 105.358 162.22C105.171 161.183 105.091 160.227 105.038 159.294C104.939 157.433 104.963 155.67 104.997 153.923C105.079 150.439 105.225 147.042 105.265 143.659C105.354 136.907 105.048 130.205 103.733 123.729C103.036 120.303 102.057 116.942 100.714 113.75C99.3737 110.559 97.6631 107.541 95.5814 104.824C95.2542 104.397 94.9234 103.973 94.5741 103.564C94.2363 103.145 93.8767 102.745 93.518 102.345C92.8015 101.543 92.0399 100.784 91.2656 100.038C90.277 99.0865 90.2433 97.5095 91.1902 96.5159C91.3208 96.3789 91.463 96.2603 91.614 96.1598L91.629 96.1506C93.4536 94.9532 95.1796 93.675 96.7175 92.2624C98.2326 90.8335 99.5798 89.2869 100.618 87.5456C101.162 86.6907 101.594 85.7669 102.016 84.8385C102.398 83.8876 102.76 82.9237 103.032 81.9146L103.243 81.1608L103.435 80.3649C103.57 79.8359 103.675 79.3 103.795 78.7675C104.011 77.6974 104.213 76.6242 104.37 75.5426C105.023 71.2192 105.177 66.8207 104.971 62.3959C104.779 57.9617 104.205 53.5267 103.712 48.914C103.479 46.6011 103.257 44.2414 103.307 41.7257C103.339 40.4671 103.433 39.169 103.704 37.8239C103.836 37.1528 104.021 36.4708 104.253 35.7902C104.501 35.1103 104.785 34.4286 105.16 33.774C105.893 32.4639 106.915 31.2619 108.076 30.3536C109.233 29.43 110.489 28.7503 111.736 28.2472C112.985 27.7392 114.233 27.384 115.466 27.1105L116.35 26.924C116.529 26.8839 116.708 26.8432 116.881 26.7843C117.228 26.6697 117.57 26.5343 117.883 26.349C118.513 25.9905 119.064 25.5003 119.428 24.961C119.803 24.4256 119.982 23.8669 119.975 23.4274C119.965 22.9859 119.85 22.6142 119.497 22.176C119.142 21.747 118.561 21.2903 117.803 20.9324C117.453 20.7517 116.959 20.5794 116.515 20.4012C116.064 20.222 115.581 20.1013 115.117 19.9441C114.635 19.8282 114.156 19.6989 113.669 19.599C113.175 19.5229 112.691 19.4007 112.191 19.3556C110.206 19.0973 108.173 19.0996 106.198 19.3683C103.62 19.7242 101.129 20.5515 99.0773 21.8785C98.8066 22.0278 98.5755 22.2206 98.3328 22.3996C98.0937 22.5808 97.8338 22.7532 97.6415 22.9493C97.2162 23.3132 96.8198 23.7358 96.4453 24.1916C95.6962 25.1051 95.0494 26.1783 94.5044 27.3412C93.4268 29.6838 92.7461 32.3484 92.367 35.0634L92.2404 36.0862L92.1434 37.1139L92.0775 38.144L92.0371 39.2195C91.9805 40.6544 91.9765 42.1128 91.979 43.576C92.0106 49.4441 92.3628 55.4713 92.0994 61.665C92.068 62.4388 92.0097 63.2194 91.9653 63.9964C91.8927 64.779 91.8348 65.5594 91.7444 66.3447C91.6381 67.1319 91.5688 67.9152 91.4238 68.706L91.2274 69.8898C91.1602 70.2821 91.0789 70.6528 91.005 71.0353C90.3986 74.0717 89.6406 77.1276 88.5275 80.142L88.1056 81.2707L87.631 82.3904C87.3325 83.1404 86.9392 83.8691 86.59 84.607C85.8093 86.058 84.977 87.5018 83.9369 88.8407C83.4527 89.5296 82.8708 90.159 82.3136 90.8021C82.0361 91.1247 81.7112 91.4109 81.4105 91.7154C81.0994 92.0111 80.8088 92.3264 80.4672 92.5918L79.4705 93.4148C79.1437 93.6958 78.7701 93.9176 78.4208 94.1698C78.0598 94.4054 77.7211 94.6782 77.34 94.8791L76.2154 95.5145C75.4413 95.9524 74.7759 96.2294 74.3273 96.4982C73.8641 96.7609 73.6541 96.9647 73.5873 97.065C73.5257 97.1552 73.481 97.2502 73.4575 97.5084C73.448 97.6327 73.4622 97.7902 73.4823 97.9582C73.5187 98.1312 73.5517 98.3158 73.6246 98.5059C73.7551 98.8874 73.9615 99.2669 74.2117 99.5831L74.4444 99.8459C74.5175 99.9343 74.5882 100.025 74.7058 100.127C74.9271 100.327 75.0938 100.516 75.3687 100.737C76.3533 101.591 77.6143 102.541 78.8281 103.627C80.0416 104.727 81.2268 105.933 82.2684 107.263C82.5463 107.581 82.7721 107.937 83.0209 108.277C83.2615 108.621 83.5133 108.961 83.7424 109.312L84.3884 110.387C84.5981 110.747 84.8311 111.099 85.0043 111.473C86.5522 114.411 87.6353 117.498 88.3563 120.586C88.5738 121.357 88.7132 122.131 88.8637 122.905C89.0069 123.686 89.1823 124.437 89.2966 125.242L89.4672 126.45L89.5928 127.623C89.6845 128.411 89.7313 129.171 89.7974 129.943C90.0249 133.009 90.1398 136.023 90.2423 139.03C90.3648 142.657 90.3944 146.283 90.4376 149.874C90.4548 151.672 90.488 153.451 90.5357 155.212C90.5922 156.968 90.688 158.645 90.882 160.34C91.5866 166.785 92.8845 170.45 93.9431 173.018C94.1208 173.498 94.2763 173.857 94.3341 174.161C94.3957 174.461 94.379 174.686 94.2789 174.826C94.0846 175.103 93.5308 175.064 92.6585 174.601C91.8009 174.131 90.6653 173.178 89.5568 171.654C88.4408 170.138 87.4243 168.048 86.6849 165.544C85.7522 162.372 85.2913 159.02 85.0698 155.687C84.8527 152.387 84.7851 149.122 84.7299 145.947C84.6702 142.297 84.6143 138.663 84.4866 135.056C84.4141 133.258 84.3398 131.457 84.2019 129.693C84.1447 128.804 84.0499 127.941 83.9611 127.077L83.791 125.819L83.5515 124.538C82.9324 121.113 81.9894 117.776 80.5142 114.789C79.8098 113.273 78.8982 111.907 77.9022 110.618C76.8994 109.33 75.7254 108.204 74.4111 107.104L72.3152 105.397L71.7508 104.92L71.468 104.677L71.1758 104.402C70.9814 104.217 70.7882 104.038 70.5946 103.845L70.0141 103.182C69.8205 102.97 69.6371 102.713 69.46 102.457C69.2914 102.199 69.1288 101.937 68.9856 101.665C68.6963 101.124 68.4566 100.555 68.2719 99.9567C67.9215 98.7589 67.7548 97.4067 68.0958 95.9635C68.2656 95.2495 68.5791 94.5292 69.0064 93.8973C69.4328 93.2683 69.9597 92.7529 70.4748 92.3569C71.5151 91.5594 72.4872 91.1448 73.2253 90.7553C74.6309 90.0018 75.9241 89.1053 77.0911 88.0322C79.3926 85.8522 81.1524 83.0411 82.4102 79.9195C82.7427 79.1501 83.0121 78.3406 83.298 77.5421C83.5486 76.7229 83.818 75.9145 84.0298 75.0747C84.4872 73.4136 84.8521 71.7063 85.1672 69.9777C86.5848 62.5515 85.8577 54.3606 85.928 46.4796C85.9363 44.9062 85.9598 43.3169 86.0002 41.7204C86.0339 40.9167 86.0462 40.1203 86.0958 39.3111L86.1616 38.1001C86.183 37.6971 86.2248 37.2686 86.2557 36.8544C86.5634 33.5207 87.2142 30.2069 88.4219 26.9713C89.031 25.3574 89.7883 23.7639 90.7731 22.2515C91.7506 20.7468 92.9914 19.3023 94.4774 18.1436C95.9046 16.9962 97.4945 16.1374 99.1158 15.4363C100.742 14.7313 102.431 14.2606 104.132 13.9454C104.981 13.7672 105.839 13.6867 106.695 13.5839C107.553 13.5342 108.411 13.465 109.27 13.4864C110.986 13.4911 112.702 13.6392 114.396 13.9759C116.088 14.3112 117.771 14.7627 119.394 15.4651C120.228 15.8112 121.121 16.2619 121.954 16.8544C122.789 17.4549 123.602 18.2065 124.255 19.1737C124.908 20.1355 125.369 21.3131 125.513 22.5286C125.655 23.7457 125.475 24.9585 125.099 26.034C124.311 28.1823 122.822 29.8148 121.079 30.9093C120.205 31.4585 119.257 31.8769 118.269 32.1532C118.024 32.2299 117.772 32.2783 117.522 32.3335L116.936 32.4528C116.588 32.5163 116.248 32.5926 115.913 32.6748C115.571 32.7471 115.253 32.8528 114.922 32.9385C114.607 33.0457 114.279 33.1364 113.98 33.2586C113.363 33.4829 112.789 33.7491 112.271 34.0554C110.709 34.9621 109.708 36.1916 109.164 37.9455C108.614 39.6915 108.52 41.8334 108.594 44.0251C108.67 46.227 108.906 48.5097 109.143 50.8174C109.383 53.1276 109.63 55.4711 109.815 57.8359C110.186 62.5657 110.28 67.3961 109.822 72.2077C109.598 74.6127 109.237 77.0097 108.737 79.378C108.482 80.5691 108.215 81.723 107.872 82.9212L107.608 83.8246C107.518 84.1252 107.406 84.4221 107.305 84.7208C107.111 85.3202 106.865 85.9068 106.624 86.494C105.999 87.9532 105.247 89.3707 104.367 90.7046C103.487 92.0398 102.465 93.2713 101.373 94.4054C99.1841 96.6846 96.6871 98.5026 94.1672 100.123L94.4953 96.6106C97.0764 99.108 99.366 101.915 101.284 104.948C103.203 107.982 104.744 111.234 105.949 114.581C108.361 121.291 109.415 128.331 109.788 135.281C109.976 138.761 109.993 142.233 109.936 145.68C109.885 149.124 109.738 152.557 109.729 155.913C109.732 157.582 109.765 159.252 109.975 160.774C110.081 161.524 110.246 162.248 110.473 162.755C110.591 163.014 110.693 163.157 110.809 163.273C110.845 163.303 110.878 163.335 110.91 163.37C110.947 163.401 110.996 163.424 111.037 163.455C111.108 163.522 111.234 163.56 111.332 163.62C111.793 163.823 112.478 163.935 113.223 163.977C113.972 164.021 114.789 164.003 115.641 163.986C116.494 163.97 117.387 163.95 118.332 164.006C119.276 164.067 120.289 164.194 121.345 164.595C121.598 164.677 121.855 164.822 122.105 164.943C122.355 165.077 122.6 165.248 122.838 165.413C123.301 165.781 123.73 166.212 124.049 166.698C124.707 167.67 125 168.72 125.15 169.687C125.206 170.168 125.259 170.649 125.255 171.106C125.278 171.574 125.241 172.016 125.22 172.463C125.218 172.661 125.173 172.973 125.134 173.244C125.075 173.519 125.019 173.799 124.92 174.063C124.749 174.604 124.469 175.09 124.167 175.534C123.54 176.408 122.763 177.05 121.977 177.538C121.188 178.033 120.379 178.394 119.572 178.683C117.957 179.261 116.348 179.575 114.755 179.765C113.957 179.856 113.166 179.916 112.365 179.933C111.956 179.943 111.577 179.933 111.196 179.929C110.814 179.924 110.433 179.919 110.052 179.903C108.531 179.855 107.02 179.751 105.537 179.537C104.055 179.325 102.598 179.008 101.218 178.533C99.8388 178.06 98.5415 177.424 97.3951 176.635C96.3429 175.901 95.7067 175.201 95.3871 174.681C95.0671 174.159 95.0322 173.847 95.2389 173.741C95.6794 173.497 96.9217 174.275 99.2934 175.216C102.682 176.525 106.717 176.513 110.886 176.227L111.67 176.172C111.917 176.153 112.136 176.131 112.38 176.102C112.857 176.046 113.343 175.974 113.825 175.888C114.79 175.718 115.743 175.491 116.642 175.209C117.537 174.925 118.39 174.582 119.083 174.178C119.776 173.781 120.294 173.312 120.486 172.971C120.564 172.83 120.604 172.715 120.633 172.601C120.635 172.571 120.641 172.543 120.65 172.514C120.653 172.484 120.65 172.45 120.655 172.418C120.656 172.395 120.661 172.403 120.662 172.354L120.664 172.217L120.669 171.944C120.691 171.568 120.655 171.244 120.648 170.903C120.625 170.752 120.605 170.602 120.588 170.45C120.573 170.296 120.528 170.189 120.506 170.054C120.446 169.809 120.367 169.627 120.3 169.49C120.264 169.424 120.225 169.386 120.199 169.33C120.151 169.307 120.145 169.244 120.094 169.226C120.074 169.212 120.056 169.194 120.041 169.173C120.014 169.16 119.986 169.146 119.962 169.128C119.927 169.085 119.826 169.067 119.766 169.021C119.585 168.957 119.374 168.876 119.078 168.829C118.506 168.719 117.755 168.679 116.922 168.685C116.085 168.687 115.173 168.726 114.171 168.724C113.165 168.713 112.079 168.703 110.768 168.39C110.131 168.25 109.4 167.974 108.696 167.57C107.985 167.148 107.295 166.535 106.782 165.794C106.738 165.78 106.695 165.766 106.645 165.743Z" fill="black"/>
</svg>
