<svg width="42" height="42" viewBox="0 0 42 42" fill="none" xmlns="http://www.w3.org/2000/svg">
<path d="M29.5669 1.76562C28.3069 1.76562 27.2142 2.015 26.2069 2.26766C27.9722 3.02234 29.0648 3.94766 29.6522 4.36766C30.9975 5.54234 31.7522 6.72031 33.0975 8.65297C33.3469 9.07297 33.7669 9.66031 34.0195 10.5823C34.2722 11.4223 34.2722 12.095 34.2722 12.7677C34.2722 13.693 34.1869 14.4477 34.1016 15.2023C34.0195 15.793 34.0195 16.0456 33.9375 16.213C33.9375 16.2983 33.9375 16.3803 33.8522 16.5477C33.8522 16.9677 33.8522 17.1383 33.9375 17.473C33.9375 17.8077 34.0195 18.1456 34.0195 18.733C34.1048 19.8256 34.1048 20.5803 33.9375 21.5023V21.8403C33.7669 22.595 33.5995 23.353 33.1795 24.0223C33.2648 24.193 33.3469 24.275 33.4322 24.4423C33.8522 23.855 34.1869 23.2677 34.5216 22.5983C35.5322 20.7477 36.1195 19.153 36.5395 17.9783C37.2942 15.793 37.7142 14.195 37.9669 13.0203C38.5542 10.5003 38.6395 9.32563 38.3869 7.98031C38.3869 7.56031 38.2195 6.80234 37.7995 6.04766C36.8742 4.36766 35.4469 3.61297 34.4395 3.10766C33.7669 2.77297 32.0016 1.84766 29.5669 1.76562ZM11.3691 2.13641C10.4011 2.11672 9.21985 2.225 7.89422 2.855C7.47422 3.02563 6.21422 3.61297 5.20688 4.955C4.53422 5.795 4.03219 7.055 3.77953 8.48234C3.52688 9.74234 3.44156 11.2583 3.94688 14.113C4.28156 16.1277 4.61953 17.473 5.29219 20.2423C5.3775 20.5803 5.87953 22.093 6.97219 25.453L7.05422 25.6203C7.22485 26.2077 7.72688 27.4677 8.81953 28.7277C9.57422 29.5677 10.2469 30.073 10.8375 30.073H11.0016C12.0942 30.073 12.8522 29.233 13.5216 28.5603C13.5216 28.475 15.1195 26.5456 15.7069 25.873C15.6216 25.7877 15.4575 25.7877 15.3722 25.7023C14.3648 25.115 13.6069 24.193 13.0195 23.1823C12.0122 21.335 12.0942 19.4877 12.2616 18.5623L12.3469 17.1383C12.0122 14.8677 12.0975 12.6856 12.5175 10.5003C12.8522 8.65297 13.2722 6.80562 14.7816 4.87297C15.2869 4.20031 15.8742 3.61297 16.4616 3.19297C15.1195 2.60563 13.6922 2.26766 12.2616 2.18563C11.9892 2.16266 11.6906 2.14297 11.3691 2.13641ZM21.9216 2.855C21.5016 2.855 21.0816 2.855 20.6616 2.94031C18.9816 3.275 17.3869 4.20031 16.1269 5.795C14.8669 7.39297 14.5322 8.90234 14.1975 10.6677C14.0269 11.3403 14.0269 11.9277 13.9416 12.6003C14.4469 12.1803 15.1195 11.675 16.1269 11.4223C16.7142 11.255 18.2269 10.753 19.4869 11.5077C19.9069 11.7603 20.4942 12.2656 21.0816 13.693C22.3416 17.2203 21.0848 20.833 20.9175 21.1677C20.8322 21.5023 20.6648 21.755 20.5795 21.9223C20.4122 22.3423 20.2448 22.6803 20.0775 23.353C19.9922 23.9403 19.9069 24.4456 19.9069 25.033C20.1595 25.033 20.4122 25.115 20.6616 25.2823C21.0816 25.7023 21.1669 26.293 21.2522 26.5423C21.4195 27.8877 21.4195 29.5677 21.4195 31.2477C21.4195 32.593 21.4195 33.853 21.5016 34.693C21.6722 36.6256 22.2595 37.9677 23.0995 38.6403C23.6869 39.1456 24.4416 39.1423 24.8616 39.2277H25.0322C26.2922 39.2277 28.3069 38.3877 29.0616 37.213C29.4816 36.5403 29.6522 35.953 29.8195 35.113C29.9048 34.6077 29.9016 34.3583 29.9869 33.853C29.9869 33.6003 30.0722 33.1803 30.0722 32.6783C30.0722 32.2583 30.1542 31.753 30.2395 31.1623C30.3248 29.735 30.5742 28.0583 30.6595 27.133C30.7448 26.0403 31.2469 25.115 31.6669 24.5277C31.0795 24.4423 30.4922 23.9403 30.1575 23.1003C29.6522 22.175 29.5669 21.9223 29.4816 21.5023C29.3995 21.1677 29.2322 20.7477 28.6416 19.4877C27.3816 16.633 27.2175 15.793 27.2175 15.1203C27.1322 14.195 27.0469 12.9383 28.0575 12.0983C29.5669 10.753 31.4995 10.8383 32.5069 11.173V11.0023C32.3395 10.333 32.0048 9.82766 31.7522 9.49297C30.4922 7.56031 29.8195 6.55297 28.6416 5.54563C28.1395 5.12563 26.8795 4.115 25.0322 3.44563C24.1922 3.19297 23.1816 2.855 21.9216 2.855ZM31.2075 12.7053C30.5972 12.6627 29.8195 12.7677 29.1469 13.3583C28.8122 13.693 28.8122 14.3656 28.8975 14.953C28.8975 15.373 28.9795 15.9603 30.2395 18.8183C30.8269 20.1603 30.9942 20.5803 31.0795 20.9183C31.1648 21.253 31.2469 21.4203 31.7522 22.3423C31.8375 22.513 31.9195 22.6803 32.0869 22.8477C32.2542 22.595 32.3395 22.175 32.4216 21.5023L32.5069 21.253C32.6742 20.4983 32.5922 19.9077 32.5922 18.9003C32.5922 18.395 32.5069 18.0603 32.5069 17.8077C32.4216 17.3877 32.4216 17.053 32.4216 16.5477C32.2542 16.295 32.2542 16.213 32.3395 16.0423C32.3395 15.875 32.4216 15.6256 32.5069 15.1203C32.5922 14.4477 32.6775 13.8603 32.6775 13.1877C32.5069 13.1023 32.4248 13.0203 32.2575 12.9383C32.2575 12.9383 31.8145 12.748 31.2075 12.7053ZM18.0727 13.0367C17.5378 12.9744 16.9242 13.1483 16.5469 13.273C15.6216 13.5256 15.0375 14.113 14.6175 14.4477C14.3648 14.7003 14.1122 14.953 13.8595 15.2877C13.8595 15.875 13.9416 16.4656 14.0269 17.053V17.1383L13.8595 18.8183C13.6922 19.573 13.6069 21.0003 14.4469 22.4277C14.8669 23.2677 15.4575 23.9403 16.2122 24.3603C16.7175 24.695 17.3869 24.9477 18.1416 25.1183C18.1416 24.5277 18.2269 23.855 18.3122 23.2677C18.4795 22.4277 18.6469 22.0077 18.8995 21.5023C18.9848 21.253 19.0669 21.0856 19.2375 20.833C19.3195 20.5803 20.4942 17.3877 19.4016 14.4477C19.1522 13.775 18.8995 13.355 18.5616 13.1877C18.4172 13.1023 18.2466 13.0564 18.0727 13.0367ZM30.397 13.5158C30.6169 13.5027 30.8269 13.5223 30.9122 13.6077C31.1648 13.775 30.8269 14.195 30.7416 14.2803C30.6595 14.3656 30.4922 14.533 30.2395 14.6183C29.9048 14.7003 29.6522 14.4477 29.5669 14.4477C29.4816 14.3623 29.2322 14.113 29.3175 13.8603C29.3995 13.693 29.4848 13.693 29.8195 13.6077C29.9442 13.565 30.1772 13.5256 30.397 13.5158ZM17.7708 14.2114C18.053 14.1917 18.2892 14.3 18.4795 14.3623C18.7322 14.4477 18.9816 14.533 18.9816 14.7003C19.0669 14.953 18.8175 15.1203 18.7322 15.2023C18.4795 15.455 18.0595 15.4583 18.0595 15.4583C17.6395 15.4583 17.3869 15.2056 17.2195 14.953C17.1342 14.8677 17.0522 14.7003 17.1375 14.533C17.2195 14.3656 17.3869 14.2803 17.4722 14.2803C17.5772 14.2377 17.6756 14.218 17.7708 14.2114ZM33.1795 25.2003C32.7595 25.7877 32.1722 26.5456 32.0869 27.553C32.0869 27.7203 32.0869 27.8056 32.0016 27.973C32.6742 28.1403 33.2648 28.1403 33.8522 28.0583C35.1975 27.8877 36.1195 27.215 36.2869 27.0477C36.8742 26.6277 37.6322 25.7877 37.4616 25.453C37.3795 25.2856 37.1269 25.3677 35.7816 25.453C35.4469 25.453 34.4395 25.7056 33.7669 25.5383H33.5995C33.4322 25.453 33.2648 25.3677 33.1795 25.2003ZM18.5616 26.8803C18.3942 27.133 18.1448 27.3003 17.9775 27.4677C17.3048 27.8877 16.4616 28.2256 15.6216 28.393C14.8669 28.6456 14.4469 28.6456 14.4469 28.8983C14.3616 29.233 15.2016 29.653 15.6216 29.8203C17.0522 30.4077 18.4795 30.073 18.7322 29.9877C18.8995 29.9023 19.3195 29.735 19.7395 29.4823C19.7395 28.5603 19.6575 27.7203 19.5722 27.0477V26.9623H19.4869C19.2342 26.9623 18.8995 26.9656 18.5616 26.8803Z" fill="white"/>
</svg>
