<svg width="1920" height="1320" viewBox="0 0 1920 1320" fill="none" xmlns="http://www.w3.org/2000/svg">
<g clip-path="url(#clip0_108_1949)">
<rect width="1920" height="1320" fill="white"/>
<path opacity="0.04" d="M196.8 331.3V288.7H236.1C243.7 288.7 250.2 287.2 255.6 284.2C261.2 281.2 265.5 277 268.5 271.6C271.5 266 273 259.6 273 252.4C273 244.8 271.5 238.3 268.5 232.9C265.5 227.3 261.2 223.1 255.6 220.3C250.2 217.3 243.7 215.8 236.1 215.8H196.8V173.2H233.7C252.3 173.2 268.2 176.3 281.4 182.5C294.8 188.7 305 197.5 312 208.9C319.2 220.3 322.8 234 322.8 250V254.8C322.8 270.4 319.2 284 312 295.6C305 307 294.8 315.8 281.4 322C268.2 328.2 252.3 331.3 233.7 331.3H196.8ZM153.6 394V173.2H202.8V394H153.6ZM359.698 394V173.2H408.898V394H359.698ZM492.598 394L428.398 299.8H482.398L549.598 394H492.598ZM395.698 323.8V285.1H449.698C456.898 285.1 463.098 283.7 468.298 280.9C473.698 277.9 477.798 273.8 480.598 268.6C483.598 263.2 485.098 257 485.098 250C485.098 243 483.598 236.9 480.598 231.7C477.798 226.3 473.698 222.2 468.298 219.4C463.098 216.4 456.898 214.9 449.698 214.9H395.698V173.2H445.798C463.998 173.2 479.798 176 493.198 181.6C506.598 187 516.898 195.1 524.098 205.9C531.298 216.7 534.898 230.3 534.898 246.7V251.5C534.898 267.7 531.198 281.2 523.798 292C516.598 302.6 506.298 310.6 492.898 316C479.698 321.2 463.998 323.8 445.798 323.8H395.698ZM687.202 399.7C667.402 399.7 650.102 396.3 635.302 389.5C620.702 382.5 608.602 373.4 599.002 362.2C589.402 350.8 582.202 338.5 577.402 325.3C572.802 312.1 570.502 299.4 570.502 287.2V280.6C570.502 267 572.902 253.6 577.702 240.4C582.702 227 590.102 214.9 599.902 204.1C609.702 193.3 621.902 184.7 636.502 178.3C651.102 171.7 668.002 168.4 687.202 168.4C706.402 168.4 723.302 171.7 737.902 178.3C752.502 184.7 764.702 193.3 774.502 204.1C784.302 214.9 791.702 227 796.702 240.4C801.702 253.6 804.202 267 804.202 280.6V287.2C804.202 299.4 801.802 312.1 797.002 325.3C792.202 338.5 785.002 350.8 775.402 362.2C765.802 373.4 753.602 382.5 738.802 389.5C724.202 396.3 707.002 399.7 687.202 399.7ZM687.202 353.8C697.602 353.8 706.902 352 715.102 348.4C723.502 344.8 730.602 339.8 736.402 333.4C742.402 327 746.902 319.6 749.902 311.2C752.902 302.8 754.402 293.8 754.402 284.2C754.402 274 752.802 264.7 749.602 256.3C746.602 247.7 742.102 240.3 736.102 234.1C730.302 227.7 723.302 222.8 715.102 219.4C706.902 216 697.602 214.3 687.202 214.3C676.802 214.3 667.502 216 659.302 219.4C651.102 222.8 644.002 227.7 638.002 234.1C632.202 240.3 627.802 247.7 624.802 256.3C621.802 264.7 620.302 274 620.302 284.2C620.302 293.8 621.802 302.8 624.802 311.2C627.802 319.6 632.202 327 638.002 333.4C644.002 339.8 651.102 344.8 659.302 348.4C667.502 352 676.802 353.8 687.202 353.8ZM913.779 399.7C897.179 399.7 882.779 396.6 870.579 390.4C858.579 384 849.279 374.8 842.679 362.8C836.279 350.8 833.079 336.2 833.079 319V307.9H881.679V321.7C881.679 331.3 884.479 339.1 890.079 345.1C895.879 350.9 903.779 353.8 913.779 353.8C923.579 353.8 931.279 350.9 936.879 345.1C942.679 339.1 945.579 331.3 945.579 321.7V211.9H994.779V319C994.779 336.2 991.479 350.8 984.879 362.8C978.479 374.8 969.179 384 956.979 390.4C944.979 396.6 930.579 399.7 913.779 399.7ZM858.579 217.9V175H994.779V217.9H858.579ZM1046.25 394V175H1094.25V394H1046.25ZM1088.25 394V353.2H1183.95V394H1088.25ZM1088.25 303.1V262.3H1177.05V303.1H1088.25ZM1088.25 215.8V175H1181.85V215.8H1088.25ZM1328.53 399.7C1308.73 399.7 1291.73 396.3 1277.53 389.5C1263.33 382.5 1251.73 373.4 1242.73 362.2C1233.73 350.8 1227.03 338.6 1222.63 325.6C1218.43 312.4 1216.33 299.6 1216.33 287.2V280.6C1216.33 267 1218.53 253.6 1222.93 240.4C1227.33 227 1234.03 214.9 1243.03 204.1C1252.23 193.3 1263.73 184.7 1277.53 178.3C1291.53 171.7 1308.03 168.4 1327.03 168.4C1346.83 168.4 1364.33 172.1 1379.53 179.5C1394.73 186.9 1406.83 197.2 1415.83 210.4C1425.03 223.4 1430.43 238.7 1432.03 256.3H1382.53C1381.13 247.5 1377.93 240 1372.93 233.8C1367.93 227.6 1361.43 222.8 1353.43 219.4C1345.63 216 1336.83 214.3 1327.03 214.3C1317.23 214.3 1308.53 216 1300.93 219.4C1293.33 222.8 1286.93 227.6 1281.73 233.8C1276.73 240 1272.83 247.4 1270.03 256C1267.43 264.4 1266.13 273.8 1266.13 284.2C1266.13 294.4 1267.43 303.8 1270.03 312.4C1272.83 320.8 1276.83 328.2 1282.03 334.6C1287.43 340.8 1294.03 345.6 1301.83 349C1309.63 352.2 1318.53 353.8 1328.53 353.8C1343.73 353.8 1356.53 350.1 1366.93 342.7C1377.53 335.3 1383.93 325.1 1386.13 312.1H1435.33C1433.53 328.1 1428.13 342.8 1419.13 356.2C1410.33 369.4 1398.23 380 1382.83 388C1367.63 395.8 1349.53 399.7 1328.53 399.7ZM1515.42 394V211.9H1564.62V394H1515.42ZM1453.92 217.9V175H1626.42V217.9H1453.92ZM1734.3 399.7C1714.5 399.7 1697.8 396.6 1684.2 390.4C1670.6 384 1660.3 375.4 1653.3 364.6C1646.3 353.6 1642.8 341 1642.8 326.8H1690.5C1690.5 332.4 1692 337.6 1695 342.4C1698.2 347.2 1703 351.1 1709.4 354.1C1715.8 356.9 1724.1 358.3 1734.3 358.3C1743.5 358.3 1751.2 357.1 1757.4 354.7C1763.6 352.3 1768.3 349 1771.5 344.8C1774.7 340.4 1776.3 335.4 1776.3 329.8C1776.3 322.8 1773.3 317.3 1767.3 313.3C1761.3 309.1 1751.6 306.4 1738.2 305.2L1721.7 303.7C1699.9 301.9 1682.5 295.1 1669.5 283.3C1656.5 271.5 1650 255.9 1650 236.5C1650 222.5 1653.3 210.4 1659.9 200.2C1666.7 190 1676.1 182.2 1688.1 176.8C1700.1 171.2 1714.3 168.4 1730.7 168.4C1747.9 168.4 1762.6 171.4 1774.8 177.4C1787.2 183.2 1796.7 191.5 1803.3 202.3C1809.9 212.9 1813.2 225.4 1813.2 239.8H1765.2C1765.2 234.4 1763.9 229.5 1761.3 225.1C1758.7 220.5 1754.8 216.8 1749.6 214C1744.6 211.2 1738.3 209.8 1730.7 209.8C1723.5 209.8 1717.4 211 1712.4 213.4C1707.6 215.8 1704 219.1 1701.6 223.3C1699.2 227.3 1698 231.7 1698 236.5C1698 242.7 1700.2 248.1 1704.6 252.7C1709 257.3 1716.2 260 1726.2 260.8L1743 262.3C1759 263.7 1773.1 267.2 1785.3 272.8C1797.5 278.2 1807 285.7 1813.8 295.3C1820.8 304.7 1824.3 316.2 1824.3 329.8C1824.3 343.8 1820.6 356.1 1813.2 366.7C1806 377.1 1795.7 385.2 1782.3 391C1768.9 396.8 1752.9 399.7 1734.3 399.7Z" fill="url(#paint0_linear_108_1949)"/>
<path d="M12.6374 1030.8C64.0441 1124.79 116.983 1198.49 188.586 1299.27C251.418 1387.7 444.958 1559.7 581.82 1581.87C811.541 1619.07 1764.29 1443.66 1893.11 1387.7C2096.68 1299.27 2357.73 813.317 2241.14 606.282C2124.55 399.246 1764.17 -71.9603 1423.4 -263.023C1082.64 -454.086 356.636 -122.872 282.855 -87.2425C146.88 -21.5789 -154.445 228.509 -192.682 419.557C-228.355 597.794 -32.602 948.078 12.6374 1030.8Z" stroke="#3C59C5" stroke-opacity="0.1" stroke-width="2"/>
</g>
<defs>
<linearGradient id="paint0_linear_108_1949" x1="129" y1="183.095" x2="1498.1" y2="168.71" gradientUnits="userSpaceOnUse">
<stop stop-color="#3A59C5"/>
<stop offset="1" stop-color="#8D43EA"/>
</linearGradient>
<clipPath id="clip0_108_1949">
<rect width="1920" height="1320" fill="white"/>
</clipPath>
</defs>
</svg>
