<svg width="42" height="42" viewBox="0 0 42 42" fill="none" xmlns="http://www.w3.org/2000/svg">
<path d="M20.5797 1.67969C13.2723 1.67969 11.7597 5.45313 11.7597 7.63844V11.7597H20.1597V12.5997H7.63844C4.86578 12.5997 1.67969 14.785 1.67969 20.9997C1.67969 27.2144 4.86578 29.3997 7.63844 29.3997H12.5997V24.3597C12.5997 22.5123 14.1123 20.9997 15.9597 20.9997H26.0397C27.467 20.9997 28.5597 19.907 28.5597 18.4797V7.63844C28.5597 4.69844 25.787 1.67969 20.5797 1.67969ZM16.7997 5.87969C17.725 5.87969 18.4797 6.63438 18.4797 7.55969C18.4797 8.485 17.725 9.23969 16.7997 9.23969C15.8744 9.23969 15.1197 8.485 15.1197 7.55969C15.1197 6.63438 15.8744 5.87969 16.7997 5.87969ZM29.3997 12.5997V18.4797C29.3997 20.327 27.887 21.8397 26.0397 21.8397H15.9597C14.5323 21.8397 13.4397 22.9323 13.4397 24.3597V34.3609C13.4397 37.3009 16.2123 40.3197 21.4197 40.3197C28.727 40.3197 30.2397 36.5462 30.2397 34.3609V30.2397H21.8397V29.3997H34.3609C37.1336 29.3997 40.3197 27.2144 40.3197 20.9997C40.3197 14.785 37.1336 12.5997 34.3609 12.5997H29.3997ZM25.1997 32.7597C26.125 32.7597 26.8797 33.5144 26.8797 34.4397C26.8797 35.365 26.125 36.1197 25.1997 36.1197C24.2744 36.1197 23.5197 35.365 23.5197 34.4397C23.5197 33.5144 24.2744 32.7597 25.1997 32.7597Z" fill="white"/>
</svg>
