<svg width="1920" height="1019" viewBox="0 0 1920 1019" fill="none" xmlns="http://www.w3.org/2000/svg">
<g clip-path="url(#clip0_108_2267)">
<rect width="1920" height="1019" fill="white"/>
<path opacity="0.035" d="M544.1 401V218.9H593.3V401H544.1ZM482.6 224.9V182H655.1V224.9H482.6ZM692.049 401V182H740.049V401H692.049ZM734.049 401V360.2H829.749V401H734.049ZM734.049 310.1V269.3H822.849V310.1H734.049ZM734.049 222.8V182H827.649V222.8H734.049ZM974.33 406.7C954.53 406.7 937.53 403.3 923.33 396.5C909.13 389.5 897.53 380.4 888.53 369.2C879.53 357.8 872.83 345.6 868.43 332.6C864.23 319.4 862.13 306.6 862.13 294.2V287.6C862.13 274 864.33 260.6 868.73 247.4C873.13 234 879.83 221.9 888.83 211.1C898.03 200.3 909.53 191.7 923.33 185.3C937.33 178.7 953.83 175.4 972.83 175.4C992.63 175.4 1010.13 179.1 1025.33 186.5C1040.53 193.9 1052.63 204.2 1061.63 217.4C1070.83 230.4 1076.23 245.7 1077.83 263.3H1028.33C1026.93 254.5 1023.73 247 1018.73 240.8C1013.73 234.6 1007.23 229.8 999.23 226.4C991.43 223 982.63 221.3 972.83 221.3C963.03 221.3 954.33 223 946.73 226.4C939.13 229.8 932.73 234.6 927.53 240.8C922.53 247 918.63 254.4 915.83 263C913.23 271.4 911.93 280.8 911.93 291.2C911.93 301.4 913.23 310.8 915.83 319.4C918.63 327.8 922.63 335.2 927.83 341.6C933.23 347.8 939.83 352.6 947.63 356C955.43 359.2 964.33 360.8 974.33 360.8C989.53 360.8 1002.33 357.1 1012.73 349.7C1023.33 342.3 1029.73 332.1 1031.93 319.1H1081.13C1079.33 335.1 1073.93 349.8 1064.93 363.2C1056.13 376.4 1044.03 387 1028.63 395C1013.43 402.8 995.33 406.7 974.33 406.7ZM1261.37 401V182H1310.57V401H1261.37ZM1119.77 401V182H1168.97V401H1119.77ZM1160.27 312.5V269.3H1270.07V312.5H1160.27Z" fill="url(#paint0_linear_108_2267)"/>
<path d="M61.1236 818.507C108.851 895.013 158 955 224.478 1037.02C282.813 1109 462.5 1249 589.566 1267.04C802.845 1297.32 1687.4 1154.55 1807 1109C1996 1037.02 2238.37 641.494 2130.12 472.981C2021.87 304.468 1687.29 -79.0616 1370.91 -234.573C1054.54 -390.085 380.5 -120.5 312 -91.5002C185.757 -38.0546 -93.9998 165.5 -129.5 321C-162.619 466.072 19.1223 751.18 61.1236 818.507Z" stroke="#98AEFF" stroke-width="2"/>
<path d="M12.6374 864.266C64.0441 946.691 116.983 1011.32 188.586 1099.69C251.418 1177.23 444.958 1328.06 581.82 1347.5C811.541 1380.13 1764.29 1226.3 1893.11 1177.23C2096.68 1099.69 2357.73 673.559 2241.14 492.009C2124.55 310.46 1764.17 -102.74 1423.4 -270.283C1082.64 -437.826 356.636 -147.385 282.855 -116.141C146.88 -58.5611 -154.445 160.741 -192.682 328.271C-228.355 484.566 -32.602 791.73 12.6374 864.266Z" stroke="#3C59C5" stroke-opacity="0.1" stroke-width="2"/>
<path opacity="0.035" d="M476.8 774.7C457 774.7 440.3 771.6 426.7 765.4C413.1 759 402.8 750.4 395.8 739.6C388.8 728.6 385.3 716 385.3 701.8H433C433 707.4 434.5 712.6 437.5 717.4C440.7 722.2 445.5 726.1 451.9 729.1C458.3 731.9 466.6 733.3 476.8 733.3C486 733.3 493.7 732.1 499.9 729.7C506.1 727.3 510.8 724 514 719.8C517.2 715.4 518.8 710.4 518.8 704.8C518.8 697.8 515.8 692.3 509.8 688.3C503.8 684.1 494.1 681.4 480.7 680.2L464.2 678.7C442.4 676.9 425 670.1 412 658.3C399 646.5 392.5 630.9 392.5 611.5C392.5 597.5 395.8 585.4 402.4 575.2C409.2 565 418.6 557.2 430.6 551.8C442.6 546.2 456.8 543.4 473.2 543.4C490.4 543.4 505.1 546.4 517.3 552.4C529.7 558.2 539.2 566.5 545.8 577.3C552.4 587.9 555.7 600.4 555.7 614.8H507.7C507.7 609.4 506.4 604.5 503.8 600.1C501.2 595.5 497.3 591.8 492.1 589C487.1 586.2 480.8 584.8 473.2 584.8C466 584.8 459.9 586 454.9 588.4C450.1 590.8 446.5 594.1 444.1 598.3C441.7 602.3 440.5 606.7 440.5 611.5C440.5 617.7 442.7 623.1 447.1 627.7C451.5 632.3 458.7 635 468.7 635.8L485.5 637.3C501.5 638.7 515.6 642.2 527.8 647.8C540 653.2 549.5 660.7 556.3 670.3C563.3 679.7 566.8 691.2 566.8 704.8C566.8 718.8 563.1 731.1 555.7 741.7C548.5 752.1 538.2 760.2 524.8 766C511.4 771.8 495.4 774.7 476.8 774.7ZM644.045 769V586.9H693.245V769H644.045ZM582.545 592.9V550H755.045V592.9H582.545ZM751.959 769L824.259 550H903.759L978.759 769H927.759L867.159 583.9L882.759 590.2H844.059L860.259 583.9L801.159 769H751.959ZM806.859 714.7L821.859 673.9H907.659L922.959 714.7H806.859ZM1104.45 774.7C1084.65 774.7 1067.65 771.3 1053.45 764.5C1039.25 757.5 1027.65 748.4 1018.65 737.2C1009.65 725.8 1002.95 713.6 998.552 700.6C994.352 687.4 992.252 674.6 992.252 662.2V655.6C992.252 642 994.452 628.6 998.852 615.4C1003.25 602 1009.95 589.9 1018.95 579.1C1028.15 568.3 1039.65 559.7 1053.45 553.3C1067.45 546.7 1083.95 543.4 1102.95 543.4C1122.75 543.4 1140.25 547.1 1155.45 554.5C1170.65 561.9 1182.75 572.2 1191.75 585.4C1200.95 598.4 1206.35 613.7 1207.95 631.3H1158.45C1157.05 622.5 1153.85 615 1148.85 608.8C1143.85 602.6 1137.35 597.8 1129.35 594.4C1121.55 591 1112.75 589.3 1102.95 589.3C1093.15 589.3 1084.45 591 1076.85 594.4C1069.25 597.8 1062.85 602.6 1057.65 608.8C1052.65 615 1048.75 622.4 1045.95 631C1043.35 639.4 1042.05 648.8 1042.05 659.2C1042.05 669.4 1043.35 678.8 1045.95 687.4C1048.75 695.8 1052.75 703.2 1057.95 709.6C1063.35 715.8 1069.95 720.6 1077.75 724C1085.55 727.2 1094.45 728.8 1104.45 728.8C1119.65 728.8 1132.45 725.1 1142.85 717.7C1153.45 710.3 1159.85 700.1 1162.05 687.1H1211.25C1209.45 703.1 1204.05 717.8 1195.05 731.2C1186.25 744.4 1174.15 755 1158.75 763C1143.55 770.8 1125.45 774.7 1104.45 774.7ZM1393.89 769L1318.29 666.7H1287.99L1379.79 550H1436.19L1353.69 654.7L1353.09 633.4L1453.29 769H1393.89ZM1249.89 769V550H1299.09V769H1249.89Z" fill="url(#paint1_linear_108_2267)"/>
</g>
<defs>
<linearGradient id="paint0_linear_108_2267" x1="476" y1="227.018" x2="1166.11" y2="224.245" gradientUnits="userSpaceOnUse">
<stop stop-color="#3A59C5"/>
<stop offset="1" stop-color="#8D43EA"/>
</linearGradient>
<linearGradient id="paint1_linear_108_2267" x1="376" y1="595.018" x2="1223.12" y2="590.84" gradientUnits="userSpaceOnUse">
<stop stop-color="#3A59C5"/>
<stop offset="1" stop-color="#8D43EA"/>
</linearGradient>
<clipPath id="clip0_108_2267">
<rect width="1920" height="1019" fill="white"/>
</clipPath>
</defs>
</svg>
